<svg width="79" height="79" viewBox="0 0 79 79" fill="none" xmlns="http://www.w3.org/2000/svg">
<path d="M39.1225 75.1796C59.036 75.1796 75.1791 59.0365 75.1791 39.123C75.1791 19.2095 59.036 3.06641 39.1225 3.06641C19.209 3.06641 3.06592 19.2095 3.06592 39.123C3.06592 59.0365 19.209 75.1796 39.1225 75.1796Z" stroke="#A0A0A0" stroke-width="6.13208"/>
<path d="M45.9905 52.1213C45.7452 51.876 45.7452 51.3855 45.4999 50.8949C45.4999 50.4043 45.2546 49.9138 45.2546 49.4232C44.7641 49.9138 44.2735 50.159 43.7829 50.6496C43.2924 51.1402 42.5565 51.3854 42.0659 51.6307C41.3301 51.876 40.8395 52.1213 39.8584 52.3666C39.1225 52.6119 38.1414 52.6119 37.4056 52.6119C35.9339 52.6119 34.7074 52.3666 33.481 51.876C32.2546 51.3854 31.2735 50.8949 30.2924 50.159C29.3112 49.4232 28.8207 48.4421 28.3301 47.4609C27.8395 46.4798 27.5942 45.2534 27.5942 44.027C27.5942 41.0836 28.8207 38.6307 31.0282 37.159C33.2357 35.4421 36.6697 34.7062 41.0848 34.7062H45.2546V32.9892C45.2546 31.5175 44.7641 30.5364 44.0282 29.8005C43.0471 29.0647 41.8207 28.5741 40.1037 28.5741C38.632 28.5741 37.6508 28.8194 36.915 29.5553C36.1791 30.2911 35.9339 31.027 35.9339 32.0081H28.5754C28.5754 30.7817 28.8207 29.5553 29.3112 28.5741C29.8018 27.593 30.5376 26.6119 31.764 25.6307C32.7452 24.8949 33.9716 24.159 35.4433 23.6685C36.915 23.1779 38.632 22.9326 40.5942 22.9326C42.3112 22.9326 43.7829 23.1779 45.2546 23.6685C46.7263 24.159 47.9527 24.6496 49.1791 25.6307C50.1603 26.3666 51.1414 27.593 51.632 28.8194C52.1225 30.0458 52.6131 31.5175 52.6131 33.2345V45.4987C52.6131 46.9704 52.6131 48.1968 52.8584 49.1779C53.1037 50.159 53.349 51.1402 53.5942 51.6307V52.1213H45.9905ZM38.8773 46.9704C39.6131 46.9704 40.349 46.9704 40.8395 46.7251C41.5754 46.4798 42.0659 46.2345 42.5565 45.9892C43.0471 45.7439 43.5376 45.4987 43.7829 45.0081C44.0282 44.7628 44.5188 44.2722 44.7641 44.027V39.1213H41.0848C39.8584 39.1213 38.8773 39.1213 38.1414 39.3666C37.4056 39.6119 36.6697 39.8571 36.1791 40.3477C35.6886 40.8383 35.198 41.0836 34.9527 41.8194C34.7074 42.31 34.7074 43.0458 34.7074 43.5364C34.7074 44.5175 34.9527 45.2534 35.6886 45.9892C36.4244 46.7251 37.6508 46.9704 38.8773 46.9704Z" fill="#A0A0A0"/>
</svg>
