<svg width="250" height="221" viewBox="0 0 250 221" fill="none" xmlns="http://www.w3.org/2000/svg">
<path d="M124.646 220.125C193.49 220.125 249.292 175.063 249.292 119.49C249.292 85.0312 227.927 54.5938 195.083 36.5417C181.719 29.1146 171.219 22.4479 162.479 16.9062C146.021 6.44792 135.865 0 124.646 0C113.25 0 100.406 8.15625 83.4479 18.9167C73.8941 25.1112 64.1388 30.9894 54.1979 36.5417C21.3646 54.5938 0 85.0312 0 119.49C0 175.063 55.8021 220.125 124.646 220.125ZM110.094 34.3958C113.559 26.5086 115.323 17.9794 115.271 9.36458C115.271 7.86458 117.365 7.42708 117.656 9.07292C124.49 37.9792 108.281 52.3021 96.2917 57.0938C95 57.5938 94.2188 55.8437 95.2188 54.9271C101.586 49.2236 106.658 42.2229 110.094 34.3958ZM131.469 33.3333C130.483 24.863 127.714 16.6976 123.344 9.375V9.21875C122.635 7.9375 124.24 6.47917 125.271 7.42708C145.646 29.3542 138.844 49.6667 131.042 59.8958C130.188 60.9583 128.656 59.8646 129.083 58.5833C131.645 50.4279 132.457 41.8241 131.469 33.3333ZM149.917 27.5104C145.738 20.1352 140.03 13.7387 133.177 8.75V8.60417C132.01 7.71875 132.927 5.75 134.354 6.33333C161.313 17.625 163.167 39.3646 159.896 52.1146C159.83 52.4159 159.651 52.6805 159.396 52.8542C159.148 53.0289 158.842 53.0985 158.543 53.0477C158.244 52.997 157.978 52.83 157.802 52.5833C157.62 52.3341 157.538 52.0255 157.573 51.7188C156.745 43.2021 154.136 34.9545 149.917 27.5104ZM97.0833 33.3333C90.6667 39 83.7604 41.2292 75.6458 43.7188C74.4375 43.7188 73.625 42.9063 74.0313 41.8438C92.2292 32.3958 98.7083 24.7083 105.177 12.9792C105.177 12.9792 106.792 11.7604 107.135 13.8646C107.135 17.0208 103.51 27.6667 97.0833 33.3333ZM148.448 150.052C146.972 156.318 143.565 161.962 138.708 166.188C135.112 169.78 130.405 172.049 125.354 172.625C120.154 172.138 115.284 169.863 111.573 166.188C106.763 161.944 103.401 156.302 101.958 150.052C101.911 149.682 101.947 149.306 102.062 148.951C102.177 148.597 102.37 148.272 102.625 148C102.881 147.734 103.194 147.531 103.541 147.407C103.888 147.282 104.259 147.239 104.625 147.281H145.813C146.176 147.241 146.545 147.285 146.888 147.412C147.232 147.538 147.541 147.743 147.792 148.01C148.046 148.28 148.237 148.604 148.351 148.957C148.464 149.31 148.498 149.684 148.448 150.052ZM91.75 127.448C87.9886 130.02 83.4374 131.176 78.9044 130.711C74.3714 130.246 70.15 128.189 66.9896 124.906C63.7716 121.568 61.7797 117.238 61.3389 112.622C60.8982 108.006 62.0345 103.377 64.5625 99.4896C66.7188 96.1771 69.7917 93.6042 73.375 92.0833C76.9525 90.5595 80.9088 90.1599 84.7188 90.9375C88.5208 91.7187 92.0208 93.6458 94.7604 96.4583C97.5104 99.2708 99.375 102.875 100.125 106.771C100.882 110.68 100.491 114.725 99 118.417C97.5235 122.071 95.0016 125.22 91.75 127.448ZM179.99 127.5C176.222 130.055 171.671 131.194 167.145 130.713C162.618 130.233 158.407 128.164 155.26 124.875C151.595 121.063 149.556 115.976 149.573 110.688C149.573 106.698 150.719 102.792 152.896 99.4792C155.052 96.1667 158.125 93.5833 161.719 92.0729C165.302 90.554 169.262 90.1616 173.073 90.9479C176.885 91.7396 180.385 93.6667 183.125 96.5C185.865 99.3333 187.708 102.927 188.458 106.844C189.199 110.758 188.79 114.803 187.281 118.49C185.792 122.146 183.255 125.281 179.99 127.5Z" fill="#A0A0A0"/>
</svg>
