<svg width="512" height="512" viewBox="0 0 512 512" fill="none" xmlns="http://www.w3.org/2000/svg">
<path d="M440.344 460.741L255.464 512L71.0859 460.816L30 0H481.475L440.344 460.741ZM256.116 90.8145H114.013L119.021 147.248H256.116V151.152L124.047 207.678L128.996 264.112H256.116V355.337L255.68 355.402L192.637 338.473L188.519 293.458H131.78L139.698 382.139L255.667 414.249L256.116 414.143V472.795L405.323 431.748L440.281 38.376H256.116V90.8145Z" fill="#A0A0A0"/>
<path d="M371.7 382.077L256.116 414.188V355.387L318.864 337.896L325.138 264.113H256.116V207.679H386.921L371.7 382.077ZM396.906 90.8145L392.052 147.249L256.116 207.679V151.153L265.227 147.249H256.116V90.8145H396.906Z" fill="#A0A0A0"/>
</svg>
