<svg width="108" height="121" viewBox="0 0 108 121" fill="none" xmlns="http://www.w3.org/2000/svg">
<path d="M85.8136 58.2988C93.8355 58.8491 100.264 53.6699 101.922 46.5286C99.0146 42.4083 92.9164 40.4517 87.5378 43.8655C82.7017 47.2897 81.3824 53.2758 85.8136 58.2988ZM64.0961 2.51689L35.0636 18.5519L41.7772 22.0742L70.785 6.08841L64.0961 2.51689ZM36.5487 46.6207L64.9122 111.344L72.4847 115.995L40.7708 24.1361L33.2165 20.0861L3.01821 77.0647L8.52896 80.1573L34.5604 46.3814C35.1299 45.7438 36.0824 45.7231 36.5487 46.6207ZM87.2028 62.0103C78.9542 57.4696 78.9542 46.056 87.2028 41.5152C95.4514 36.9745 105.818 42.6812 105.818 51.7628C105.818 60.8443 95.4514 66.5511 87.2028 62.0103ZM96.5732 70.5496L107.141 101.359L74.8706 120.075L62.9947 112.704L41.7281 64.2206L8.82022 82.7601L0 77.8L31.9131 17.7749L64.0509 0L74.0659 5.37918L84.2069 35.028C64.6103 45.8324 74.4587 73.2254 96.5732 70.5496Z" fill="#A0A0A0"/>
</svg>
