<svg width="111" height="111" viewBox="0 0 111 111" fill="none" xmlns="http://www.w3.org/2000/svg">
<path d="M107.941 50.1147L59.8859 2.08316C59.229 1.42294 58.4481 0.899029 57.5881 0.541532C56.7281 0.184036 55.806 0 54.8746 0C53.9433 0 53.0211 0.184036 52.1611 0.541532C51.3011 0.899029 50.5202 1.42294 49.8633 2.08316L39.8879 12.0586L52.5653 24.7126C54.0569 24.2047 55.6612 24.1259 57.1953 24.4853C58.7295 24.8446 60.1319 25.6276 61.2427 26.745C62.3536 27.8625 63.1284 29.2694 63.4787 30.8057C63.829 32.3419 63.7408 33.9457 63.2242 35.4342L75.4147 47.6326C77.2356 47.0078 79.2157 47.0258 81.0249 47.6837C82.8342 48.3416 84.3634 49.5995 85.3577 51.248C86.352 52.8965 86.7514 54.836 86.4894 56.7432C86.2273 58.6504 85.3196 60.4103 83.9176 61.7295C82.5155 63.0487 80.7037 63.8476 78.784 63.9932C76.8644 64.1387 74.9528 63.622 73.3679 62.5293C71.783 61.4365 70.6203 59.8336 70.0738 57.9876C69.5272 56.1417 69.6297 54.1642 70.3641 52.3847L58.9984 41.0346V70.9611C60.7141 71.8256 62.0823 73.2514 62.8753 75.0014C63.6683 76.7513 63.8384 78.72 63.3573 80.5801C62.8762 82.4402 61.773 84.0795 60.2309 85.2255C58.6889 86.3716 56.801 86.9552 54.8812 86.8795C52.9615 86.8037 51.1255 86.0731 49.6785 84.8092C48.2316 83.5452 47.2609 81.824 46.9279 79.9318C46.5949 78.0396 46.9196 76.0904 47.848 74.4084C48.7764 72.7264 50.2527 71.4128 52.0312 70.6862V40.4848C51.0029 40.0623 50.0683 39.4407 49.2811 38.6558C48.4938 37.8709 47.8694 36.9381 47.4439 35.9111C47.0183 34.8841 46.8 33.7831 46.8014 32.6714C46.8027 31.5597 47.0238 30.4592 47.4519 29.4332L35.0179 16.96L2.08316 49.8869C1.42294 50.5438 0.899029 51.3247 0.541532 52.1847C0.184036 53.0447 0 53.9668 0 54.8982C0 55.8295 0.184036 56.7517 0.541532 57.6117C0.899029 58.4717 1.42294 59.2526 2.08316 59.9095L50.1147 107.941C50.7716 108.601 51.5525 109.125 52.4125 109.483C53.2725 109.84 54.1946 110.024 55.126 110.024C56.0573 110.024 56.9795 109.84 57.8395 109.483C58.6995 109.125 59.4804 108.601 60.1373 107.941L107.941 60.1373C108.601 59.4804 109.125 58.6995 109.483 57.8395C109.84 56.9795 110.024 56.0573 110.024 55.126C110.024 54.1946 109.84 53.2725 109.483 52.4125C109.125 51.5525 108.601 50.7716 107.941 50.1147Z" fill="#A0A0A0"/>
</svg>
