<svg width="199" height="199" viewBox="0 0 199 199" fill="none" xmlns="http://www.w3.org/2000/svg">
<path d="M91.0757 114.724C89.9782 114.723 88.9257 114.288 88.1487 113.513L81.9714 107.352C81.5749 106.97 81.2585 106.513 81.0405 106.008C80.8226 105.502 80.7075 104.958 80.7019 104.408C80.6964 103.858 80.8005 103.312 81.0082 102.802C81.216 102.292 81.5231 101.829 81.9118 101.439C82.3005 101.049 82.763 100.741 83.2722 100.531C83.7814 100.322 84.3271 100.217 84.8776 100.221C85.428 100.225 85.9722 100.338 86.4783 100.555C86.9844 100.771 87.4423 101.086 87.8253 101.482L91.0757 104.724L100.868 94.9396C101.646 94.1611 102.7 93.7233 103.8 93.7226C104.901 93.7218 105.956 94.1581 106.734 94.9354C107.513 95.7128 107.951 96.7676 107.952 97.8678C107.952 98.9679 107.516 100.023 106.739 100.802L94.0109 113.513C93.2299 114.287 92.1753 114.722 91.0757 114.724ZM168.628 113.505L181.347 100.802C182.102 100.02 182.52 98.9726 182.511 97.8856C182.501 96.7986 182.065 95.7588 181.297 94.9901C180.528 94.2214 179.488 93.7854 178.401 93.776C177.314 93.7665 176.267 94.1844 175.485 94.9396L165.692 104.724L162.442 101.482C162.059 101.086 161.601 100.771 161.095 100.555C160.589 100.338 160.045 100.225 159.494 100.221C158.944 100.217 158.398 100.322 157.889 100.531C157.38 100.741 156.917 101.049 156.529 101.439C156.14 101.829 155.833 102.292 155.625 102.802C155.417 103.312 155.313 103.858 155.319 104.408C155.324 104.958 155.439 105.502 155.657 106.008C155.875 106.513 156.192 106.97 156.588 107.352L162.774 113.513C163.157 113.899 163.614 114.205 164.116 114.414C164.619 114.623 165.158 114.73 165.702 114.729C166.247 114.728 166.785 114.619 167.287 114.409C167.79 114.199 168.245 113.892 168.628 113.505ZM37.5364 61.7895L58.7382 48.6472C59.9352 47.9065 60.924 46.8733 61.6113 45.6448C62.2986 44.4164 62.6619 43.0332 62.6668 41.6255C62.6718 40.2179 62.3183 38.8321 61.6397 37.5989C60.9611 36.3656 59.9797 35.3254 58.7879 34.5763L37.5861 21.2267C36.3317 20.4365 34.8885 19.9971 33.4066 19.9542C31.9247 19.9113 30.4584 20.2665 29.1604 20.9828C27.8624 21.6991 26.7802 22.7503 26.0265 24.0269C25.2728 25.3035 24.8752 26.7589 24.875 28.2414V54.7416C24.8774 56.2183 25.2738 57.6675 26.0232 58.9399C26.7726 60.2123 27.8478 61.2617 29.1381 61.9799C30.4283 62.6981 31.8868 63.0591 33.3631 63.0257C34.8394 62.9922 36.28 62.5655 37.5364 61.7895ZM54.3685 41.591L33.1667 54.7416V28.2414L54.3685 41.591ZM199 103.646C199 119.649 185.982 132.667 169.979 132.667C163.008 132.653 156.274 130.133 151.007 125.566C145.74 121 142.291 114.691 141.29 107.792H124.043C123.042 114.691 119.593 121 114.326 125.566C109.059 130.133 102.325 132.653 95.3542 132.667C88.3825 132.655 81.6477 130.136 76.3802 125.568C71.1128 121.001 67.6644 114.691 66.665 107.792H62.0383C53.9788 107.792 46.6987 104.483 41.4583 99.1518V140.958C41.4583 154.673 52.6189 165.833 66.3333 165.833H66.665C68.6882 151.796 80.7608 140.958 95.3542 140.958C111.357 140.958 124.375 153.976 124.375 169.979C124.375 185.982 111.357 199 95.3542 199C88.3825 198.988 81.6477 196.469 76.3802 191.902C71.1128 187.335 67.6644 181.025 66.665 174.125H66.3333C48.0419 174.125 33.1667 159.25 33.1667 140.958V82.0792C23.8095 80.1565 15.4014 75.0663 9.35971 67.6668C3.31807 60.2673 0.0124139 51.011 0 41.4583C0 18.5982 18.5982 0 41.4583 0C64.3185 0 82.9167 18.5982 82.9167 41.4583C82.902 52.379 78.5833 62.8537 70.8971 70.6114C63.2108 78.3691 52.7764 82.7845 41.8563 82.9001C42.778 87.5759 45.2939 91.7869 48.9745 94.8143C52.6552 97.8417 57.2725 99.4978 62.0383 99.5H66.665C68.6882 85.4622 80.7608 74.625 95.3542 74.625C102.326 74.6366 109.061 77.1562 114.328 81.7233C119.596 86.2904 123.044 92.6003 124.043 99.5H141.29C142.291 92.601 145.74 86.2922 151.007 81.7253C156.274 77.1585 163.008 74.6383 169.979 74.625C185.982 74.625 199 87.6429 199 103.646ZM74.625 169.979C74.625 181.405 83.9283 190.708 95.3542 190.708C106.78 190.708 116.083 181.405 116.083 169.979C116.083 158.553 106.78 149.25 95.3542 149.25C83.9283 149.25 74.625 158.553 74.625 169.979ZM41.4583 74.625C59.7498 74.625 74.625 59.7498 74.625 41.4583C74.625 23.1669 59.7498 8.29167 41.4583 8.29167C23.1669 8.29167 8.29167 23.1669 8.29167 41.4583C8.29167 59.7498 23.1669 74.625 41.4583 74.625ZM116.083 103.646C116.083 92.2199 106.78 82.9167 95.3542 82.9167C83.9283 82.9167 74.625 92.2199 74.625 103.646C74.625 115.072 83.9283 124.375 95.3542 124.375C106.78 124.375 116.083 115.072 116.083 103.646ZM190.708 103.646C190.708 92.2199 181.405 82.9167 169.979 82.9167C158.553 82.9167 149.25 92.2199 149.25 103.646C149.25 115.072 158.553 124.375 169.979 124.375C181.405 124.375 190.708 115.072 190.708 103.646ZM82.9167 169.979C82.9167 171.079 83.3535 172.133 84.131 172.911C84.9084 173.688 85.963 174.125 87.0625 174.125C88.162 174.125 89.2166 173.688 89.9941 172.911C90.7715 172.133 91.2083 171.079 91.2083 169.979C91.2083 168.88 90.7715 167.825 89.9941 167.048C89.2166 166.27 88.162 165.833 87.0625 165.833C85.963 165.833 84.9084 166.27 84.131 167.048C83.3535 167.825 82.9167 168.88 82.9167 169.979ZM99.5 169.979C99.5 171.079 99.9368 172.133 100.714 172.911C101.492 173.688 102.546 174.125 103.646 174.125C104.745 174.125 105.8 173.688 106.577 172.911C107.355 172.133 107.792 171.079 107.792 169.979C107.792 168.88 107.355 167.825 106.577 167.048C105.8 166.27 104.745 165.833 103.646 165.833C102.546 165.833 101.492 166.27 100.714 167.048C99.9368 167.825 99.5 168.88 99.5 169.979ZM199 169.979C199 185.982 185.982 199 169.979 199C163.005 198.986 156.27 196.464 151.002 191.893C145.735 187.323 142.287 181.01 141.29 174.108C141.232 174.117 141.182 174.15 141.116 174.15L136.92 174.291H136.779C135.71 174.263 134.693 173.824 133.94 173.064C133.188 172.304 132.758 171.282 132.741 170.213C132.724 169.143 133.12 168.109 133.848 167.325C134.576 166.541 135.579 166.069 136.647 166.007L140.842 165.867C140.992 165.85 141.132 165.916 141.273 165.925C142.255 159.006 145.697 152.673 150.97 148.088C156.243 143.502 162.991 140.971 169.979 140.958C185.982 140.958 199 153.976 199 169.979ZM190.708 169.979C190.708 158.553 181.405 149.25 169.979 149.25C158.553 149.25 149.25 158.553 149.25 169.979C149.25 181.405 158.553 190.708 169.979 190.708C181.405 190.708 190.708 181.405 190.708 169.979Z" fill="#A0A0A0"/>
</svg>
