<svg width="245" height="53" viewBox="0 0 245 53" fill="none" xmlns="http://www.w3.org/2000/svg">
<path fill-rule="evenodd" clip-rule="evenodd" d="M0 53L11.642 0H37.711L26.068 53H0ZM139.253 20.375L153.42 0H181.661L147.423 40.43L144.643 53H118.571L121.355 40.43L104.845 0H133.086L138.213 20.375H139.253ZM231.54 0H193.918C185.23 0 180.273 3.11 178.885 9.522L177.316 16.505C177.13 17.342 177.043 18.1978 177.056 19.055C177.159 23.554 180.458 26.442 184.836 28.224C189.512 30.13 195.416 30.774 199.965 30.774H214.487L213.936 33.324L211.724 42.209H197.82L199.734 33.323H173.662L171.926 41.576C170.275 49.254 174.532 53 185.045 53H222.408C231.185 53 236.138 49.828 237.526 43.478L239.717 33.323C239.912 32.418 239.994 31.57 239.98 30.773C239.877 26.275 236.578 23.387 232.197 21.604C227.521 19.702 221.616 19.054 217.068 19.054H202.77L203.32 16.505L204.595 10.791H218.499L217.284 16.505H243.356L244.571 11.425C246.31 3.745 242.057 0 231.54 0ZM41.343 0H91.207C101.72 0 105.793 3.699 104.06 11.38L102.736 17.494C101.422 23.47 96.952 26.631 89.105 26.98C88.618 27.002 88.125 27.013 87.614 27.013H86.232L85.732 29.61H85.576C86.4547 29.6093 87.288 29.636 88.076 29.69C96.724 30.253 100.019 33.945 98.426 40.983L97.349 45.795L95.737 53H69.67L74.013 33.323H60.118L55.765 53H29.697L41.343 0ZM62.373 22.976H75.41L78.102 10.788H65.068L62.373 22.976Z" fill="#A0A0A0"/>
</svg>
