<svg width="206" height="234" viewBox="0 0 206 234" fill="none" xmlns="http://www.w3.org/2000/svg">
<path d="M110.774 85.7907L81.7019 0H205.213L176.041 86.0401C174.776 86.3433 173.544 86.7256 172.347 87.1853L143.528 28.3966L114.627 86.8376C113.378 86.4069 112.092 86.0528 110.774 85.7907ZM15.7906 226.227C54.6386 253.514 97.7286 200.714 156.424 194.062C190.129 192.065 213.04 171.431 199.986 139.489C175.715 154.438 153.032 134.848 153.191 115.191H134.748C134.143 132.741 120.943 146.548 100.481 144.496C84.4643 168.455 65.9017 181.917 44.839 188.76C30.603 182.19 17.2056 166.187 23.28 144.812C20.5881 144.512 18.0054 143.85 15.5767 142.879C-4.00373 179.441 -6.42296 208.336 15.7906 226.227ZM44.712 115.194C44.712 101.307 29.5756 92.5812 17.5319 99.5245C5.48813 106.468 5.48814 123.92 17.5319 130.864C29.5756 137.807 44.712 129.081 44.712 115.194ZM123.05 115.022C123.05 101.135 107.914 92.4091 95.8704 99.3524C83.8267 106.296 83.8267 123.748 95.8704 130.692C107.914 137.635 123.05 128.909 123.05 115.022ZM201.095 115.022C201.095 101.135 185.959 92.4091 173.915 99.3524C161.871 106.296 161.871 123.748 173.915 130.692C185.959 137.635 201.095 128.909 201.095 115.022Z" fill="#A0A0A0"/>
</svg>
