<svg width="234" height="235" viewBox="0 0 234 235" fill="none" xmlns="http://www.w3.org/2000/svg">
<path fill-rule="evenodd" clip-rule="evenodd" d="M134.693 63.1218L134.459 0H99.2607L99.4954 63.1218L117.094 87.2911L134.693 63.1218Z" fill="#A0A0A0"/>
<path fill-rule="evenodd" clip-rule="evenodd" d="M99.4922 171.296V234.653H134.69V171.296L117.091 147.127L99.4922 171.296Z" fill="#A0A0A0"/>
<path fill-rule="evenodd" clip-rule="evenodd" d="M134.694 171.301L171.769 222.455L200.162 201.806L163.087 150.651L134.694 141.5V171.301Z" fill="#A0A0A0"/>
<path fill-rule="evenodd" clip-rule="evenodd" d="M99.494 63.1174L62.1841 11.9629L33.791 32.6124L70.8663 83.7669L99.494 92.9183V63.1174Z" fill="#A0A0A0"/>
<path fill-rule="evenodd" clip-rule="evenodd" d="M70.8654 83.7741L10.7941 64.2979L0 97.6186L60.0713 117.33L88.4644 107.943L70.8654 83.7741Z" fill="#A0A0A0"/>
<path fill-rule="evenodd" clip-rule="evenodd" d="M145.485 126.48L163.084 150.649L223.155 170.125L233.949 136.804L173.878 117.328L145.485 126.48Z" fill="#A0A0A0"/>
<path fill-rule="evenodd" clip-rule="evenodd" d="M173.878 117.33L233.949 97.6186L223.155 64.2979L163.084 83.7741L145.485 107.943L173.878 117.33Z" fill="#A0A0A0"/>
<path fill-rule="evenodd" clip-rule="evenodd" d="M60.0713 117.328L0 136.804L10.7941 170.125L70.8654 150.649L88.4644 126.48L60.0713 117.328Z" fill="#A0A0A0"/>
<path fill-rule="evenodd" clip-rule="evenodd" d="M70.8663 150.651L33.791 201.806L62.1841 222.455L99.494 171.301V141.5L70.8663 150.651Z" fill="#A0A0A0"/>
<path fill-rule="evenodd" clip-rule="evenodd" d="M163.087 83.7669L200.162 32.6124L171.769 11.9629L134.694 63.1174V92.9183L163.087 83.7669Z" fill="#A0A0A0"/>
</svg>
