<svg width="346" height="212" viewBox="0 0 346 212" fill="none" xmlns="http://www.w3.org/2000/svg">
<path d="M325.4 11.2796C320.2 7.17957 314 1.57957 302.7 0.17957C292.1 -1.22043 281.3 5.87956 274 10.5796C266.7 15.2796 252.9 29.0796 247.2 33.2796C241.5 37.4796 226.9 41.3796 203.4 55.4796C179.9 69.5796 87.7 128.78 87.7 128.78L111.7 129.08L4.7 184.18H15.4L0 195.88C0 195.88 13.6 199.48 25 192.28V195.58C25 195.58 152.4 145.38 177 158.38L162 162.78C163.3 162.78 187.5 164.38 187.5 164.38C188.087 169.391 189.772 174.211 192.434 178.497C195.095 182.784 198.669 186.431 202.9 189.18C217.5 198.78 217.8 204.08 217.8 204.08C217.8 204.08 210.2 207.18 210.2 211.08C210.2 211.08 221.4 207.68 231.8 207.98C238.401 208.23 244.947 209.271 251.3 211.08C251.3 211.08 250.5 206.88 240.4 204.08C230.3 201.28 220.3 190.28 215.4 184.28C212.399 180.46 210.442 175.926 209.724 171.122C209.005 166.318 209.548 161.41 211.3 156.88C214.8 147.78 227 142.78 252.2 129.78C281.9 114.38 288.7 102.98 292.9 94.0796C297.1 85.1796 303.3 67.4796 306.8 59.1796C311.2 48.4796 316.6 42.7796 321.1 39.3796C325.6 35.9796 345.6 28.4796 345.6 28.4796C345.6 28.4796 330.3 15.1796 325.4 11.2796Z" fill="#A0A0A0"/>
</svg>
