<svg width="129" height="129" viewBox="0 0 129 129" fill="none" xmlns="http://www.w3.org/2000/svg">
<path d="M123.581 51.7624L127.33 50.9631C127.914 53.7235 128.316 56.5195 128.533 59.3329L124.711 59.6269C124.508 56.9834 124.13 54.3562 123.581 51.7624ZM112.639 30.1166C109.838 30.1184 107.1 29.2896 104.771 27.735C102.441 26.1805 100.625 23.9699 99.552 21.3831C98.479 18.7962 98.1973 15.9492 98.7425 13.2022C99.2878 10.4553 100.635 7.93171 102.615 5.95077C104.595 3.96982 107.117 2.6205 109.864 2.07347C112.611 1.52643 115.458 1.80627 118.045 2.87758C120.633 3.94889 122.845 5.76355 124.401 8.09201C125.957 10.4205 126.788 13.1581 126.788 15.9587C126.788 19.712 125.297 23.3118 122.644 25.9666C119.991 28.6215 116.392 30.1142 112.639 30.1166ZM64.3125 112.648C54.7493 112.653 45.3993 109.822 37.4452 104.513C29.4911 99.2039 23.2904 91.6549 19.6274 82.821C15.9643 73.9871 15.0035 64.2653 16.8666 54.8853C18.7296 45.5053 23.3327 36.8885 30.0936 30.125C36.8546 23.3615 45.4696 18.7551 54.8489 16.8885C64.2282 15.0219 73.9504 15.979 82.7856 19.6387C91.6209 23.2984 99.1723 29.4963 104.485 37.4483C109.797 45.4003 112.631 54.7493 112.63 64.3125C112.627 77.1279 107.536 89.418 98.4762 98.4816C89.4161 107.545 77.1279 112.641 64.3125 112.648ZM84.3321 30.1166C81.5315 30.113 78.7928 30.94 76.4623 32.4931C74.1318 34.0462 72.3143 36.2555 71.2396 38.8417C70.165 41.4279 69.8814 44.2747 70.4249 47.022C70.9684 49.7693 72.3144 52.2937 74.2928 54.276C76.2711 56.2582 78.793 57.6092 81.5392 58.158C84.2855 58.7068 87.1328 58.4288 89.7211 57.3592C92.3093 56.2895 94.5222 54.4763 96.0798 52.1489C97.6374 49.8214 98.4698 47.0843 98.4716 44.2838C98.4728 42.4237 98.1075 40.5817 97.3966 38.8629C96.6856 37.1441 95.6429 35.5823 94.3281 34.2666C93.0133 32.951 91.4521 31.9073 89.7338 31.1952C88.0155 30.4831 86.1737 30.1166 84.3137 30.1166H84.3321ZM84.1483 7.04681L85.3978 3.42694C88.064 4.35166 90.6666 5.4504 93.1888 6.71606L91.4524 10.1062C89.0806 8.9311 86.6346 7.91218 84.1299 7.056L84.1483 7.04681ZM68.5755 3.86794L68.8511 0C71.6662 0.199684 74.4652 0.583316 77.2301 1.14844L76.4584 4.90613C73.8562 4.38858 71.2229 4.04177 68.5755 3.86794ZM52.038 1.11169C54.7947 0.559942 57.5844 0.188591 60.3894 0L60.6375 3.822C57.9878 3.98317 55.3514 4.3177 52.7454 4.82344L52.038 1.11169ZM35.9966 6.43125C38.5331 5.19273 41.1479 4.12163 43.8244 3.22481L45.0188 6.85388C42.5055 7.70012 40.0502 8.70984 37.6687 9.87656L35.9966 6.43125ZM21.9306 15.7566C24.0576 13.9022 26.3042 12.1897 28.6558 10.6299L30.7781 13.7812C28.5649 15.2456 26.4503 16.8538 24.4479 18.5955L21.9306 15.7566ZM10.7769 28.4169C12.3461 26.0707 14.0679 23.8303 15.9311 21.7101L18.816 24.2458C17.0626 26.2381 15.4421 28.3435 13.965 30.5484L10.7769 28.4169ZM3.31669 85.113L6.94575 83.8727C7.80828 86.3866 8.83331 88.8418 10.0144 91.2227L6.57825 92.9224C5.32317 90.3926 4.23369 87.784 3.31669 85.113ZM3.31669 43.5487C4.22701 40.878 5.31036 38.2693 6.55987 35.7394L9.98681 37.4391C8.81151 39.8202 7.79261 42.2754 6.93656 44.7891L3.31669 43.5487ZM3.822 60.3619L0 60.1046C0.187469 57.2873 0.558823 54.4853 1.11169 51.7164L4.86937 52.4698C4.34866 55.0749 3.99878 57.7112 3.822 60.3619ZM4.86937 76.1919L1.11169 76.9453C0.557448 74.1798 0.186081 71.3807 0 68.5663L3.822 68.3182C3.99785 70.963 4.34773 73.5932 4.86937 76.1919ZM18.8528 104.398L15.9771 106.933C14.1112 104.816 12.3864 102.579 10.8137 100.236L13.9926 98.1041C15.4727 100.309 17.0962 102.415 18.8528 104.407V104.398ZM30.7965 114.816L28.6834 118.013C26.3288 116.457 24.0792 114.748 21.9489 112.896L24.4663 110.002C26.4766 111.754 28.6004 113.372 30.8241 114.844L30.7965 114.816ZM45.0647 121.771L43.8519 125.446C41.1841 124.532 38.5785 123.446 36.0517 122.194L37.7331 118.748C40.1178 119.915 42.5761 120.925 45.0922 121.771H45.0647ZM60.6834 124.794L60.4446 128.625C57.6283 128.453 54.8263 128.097 52.0564 127.559L52.7914 123.802C55.3822 124.306 58.0031 124.64 60.6375 124.803L60.6834 124.794ZM77.2852 127.412C74.522 128 71.7229 128.406 68.9062 128.625L68.6306 124.803C71.2764 124.612 73.9066 124.247 76.5043 123.71L77.2852 127.412ZM93.2256 121.9C90.7056 123.166 88.1062 124.268 85.4438 125.198L84.1851 121.578C86.6999 120.704 89.1551 119.667 91.5351 118.473L93.2256 121.9ZM107.191 112.427C105.083 114.305 102.855 116.042 100.52 117.628L98.3706 114.458C100.567 112.968 102.663 111.335 104.646 109.57L107.191 112.427ZM118.216 99.6384C116.672 102.001 114.975 104.26 113.135 106.4L110.25 103.819C111.981 101.807 113.577 99.683 115.028 97.461L118.216 99.6384ZM125.051 42.8597L121.44 44.1459C120.553 41.6304 119.504 39.1753 118.298 36.7959L121.716 35.0595C122.988 37.5729 124.096 40.1661 125.033 42.8229L125.051 42.8597ZM125.52 84.4239C124.641 87.1049 123.588 89.7259 122.368 92.2701L118.914 90.6071C120.061 88.2239 121.052 85.7687 121.881 83.2571L125.52 84.4239ZM124.803 67.5924L128.625 67.8038C128.468 70.6221 128.128 73.4272 127.605 76.2011L123.838 75.4937C124.332 72.8838 124.654 70.2444 124.803 67.5924Z" fill="#A0A0A0"/>
</svg>
