<svg width="149" height="94" viewBox="0 0 149 94" fill="none" xmlns="http://www.w3.org/2000/svg">
<path d="M138.291 0H10.7094C7.87435 0.017101 5.16031 1.1509 3.1556 3.1556C1.1509 5.1603 0.0171053 7.87435 4.30922e-06 10.7094V82.3225C-0.00254034 85.1722 1.122 87.9072 3.12828 89.931C5.13457 91.9547 7.85978 93.1029 10.7094 93.125H138.198C141.038 93.125 143.762 91.9967 145.77 89.9883C147.779 87.9799 148.907 85.2559 148.907 82.4156V10.7094C148.917 9.30809 148.649 7.91869 148.121 6.62101C147.592 5.32333 146.812 4.14297 145.825 3.14778C144.838 2.15258 143.665 1.36216 142.372 0.821961C141.079 0.281758 139.692 0.00241975 138.291 0ZM83.8125 74.5H65.1875V46.5625L51.2188 64.4425L37.25 46.5625V74.5H18.625V18.625H37.25L51.2188 37.25L65.1875 18.625H83.8125V74.5ZM111.657 79.1562L88.4688 46.5625H102.438V18.625H121.062V46.5625H135.031L111.657 79.1562Z" fill="#A0A0A0"/>
</svg>
