<svg width="159" height="160" viewBox="0 0 159 160" fill="none" xmlns="http://www.w3.org/2000/svg">
<path d="M115.216 55.2298L115.158 55.2052C115.125 55.1924 115.092 55.1805 115.062 55.1512C115.015 55.1 114.98 55.0386 114.959 54.9717C114.939 54.9048 114.935 54.8341 114.946 54.7652L118.155 35.1491L133.201 50.1994L117.553 56.8569C117.509 56.8743 117.463 56.8827 117.416 56.8815H117.354C117.333 56.8687 117.312 56.8528 117.271 56.8109C116.688 56.1625 115.992 55.6267 115.216 55.2298ZM137.041 54.0344L153.128 70.1223C156.47 73.4678 158.143 75.1365 158.753 77.0706C158.844 77.357 158.919 77.6434 158.977 77.9381L120.529 61.6551C120.509 61.6466 120.488 61.6384 120.467 61.6304C120.313 61.5682 120.135 61.4977 120.135 61.3399C120.135 61.1822 120.318 61.1074 120.471 61.0452L120.521 61.0247L137.041 54.0344ZM158.321 83.1015C157.491 84.6621 155.872 86.2809 153.133 89.0243L134.994 107.158L111.534 102.273L111.41 102.249C111.202 102.216 110.982 102.178 110.982 101.991C110.893 101.023 110.606 100.084 110.138 99.2323C109.671 98.3803 109.032 97.6337 108.264 97.0391C108.168 96.9436 108.193 96.7942 108.222 96.6572C108.222 96.6367 108.222 96.6153 108.23 96.5991L112.642 69.5116L112.659 69.4203C112.684 69.2128 112.721 68.972 112.908 68.972C113.854 68.8543 114.766 68.5497 115.593 68.0758C116.419 67.6019 117.143 66.9683 117.723 66.2118C117.76 66.1699 117.785 66.1246 117.835 66.0997C117.968 66.0375 118.125 66.0997 118.262 66.1579L158.316 83.1007L158.321 83.1015ZM130.823 111.33L100.996 141.157L106.101 109.778L106.11 109.736C106.114 109.694 106.122 109.653 106.134 109.616C106.176 109.516 106.284 109.474 106.387 109.433L106.437 109.412C107.555 108.936 108.544 108.2 109.322 107.267C109.422 107.15 109.542 107.038 109.695 107.017C109.735 107.011 109.776 107.011 109.816 107.017L130.818 111.334L130.823 111.33ZM94.6831 147.47L91.3211 150.832L54.1519 97.1126C54.1383 97.0929 54.1243 97.0735 54.11 97.0544C54.0518 96.9756 53.9896 96.8967 54.0021 96.8053C54.0062 96.7389 54.0479 96.6808 54.0934 96.631L54.1353 96.5771C54.2474 96.411 54.3428 96.245 54.4466 96.0665L54.5296 95.9212L54.5423 95.9085C54.6005 95.8089 54.6545 95.7134 54.754 95.6594C54.8412 95.6175 54.9616 95.6348 55.0571 95.6552L96.236 104.147C96.3512 104.165 96.4598 104.212 96.5515 104.284C96.6055 104.338 96.6179 104.397 96.6304 104.463C96.9176 105.55 97.4522 106.555 98.1924 107.401C98.9326 108.247 99.8583 108.911 100.897 109.34C101.013 109.398 100.964 109.527 100.91 109.664C100.883 109.724 100.862 109.786 100.848 109.85C100.329 113.005 95.8789 140.144 94.6831 147.47ZM87.6601 154.489C85.1822 156.942 83.7212 158.241 82.069 158.764C80.4403 159.279 78.6923 159.279 77.0635 158.764C75.1293 158.149 73.4565 156.481 70.1153 153.135L32.7884 115.808L42.5384 100.688C42.5843 100.613 42.6297 100.546 42.7044 100.492C42.8082 100.418 42.9575 100.451 43.0821 100.492C45.3199 101.168 47.7227 101.046 49.8808 100.148C49.9929 100.106 50.105 100.077 50.1921 100.156C50.2357 100.196 50.2747 100.24 50.3083 100.289L87.6601 154.489ZM29.1879 112.21L20.6251 103.647L37.5351 96.4333C37.5784 96.4146 37.625 96.4048 37.6721 96.4046C37.8132 96.4046 37.8963 96.5457 37.971 96.6743C38.1409 96.9358 38.3209 97.1906 38.5106 97.4381L38.5645 97.5045C38.6143 97.5751 38.5814 97.6456 38.5317 97.712L29.1928 112.21L29.1879 112.21ZM16.8354 99.8575L6.0022 89.0243C4.15931 87.1814 2.8228 85.8449 1.89306 84.6952L34.8328 91.5272C34.8741 91.5348 34.9157 91.5416 34.9573 91.5477C35.1607 91.5805 35.3848 91.6183 35.3848 91.8092C35.3848 92.0167 35.1399 92.1122 34.9323 92.1911L34.8369 92.233L16.8354 99.8575ZM3.2595e-05 79.1249C0.0375714 78.4271 0.163083 77.7368 0.373592 77.0703C0.98789 75.1361 2.65648 73.4676 6.00208 70.1221L19.8653 56.2589C26.2483 65.5227 32.6486 74.7746 39.0662 84.0145C39.1783 84.1639 39.3028 84.3299 39.1741 84.4545C38.5681 85.1227 37.9621 85.8532 37.5346 86.646C37.4882 86.7479 37.4168 86.8364 37.3271 86.9034C37.2731 86.9362 37.215 86.9239 37.1528 86.9116H37.1445L3.2595e-05 79.1249ZM23.5758 52.5483L42.2166 33.9075C43.9682 34.6753 50.3438 37.3691 56.0466 39.7766C60.3633 41.6029 64.2981 43.2631 65.5349 43.8027C65.6595 43.8525 65.7715 43.9023 65.8255 44.0269C65.8583 44.1016 65.8423 44.197 65.8255 44.276C65.5304 45.6215 65.5743 47.0194 65.9532 48.3438C66.3321 49.6682 67.0342 50.8777 67.9963 51.8636C68.1208 51.9881 67.9963 52.1666 67.8884 52.3201L67.8302 52.4073L48.9032 81.7237C48.8534 81.8066 48.8077 81.8772 48.7247 81.9312C48.6251 81.9934 48.484 81.9645 48.3677 81.9353C47.6316 81.7425 46.8748 81.6394 46.1139 81.6282C45.4332 81.6282 44.6944 81.7528 43.9473 81.8897C43.8643 81.9025 43.7854 81.9184 43.719 81.8692C43.6457 81.8093 43.5826 81.7378 43.5323 81.6575L23.5758 52.5483ZM45.9813 30.1428L70.1134 6.01066C73.4547 2.66938 75.1276 0.996467 77.0617 0.38627C78.6904 -0.128757 80.4384 -0.128757 82.0672 0.38627C84.0014 0.996422 85.6741 2.66915 89.0154 6.01066L94.2452 11.2404L77.0822 37.8211C77.0397 37.8985 76.9818 37.9663 76.912 38.0203C76.8082 38.0909 76.6629 38.0622 76.5384 38.0203C75.1852 37.6096 73.7523 37.5348 72.3637 37.8024C70.9751 38.07 69.6726 38.6719 68.5689 39.556C68.4568 39.6722 68.2909 39.6058 68.1497 39.5437C65.9084 38.5683 48.4754 31.2014 45.9813 30.1428ZM97.8913 14.8852L113.739 30.7325L109.92 54.383V54.4452C109.917 54.4991 109.906 54.5522 109.887 54.6029C109.845 54.6859 109.763 54.7026 109.68 54.7275C108.863 54.9748 108.094 55.3578 107.405 55.8606C107.376 55.8817 107.348 55.9053 107.322 55.9312C107.276 55.981 107.231 56.0266 107.156 56.035C107.095 56.037 107.035 56.0272 106.978 56.0062L82.829 45.7459L82.7831 45.7254C82.6295 45.6632 82.4469 45.5884 82.4469 45.4307C82.305 44.085 81.8654 42.7878 81.1602 41.6329C81.044 41.442 80.9153 41.2427 81.0149 41.0476L97.8913 14.8852ZM81.5709 50.6061L104.209 60.1942C104.333 60.2524 104.47 60.3063 104.524 60.4349C104.546 60.5123 104.546 60.5942 104.524 60.6715C104.458 61.0036 104.4 61.3813 104.4 61.7632V62.3982C104.4 62.5559 104.238 62.6224 104.088 62.6846L104.043 62.7015C100.456 64.2331 53.6956 84.1727 53.6227 84.1727C53.5521 84.1727 53.4774 84.1727 53.4069 84.1021C53.2823 83.9776 53.4069 83.8033 53.519 83.6456C53.5388 83.6182 53.5582 83.5905 53.5771 83.5625L72.1806 54.7571L72.2139 54.7072C72.3218 54.5329 72.4463 54.3378 72.6455 54.3378L72.8323 54.3665C73.2557 54.4247 73.6292 54.4786 74.0069 54.4786C76.8294 54.4786 79.4444 53.1047 81.0217 50.7555C81.0592 50.6927 81.1069 50.6366 81.1628 50.5894C81.2749 50.5065 81.4423 50.5473 81.5709 50.6061ZM55.646 88.7299L106.617 66.993C106.617 66.993 106.692 66.993 106.763 67.0636C107.041 67.3417 107.277 67.5284 107.506 67.7028L107.618 67.7733C107.721 67.8315 107.825 67.8979 107.833 68.0058C107.833 68.0477 107.833 68.0722 107.825 68.1096L103.459 94.9314L103.442 95.0393C103.413 95.2468 103.384 95.4834 103.189 95.4834C102.025 95.562 100.897 95.9232 99.9042 96.5358C98.9112 97.1484 98.0826 97.9939 97.4901 98.999L97.4695 99.0318C97.4114 99.1273 97.3574 99.2185 97.262 99.2684C97.1748 99.3104 97.0628 99.2931 96.9715 99.2726L56.3239 90.8884C56.2819 90.8802 55.6917 88.7341 55.646 88.7299Z" fill="#A0A0A0"/>
</svg>
