<svg width="228" height="245" viewBox="0 0 228 245" fill="none" xmlns="http://www.w3.org/2000/svg">
<path d="M113.8 51.4118C137.904 51.4118 157.443 39.9029 157.443 25.7059C157.443 11.5089 137.904 0 113.8 0C89.697 0 70.157 11.5089 70.157 25.7059C70.157 39.9029 89.697 51.4118 113.8 51.4118Z" fill="#A0A0A0"/>
<path d="M113.8 245C137.904 245 157.443 233.491 157.443 219.294C157.443 205.097 137.904 193.588 113.8 193.588C89.697 193.588 70.157 205.097 70.157 219.294C70.157 233.491 89.697 245 113.8 245Z" fill="#A0A0A0"/>
<path d="M52.9712 86.9529C65.0229 65.825 64.948 42.9444 52.8038 35.8477C40.6596 28.751 21.0449 40.1256 8.99318 61.2535C-3.05852 82.3815 -2.98353 105.262 9.16068 112.359C21.3049 119.456 40.9195 108.081 52.9712 86.9529Z" fill="#A0A0A0"/>
<path d="M218.625 183.747C230.677 162.619 230.599 139.737 218.452 132.639C206.305 125.54 186.688 136.913 174.636 158.041C162.584 179.169 162.662 202.051 174.809 209.15C186.956 216.248 206.573 204.875 218.625 183.747Z" fill="#A0A0A0"/>
<path d="M52.8045 209.155C64.9518 202.057 65.0292 179.175 52.9775 158.047C40.9258 136.919 21.3087 125.546 9.1614 132.644C-2.9859 139.743 -3.06339 162.625 8.98841 183.753C21.0401 204.881 40.6572 216.254 52.8045 209.155Z" fill="#A0A0A0"/>
<path d="M218.448 112.354C230.595 105.256 230.673 82.3735 218.621 61.2455C206.569 40.1176 186.952 28.7444 174.805 35.8429C162.658 42.9414 162.58 65.8235 174.632 86.9514C186.684 108.08 206.301 119.453 218.448 112.354Z" fill="#A0A0A0"/>
</svg>
