<svg width="114" height="133" viewBox="0 0 114 133" fill="none" xmlns="http://www.w3.org/2000/svg">
<path d="M78.761 6.29999H3.13825C-1.13899 6.10576 -0.952134 0.0346891 3.13825 0H78.761C82.8724 0.0622604 83.0194 6.08917 78.761 6.29999ZM3.13731 31.5C-1.13865 31.3057 -0.951847 25.2347 3.13731 25.2H47.262C51.3721 25.2622 51.5191 31.2891 47.262 31.5H3.13731ZM34.6373 18.9C30.3613 18.7057 30.5481 12.6347 34.6373 12.6L97.6619 12.6C101.772 12.6623 101.919 18.6892 97.6619 18.9H34.6373ZM85.0613 25.2C89.1715 25.2622 89.3191 31.2891 85.0619 31.5H59.8373C55.5613 31.3057 55.7481 25.2347 59.8373 25.2H85.0613ZM97.6372 31.5C93.3613 31.3057 93.5481 25.2347 97.6372 25.2H103.962C108.072 25.2622 108.219 31.2891 103.962 31.5H97.6372ZM3.13731 44.1C-1.13865 43.9057 -0.951847 37.8347 3.13731 37.8L15.762 37.8C19.8722 37.8622 20.0192 43.8891 15.762 44.1H3.13731ZM78.7372 44.1C74.4613 43.9057 74.6481 37.8347 78.7372 37.8L110.262 37.8C114.372 37.8622 114.519 43.8891 110.262 44.1H78.7372ZM28.3373 44.1C24.0613 43.9057 24.2481 37.8347 28.3373 37.8L34.662 37.8C38.7721 37.8622 38.9191 43.8891 34.662 44.1H28.3373ZM3.13731 119.7C-1.13865 119.506 -0.951847 113.435 3.13731 113.4H15.762C19.8722 113.462 20.0192 119.489 15.762 119.7H3.13731ZM28.3373 119.7C24.0613 119.506 24.2481 113.435 28.3373 113.4H34.662C38.7721 113.462 38.9191 119.489 34.662 119.7H28.3373ZM78.7372 56.6999C74.4613 56.5057 74.6481 50.4346 78.7372 50.4H110.262C114.372 50.4622 114.519 56.4891 110.262 56.6999H78.7372ZM3.13731 56.6999C-1.13865 56.5057 -0.951847 50.4346 3.13731 50.4H34.662C38.7721 50.4622 38.9191 56.4891 34.662 56.6999H3.13731ZM3.13731 107.1C-1.13865 106.906 -0.951847 100.835 3.13731 100.8H34.662C38.7721 100.862 38.9191 106.889 34.662 107.1H3.13731ZM3.13731 132.3C-1.13865 132.106 -0.951847 126.035 3.13731 126H34.662C38.7721 126.062 38.9191 132.089 34.662 132.3H3.13731ZM3.13731 69.2999C-1.13865 69.1057 -0.951847 63.0346 3.13731 62.9999H9.46199C13.5722 63.0622 13.7192 69.0891 9.46199 69.2999L3.13731 69.2999ZM22.0373 69.2999C17.7613 69.1057 17.9481 63.0346 22.0373 62.9999H40.962C45.0721 63.0622 45.2191 69.0891 40.962 69.2999L22.0373 69.2999ZM53.5373 69.2999C49.2613 69.1057 49.4481 63.0346 53.5373 62.9999H103.962C108.072 63.0622 108.219 69.0891 103.962 69.2999L53.5373 69.2999ZM78.7372 81.8999C74.4613 81.7057 74.6481 75.6346 78.7372 75.5999H97.6619C101.772 75.6622 101.919 81.6891 97.6619 81.8999H78.7372ZM40.9373 81.8999C36.6613 81.7057 36.8481 75.6346 40.9373 75.5999H66.1619C70.2721 75.6622 70.4191 81.6891 66.1619 81.8999H40.9373ZM3.13731 81.8999C-1.13865 81.7057 -0.951847 75.6346 3.13731 75.5999H28.362C32.4722 75.6622 32.6191 81.6891 28.362 81.8999H3.13731ZM3.13731 94.4999C-1.13865 94.3057 -0.951847 88.2346 3.13731 88.1999H9.46199C13.5722 88.2622 13.7192 94.2891 9.46199 94.4999H3.13731ZM22.0373 94.4999C17.7613 94.3057 17.9481 88.2346 22.0373 88.1999H78.7619C82.8721 88.2622 83.0191 94.2891 78.7619 94.4999H22.0373ZM3.13731 18.9C-1.13865 18.7057 -0.951847 12.6347 3.13731 12.6L22.05 12.6C26.1759 12.6623 26.3234 18.6892 22.05 18.9H3.13731Z" fill="#A0A0A0"/>
</svg>
