<svg width="211" height="211" viewBox="0 0 211 211" fill="none" xmlns="http://www.w3.org/2000/svg">
<path fill-rule="evenodd" clip-rule="evenodd" d="M55.7025 25.5733C55.7025 25.5733 52.4438 2.94336 104.627 2.94336C159.162 2.94336 154.948 30.2273 154.948 30.2273V75.3126C154.948 102.58 127.199 102.131 127.199 102.131H77.8088C48.1911 102.131 49.1287 131.277 49.1287 131.277V155.71H31.7345C31.7345 155.71 2.58899 157.577 2.58899 104.924C2.58899 52.2698 35.9812 56.0568 35.9812 56.0568H105.558V49.0177H55.7606L55.7025 25.5733ZM86.1278 27.6676C86.1278 22.7131 82.1234 18.7087 77.1689 18.7087C72.2144 18.7087 68.21 22.7131 68.21 27.6676C68.21 32.6221 72.2144 36.6265 77.1689 36.6265C82.1234 36.6265 86.1278 32.6221 86.1278 27.6676Z" fill="#A0A0A0"/>
<path fill-rule="evenodd" clip-rule="evenodd" d="M155.034 184.802C155.034 184.802 158.293 207.432 106.109 207.432C51.5752 207.432 55.7883 180.148 55.7883 180.148V135.062C55.7883 107.795 83.5376 108.244 83.5376 108.244H132.928C162.546 108.244 161.608 79.0984 161.608 79.0984V54.665H179.002C179.002 54.665 208.148 52.7978 208.148 105.451C208.148 158.105 174.756 154.318 174.756 154.318H105.179V161.357H154.976L155.034 184.802ZM124.609 182.707C124.609 187.662 128.613 191.666 133.568 191.666C138.522 191.666 142.527 187.662 142.527 182.707C142.527 177.753 138.522 173.749 133.568 173.749C128.613 173.749 124.609 177.753 124.609 182.707Z" fill="#A0A0A0"/>
</svg>
