<svg width="800" height="660" viewBox="0 0 800 660" fill="none" xmlns="http://www.w3.org/2000/svg">
<path d="M617.236 547.959C559.052 606.09 481.778 638.113 399.543 638.113C229.93 638.113 91.9109 500.175 91.75 330.615L154.519 393.464C158.679 397.598 165.374 397.598 169.53 393.464C173.636 389.304 173.636 382.587 169.53 378.453L86.316 295.204L3.12034 378.453C-1.04011 382.587 -1.04011 389.308 3.12034 393.464C5.17152 395.542 7.89302 396.556 10.5877 396.556C13.336 396.556 16.053 395.515 18.0819 393.464L70.9299 340.589C76.4489 517.245 221.479 659.34 399.44 659.34C487.355 659.34 569.988 625.104 632.171 562.948C636.305 558.814 636.305 552.093 632.171 547.964C628.144 543.799 621.397 543.799 617.236 547.959Z" fill="#A0A0A0"/>
<path d="M796.877 265.876C792.771 261.742 786.049 261.742 781.893 265.876L729.095 318.724C723.522 142.068 578.492 0 400.557 0C312.589 0 229.983 34.2355 167.8 96.392C163.64 100.526 163.64 107.247 167.8 111.376C171.907 115.536 178.655 115.536 182.784 111.376C240.941 53.2457 318.242 21.2223 400.477 21.2223C570.063 21.2223 708.109 159.134 708.324 328.72L645.501 265.871C641.368 261.738 634.647 261.738 630.491 265.871C626.384 270.032 626.384 276.748 630.491 280.882L713.713 364.104L796.909 280.882C801.038 276.753 801.038 270.032 796.877 265.876Z" fill="#A0A0A0"/>
</svg>
