<svg width="278" height="58" viewBox="0 0 278 58" fill="none" xmlns="http://www.w3.org/2000/svg">
<path d="M78.846 0.886917L57.5745 53.0603C56.9786 54.5203 55.9613 55.7696 54.6524 56.649C53.3435 57.5283 51.8023 57.9978 50.2254 57.9976H28.7291C27.1534 57.9983 25.6132 57.5297 24.3048 56.6517C22.9964 55.7737 21.9791 54.526 21.3825 53.0676L0.048142 0.886917C0.00807503 0.789297 -0.00734424 0.683314 0.00324518 0.578324C0.0138346 0.473334 0.0501071 0.372565 0.108861 0.284912C0.167615 0.197259 0.247043 0.125417 0.340135 0.0757282C0.433227 0.0260394 0.537119 3.14809e-05 0.642642 4.19607e-08H22.1751C22.7116 4.19607e-08 23.1926 0.3335 23.3835 0.836167L39.5075 43.8408L55.5034 0.841C55.5947 0.594155 55.7595 0.381221 55.9756 0.230861C56.1916 0.0805016 56.4485 -6.71242e-05 56.7117 4.19607e-08H78.2491C78.7058 4.19607e-08 79.0176 0.464 78.846 0.886917ZM80.8107 0.64525V57.3548C80.8107 57.71 81.1007 58 81.456 58H140.575C140.928 58 141.218 57.71 141.218 57.3548V43.2148C141.218 43.0441 141.15 42.8804 141.03 42.7594C140.909 42.6385 140.746 42.5702 140.575 42.5696H102.102C101.931 42.5689 101.767 42.5007 101.647 42.3797C101.526 42.2588 101.459 42.095 101.459 41.9243V37.2674C101.459 36.9146 101.749 36.6246 102.104 36.6246H139.7C140.055 36.6246 140.345 36.3346 140.345 35.9793V21.9482C140.345 21.777 140.277 21.6129 140.156 21.4919C140.035 21.3709 139.871 21.3029 139.7 21.3029H102.104C101.933 21.3029 101.769 21.2349 101.648 21.1139C101.527 20.9929 101.459 20.8288 101.459 20.6577V16.0757C101.459 15.7204 101.749 15.4304 102.104 15.4304H140.575C140.928 15.4304 141.218 15.1404 141.218 14.7852V0.64525C141.218 0.474953 141.15 0.31156 141.03 0.19069C140.91 0.0698199 140.748 0.00127567 140.577 4.19607e-08H81.456C81.2848 4.19607e-08 81.1207 0.0679815 80.9997 0.188989C80.8787 0.309997 80.8107 0.474119 80.8107 0.64525ZM143.934 0.64525V57.3548C143.934 57.71 144.224 58 144.582 58H203.701C204.053 58 204.343 57.71 204.343 57.3548V43.2148C204.343 43.0443 204.275 42.8809 204.155 42.7601C204.034 42.6393 203.871 42.5709 203.701 42.5696H165.227C165.057 42.5689 164.893 42.5007 164.773 42.3797C164.652 42.2588 164.584 42.095 164.584 41.9243V37.2674C164.584 36.9146 164.874 36.6246 165.23 36.6246H202.826C203.181 36.6246 203.471 36.3346 203.471 35.9793V21.9482C203.471 21.777 203.403 21.6129 203.282 21.4919C203.161 21.3709 202.997 21.3029 202.826 21.3029H165.227C165.056 21.3029 164.892 21.2349 164.771 21.1139C164.65 20.9929 164.582 20.8288 164.582 20.6577V16.0757C164.582 15.7204 164.872 15.4304 165.227 15.4304H203.701C204.053 15.4304 204.343 15.1404 204.343 14.7852V0.64525C204.343 0.474731 204.275 0.311341 204.155 0.190539C204.034 0.0697374 203.871 0.00127141 203.701 4.19607e-08H144.579C144.409 0.000639417 144.245 0.0689031 144.125 0.189842C144.004 0.31078 143.936 0.474537 143.936 0.64525H143.934ZM207.065 57.3548C207.065 57.71 207.355 58 207.707 58H248.211C257.075 58 264.226 55.7018 269.697 51.069C275.169 46.4725 277.904 39.1065 277.904 28.9638C277.904 18.821 275.169 11.455 269.697 6.85608C264.226 2.29583 257.078 4.19607e-08 248.211 4.19607e-08H207.707C207.537 0.000639417 207.373 0.0689031 207.253 0.189842C207.132 0.31078 207.065 0.474537 207.065 0.64525V57.3548ZM228.355 42.4608C228.184 42.4608 228.02 42.3929 227.899 42.2718C227.778 42.1508 227.71 41.9867 227.71 41.8156V16.1844C227.71 15.8292 228 15.5392 228.353 15.5392H243.469C248.138 15.5392 251.604 16.5614 253.866 18.6035C256.128 20.6456 257.256 24.1111 257.256 28.9638C257.256 33.8164 256.128 37.3544 253.866 39.3965C251.604 41.441 248.138 42.4608 243.469 42.4608H228.355Z" fill="#A0A0A0"/>
</svg>
