<svg width="48" height="48" viewBox="0 0 48 48" fill="none" xmlns="http://www.w3.org/2000/svg">
<rect width="48" height="48" rx="5" transform="matrix(-1 0 0 1 48 0)" fill="black"/>
<path d="M10.2855 36V14.0846H13.4162V33.5267H23.4347V36H10.2855ZM32.2982 36.3757C30.9415 36.3757 29.7727 36.1252 28.7917 35.6243C27.8108 35.1025 27.0489 34.3511 26.5063 33.3702C25.9636 32.3892 25.6923 31.2204 25.6923 29.8637H28.8543C28.8543 30.5733 28.9691 31.2099 29.1987 31.7735C29.4283 32.337 29.7831 32.7857 30.2632 33.1197C30.7641 33.4328 31.4216 33.5893 32.2356 33.5893C33.0496 33.5893 33.6862 33.4328 34.1453 33.1197C34.6254 32.8066 34.9698 32.3892 35.1785 31.8674C35.3872 31.3247 35.4916 30.709 35.4916 30.0202V14.0846H38.6223V30.0202C38.6223 32.0448 38.0588 33.6102 36.9317 34.7164C35.8047 35.8226 34.2601 36.3757 32.2982 36.3757Z" fill="white"/>
</svg>
