<svg xmlns:xlink="http://www.w3.org/1999/xlink" xmlns="http://www.w3.org/2000/svg" width="107" height="28" viewBox="0 0 107 28" fill="none">
<path fill-rule="evenodd" clip-rule="evenodd" d="M19.6402 6.12543L18.2552 3.72645C16.3507 0.427791 11.5895 0.427793 9.68499 3.72645L0.670285 19.3404C-1.12738 22.454 0.892855 26.3024 4.32846 26.7243C4.49503 26.7191 4.66093 26.7164 4.82605 26.7164C9.98721 26.7164 15.1493 15.8489 19.6402 6.12543ZM23.4985 26.7369C22.4215 26.7437 21.2868 26.7476 20.0937 26.7476C15.8698 26.7476 15.5141 21.7392 16.7147 17.3946C17.2664 15.3986 18.9266 11.4284 20.5604 7.71926L27.2699 19.3404C29.0872 22.4881 27.0027 26.3867 23.4985 26.7369Z" fill="url(#paint0_linear_131_601)"/>
<path d="M48.8825 24.5L48.691 22.0426C48.1166 22.8937 47.34 23.5745 46.3613 24.0851C45.4039 24.5745 44.2656 24.8191 42.9465 24.8191C41.8615 24.8191 40.8509 24.6277 39.9147 24.2447C38.9999 23.8404 38.202 23.2873 37.5212 22.5852C36.8616 21.8831 36.3404 21.0533 35.9574 20.0959C35.5744 19.1385 35.3829 18.0959 35.3829 16.9683C35.3829 15.8194 35.5744 14.7769 35.9574 13.8408C36.3404 12.8833 36.8616 12.0642 37.5212 11.3834C38.202 10.7026 38.9999 10.1707 39.9147 9.7877C40.8509 9.40474 41.8615 9.21325 42.9465 9.21325C44.2656 9.21325 45.4039 9.46856 46.3613 9.97919C47.34 10.4685 48.1166 11.1281 48.691 11.9578L48.8187 9.53239H51.2441V24.5H48.8825ZM43.2018 22.5533C44.0103 22.5533 44.7444 22.4043 45.4039 22.1065C46.0847 21.8086 46.6698 21.415 47.1592 20.9256C47.6485 20.415 48.0315 19.8193 48.3081 19.1385C48.5847 18.4576 48.7229 17.7343 48.7229 16.9683C48.7229 16.2024 48.5847 15.4896 48.3081 14.8301C48.0315 14.1493 47.6485 13.5642 47.1592 13.0748C46.6698 12.5855 46.0847 12.2025 45.4039 11.9259C44.7444 11.6281 44.0103 11.4791 43.2018 11.4791C42.4359 11.4791 41.7232 11.6281 41.0636 11.9259C40.4253 12.2025 39.8722 12.5855 39.4041 13.0748C38.936 13.5642 38.5743 14.1493 38.319 14.8301C38.0637 15.4896 37.9361 16.2024 37.9361 16.9683C37.9361 17.7343 38.0637 18.4576 38.319 19.1385C38.5743 19.8193 38.936 20.415 39.4041 20.9256C39.8722 21.415 40.4253 21.8086 41.0636 22.1065C41.7232 22.4043 42.4359 22.5533 43.2018 22.5533ZM54.0207 19.681H56.4142C56.4567 20.1491 56.595 20.564 56.8291 20.9256C57.0844 21.2873 57.3822 21.5958 57.7227 21.8511C58.0844 22.0852 58.4886 22.266 58.9354 22.3937C59.3822 22.5213 59.8396 22.5852 60.3077 22.5852C60.7332 22.5852 61.1481 22.532 61.5523 22.4256C61.9778 22.3192 62.3502 22.1703 62.6693 21.9788C62.9885 21.7873 63.2438 21.5533 63.4352 21.2767C63.6267 21.0001 63.7225 20.6703 63.7225 20.2874C63.7225 19.8618 63.6161 19.5108 63.4033 19.2342C63.1906 18.9576 62.8927 18.7342 62.5097 18.564C62.1481 18.3725 61.7119 18.2236 61.2013 18.1172C60.7119 18.0108 60.18 17.9045 59.6056 17.7981C59.0099 17.6917 58.3929 17.5641 57.7546 17.4151C57.1163 17.2662 56.5418 17.0534 56.0312 16.7768C55.5419 16.479 55.1376 16.096 54.8185 15.6279C54.4994 15.1386 54.3398 14.5003 54.3398 13.7131C54.3398 12.9685 54.4994 12.3195 54.8185 11.7664C55.1589 11.2132 55.5951 10.7451 56.127 10.3622C56.6801 9.97919 57.2971 9.7026 57.978 9.53239C58.6801 9.34091 59.3928 9.24517 60.1162 9.24517C60.8609 9.24517 61.5736 9.35155 62.2544 9.56431C62.9565 9.75579 63.5735 10.0537 64.1054 10.4579C64.6586 10.8409 65.1054 11.3408 65.4458 11.9578C65.8075 12.5536 65.999 13.245 66.0203 14.0322H63.6267C63.5842 13.628 63.4565 13.2663 63.2438 12.9472C63.031 12.6068 62.7544 12.3302 62.414 12.1174C62.0736 11.9047 61.7013 11.7451 61.297 11.6387C60.8928 11.5111 60.4673 11.4472 60.0205 11.4472C59.6162 11.4472 59.2226 11.5004 58.8396 11.6068C58.4567 11.6919 58.1163 11.8196 57.8184 11.9898C57.5205 12.16 57.2759 12.3727 57.0844 12.628C56.9142 12.8833 56.8291 13.1812 56.8291 13.5216C56.8291 13.8408 56.9035 14.1067 57.0525 14.3195C57.2014 14.5322 57.4248 14.7237 57.7227 14.8939C58.0205 15.0641 58.3822 15.2024 58.8077 15.3088C59.2545 15.4152 59.7545 15.5216 60.3077 15.6279C60.9885 15.7556 61.68 15.8939 62.3821 16.0428C63.1055 16.1918 63.7544 16.4152 64.3288 16.713C64.9246 17.0109 65.4033 17.4258 65.765 17.9577C66.1479 18.4683 66.3394 19.1597 66.3394 20.0321C66.3394 20.798 66.1586 21.4788 65.7969 22.0745C65.4352 22.6703 64.9671 23.1809 64.3927 23.6064C63.8182 24.0107 63.148 24.3192 62.3821 24.5319C61.6374 24.7447 60.8715 24.8511 60.0843 24.8511C59.2971 24.8511 58.5418 24.734 57.8184 24.5C57.095 24.266 56.4461 23.9362 55.8717 23.5107C55.3185 23.0639 54.8717 22.5213 54.5313 21.8831C54.1909 21.2448 54.0207 20.5108 54.0207 19.681ZM67.3756 11.6706V9.53239H70.2159V5.22402L72.7052 4.68148V9.53239H77.7795V11.6706H72.7371V19.5214C72.7371 20.6278 73.0456 21.4044 73.6626 21.8511C74.2796 22.2979 75.0881 22.5213 76.0881 22.5213C76.3009 22.5213 76.5136 22.5107 76.7264 22.4894C76.9391 22.4681 77.1625 22.4256 77.3966 22.3618V24.6277C77.0987 24.6915 76.7796 24.734 76.4392 24.7553C76.12 24.7979 75.8221 24.8191 75.5456 24.8191C74.7371 24.8191 74.0031 24.7128 73.3435 24.5C72.7052 24.2872 72.1521 23.9681 71.684 23.5426C71.2159 23.1171 70.8436 22.5745 70.567 21.915C70.3117 21.2554 70.184 20.4789 70.184 19.5853V11.6706H67.3756ZM82.7195 24.5H80.1663V9.53239H82.4641L82.6556 12.5323C83.0386 11.4898 83.6769 10.6813 84.5705 10.1068C85.464 9.51112 86.5066 9.21325 87.698 9.21325C87.9108 9.21325 88.1129 9.22389 88.3044 9.24517C88.4959 9.26644 88.6554 9.29836 88.7831 9.34091V11.6387C88.6767 11.6174 88.5491 11.5962 88.4001 11.5749C88.2725 11.5536 88.1448 11.543 88.0172 11.543C87.2087 11.543 86.4747 11.6813 85.8151 11.9578C85.1768 12.2344 84.6236 12.6174 84.1556 13.1067C83.6875 13.5961 83.3258 14.1812 83.0705 14.862C82.8365 15.5428 82.7195 16.2981 82.7195 17.1279V24.5ZM88.9539 17.0322C88.9539 15.9258 89.156 14.9046 89.5602 13.9684C89.9645 13.011 90.5177 12.1812 91.2198 11.4791C91.9219 10.777 92.7516 10.2239 93.709 9.81962C94.6877 9.41537 95.7515 9.21325 96.9004 9.21325C98.0493 9.21325 99.1025 9.41537 100.06 9.81962C101.039 10.2239 101.879 10.777 102.581 11.4791C103.283 12.1812 103.836 13.011 104.241 13.9684C104.645 14.9046 104.847 15.9258 104.847 17.0322C104.847 18.1172 104.645 19.1385 104.241 20.0959C103.836 21.032 103.283 21.8511 102.581 22.5533C101.879 23.2554 101.039 23.8085 100.06 24.2128C99.1025 24.617 98.0493 24.8191 96.9004 24.8191C95.7515 24.8191 94.6877 24.617 93.709 24.2128C92.7516 23.8085 91.9219 23.2554 91.2198 22.5533C90.5177 21.8511 89.9645 21.032 89.5602 20.0959C89.156 19.1385 88.9539 18.1172 88.9539 17.0322ZM96.9004 22.4575C97.6876 22.4575 98.411 22.3192 99.0706 22.0426C99.7301 21.7448 100.294 21.3618 100.762 20.8937C101.251 20.4044 101.624 19.8299 101.879 19.1704C102.156 18.5108 102.294 17.7981 102.294 17.0322C102.294 16.2662 102.156 15.5535 101.879 14.8939C101.624 14.2131 101.251 13.6386 100.762 13.1706C100.294 12.6812 99.7301 12.2983 99.0706 12.0217C98.411 11.7238 97.6876 11.5749 96.9004 11.5749C96.1132 11.5749 95.3898 11.7238 94.7303 12.0217C94.0707 12.2983 93.4963 12.6812 93.0069 13.1706C92.5389 13.6386 92.1665 14.2131 91.89 14.8939C91.6346 15.5535 91.507 16.2662 91.507 17.0322C91.507 17.7981 91.6346 18.5108 91.89 19.1704C92.1665 19.8299 92.5389 20.4044 93.0069 20.8937C93.4963 21.3618 94.0707 21.7448 94.7303 22.0426C95.3898 22.3192 96.1132 22.4575 96.9004 22.4575Z" fill="white"/>
<defs>
<linearGradient id="paint0_linear_131_601" x1="20.5161" y1="1.2798" x2="4.64629" y2="26.7439" gradientUnits="userSpaceOnUse">
<stop stop-color="white"/>
<stop offset="0.21" stop-color="#A8E5FF"/>
<stop offset="1" stop-color="#4200FF"/>
</linearGradient>
</defs>
</svg>