<svg width="576" height="176" viewBox="0 0 576 176" fill="none" xmlns="http://www.w3.org/2000/svg">
<mask id="mask0_69_120" style="mask-type:luminance" maskUnits="userSpaceOnUse" x="0" y="17" width="576" height="143">
<path d="M575.091 17.04H0V159.038H575.091V17.04Z" fill="white"/>
</mask>
<g mask="url(#mask0_69_120)">
<path fill-rule="evenodd" clip-rule="evenodd" d="M109.291 44.1806L101.584 30.8192C90.9859 12.447 64.4914 12.447 53.8936 30.8192L3.72991 117.783C-6.27347 135.124 4.96839 156.559 24.0864 158.908C25.0132 158.879 25.9364 158.864 26.8553 158.864C55.5754 158.864 84.3005 98.3367 109.291 44.1806ZM130.761 158.979C124.768 159.016 118.454 159.038 111.815 159.038C88.3103 159.038 86.3303 131.143 93.0119 106.946C96.0815 95.8285 105.32 73.7158 114.412 53.0576L151.747 117.783C161.86 135.314 150.261 157.028 130.761 158.979Z" fill="url(#paint0_linear_69_120)"/>
<path d="M486.65 100.659C486.65 94.4967 487.774 88.8087 490.025 83.5949C492.274 78.2623 495.351 73.641 499.26 69.7304C503.167 65.82 507.783 62.7391 513.112 60.4876C518.557 58.236 524.477 57.1104 530.87 57.1104C537.264 57.1104 543.123 58.236 548.451 60.4876C553.897 62.7391 558.574 65.82 562.481 69.7304C566.387 73.641 569.465 78.2623 571.716 83.5949C573.965 88.8087 575.09 94.4967 575.09 100.659C575.09 106.702 573.965 112.39 571.716 117.722C569.465 122.936 566.387 127.499 562.481 131.409C558.574 135.319 553.897 138.4 548.451 140.652C543.123 142.903 537.264 144.029 530.87 144.029C524.477 144.029 518.557 142.903 513.112 140.652C507.783 138.4 503.167 135.319 499.26 131.409C495.351 127.499 492.274 122.936 490.025 117.722C487.774 112.39 486.65 106.702 486.65 100.659ZM530.87 130.876C535.251 130.876 539.277 130.106 542.945 128.565C546.616 126.906 549.754 124.773 552.358 122.166C555.081 119.441 557.154 116.241 558.574 112.568C560.113 108.894 560.883 104.925 560.883 100.659C560.883 96.3926 560.113 92.423 558.574 88.7496C557.154 84.9575 555.081 81.7581 552.358 79.1511C549.754 76.4256 546.616 74.2926 542.945 72.7521C539.277 71.0932 535.251 70.2638 530.87 70.2638C526.49 70.2638 522.464 71.0932 518.793 72.7521C515.124 74.2926 511.928 76.4256 509.203 79.1511C506.599 81.7581 504.528 84.9575 502.989 88.7496C501.567 92.423 500.857 96.3926 500.857 100.659C500.857 104.925 501.567 108.894 502.989 112.568C504.528 116.241 506.599 119.441 509.203 122.166C511.928 124.773 515.124 126.906 518.793 128.565C522.464 130.106 526.49 130.876 530.87 130.876Z" fill="white"/>
<path d="M451.959 142.252H437.752V58.8878H450.537L451.604 75.5961C453.734 69.7897 457.286 65.2868 462.259 62.0874C467.231 58.7694 473.033 57.1104 479.663 57.1104C480.847 57.1104 481.972 57.1696 483.037 57.2882C484.102 57.4066 484.989 57.5844 485.701 57.8214V70.6193C485.108 70.5007 484.398 70.3822 483.569 70.2638C482.859 70.1452 482.149 70.0859 481.438 70.0859C476.94 70.0859 472.854 70.8563 469.185 72.3968C465.633 73.9373 462.554 76.0702 459.95 78.7957C457.346 81.5212 455.333 84.7798 453.911 88.5717C452.61 92.3638 451.959 96.5704 451.959 101.192V142.252Z" fill="white"/>
<path d="M366.575 70.7979V58.8887H382.382V34.8929L396.233 31.8711V58.8887H424.47V70.7979H396.411V114.524C396.411 120.686 398.127 125.011 401.56 127.5C404.995 129.988 409.492 131.232 415.057 131.232C416.241 131.232 417.425 131.173 418.609 131.054C419.793 130.936 421.037 130.699 422.338 130.343V142.964C420.68 143.319 418.905 143.556 417.011 143.674C415.235 143.911 413.577 144.03 412.038 144.03C407.54 144.03 403.454 143.438 399.785 142.253C396.233 141.068 393.154 139.29 390.55 136.92C387.946 134.55 385.873 131.528 384.334 127.855C382.914 124.182 382.202 119.856 382.202 114.879V70.7979H366.575Z" fill="white"/>
<path d="M292.259 115.414H305.579C305.816 118.021 306.585 120.331 307.888 122.346C309.308 124.36 310.966 126.078 312.859 127.5C314.872 128.804 317.123 129.811 319.608 130.522C322.095 131.233 324.64 131.589 327.246 131.589C329.613 131.589 331.921 131.292 334.172 130.7C336.539 130.107 338.611 129.278 340.386 128.211C342.162 127.145 343.582 125.841 344.649 124.301C345.714 122.76 346.247 120.924 346.247 118.791C346.247 116.421 345.656 114.466 344.472 112.925C343.288 111.385 341.63 110.14 339.498 109.192C337.485 108.126 335.059 107.296 332.217 106.704C329.494 106.111 326.534 105.519 323.337 104.926C320.023 104.334 316.589 103.623 313.037 102.793C309.485 101.964 306.289 100.779 303.449 99.2385C300.724 97.5794 298.475 95.4466 296.7 92.8395C294.923 90.1141 294.036 86.5591 294.036 82.1746C294.036 78.0272 294.923 74.413 296.7 71.332C298.594 68.251 301.02 65.6441 303.981 63.5111C307.059 61.3782 310.492 59.8377 314.281 58.8896C318.188 57.8232 322.153 57.29 326.179 57.29C330.323 57.29 334.289 57.8825 338.078 59.0675C341.985 60.1339 345.418 61.793 348.378 64.0443C351.456 66.1773 353.943 68.9621 355.837 72.3986C357.85 75.7165 358.915 79.5677 359.034 83.9522H345.714C345.478 81.7007 344.766 79.6863 343.582 77.9086C342.399 76.0128 340.86 74.4723 338.966 73.2873C337.072 72.1024 334.999 71.2136 332.75 70.6211C330.501 69.9101 328.133 69.5546 325.646 69.5546C323.397 69.5546 321.207 69.8508 319.075 70.4433C316.944 70.9174 315.05 71.6283 313.392 72.5763C311.736 73.5243 310.375 74.7093 309.308 76.1312C308.362 77.5533 307.888 79.2122 307.888 81.1082C307.888 82.8857 308.301 84.3669 309.13 85.5518C309.959 86.7368 311.202 87.8034 312.859 88.7514C314.517 89.6994 316.53 90.4696 318.898 91.0621C321.385 91.6545 324.166 92.247 327.246 92.8395C331.033 93.5506 334.882 94.3207 338.788 95.1504C342.814 95.9798 346.424 97.2241 349.621 98.8829C352.937 100.542 355.601 102.853 357.612 105.815C359.744 108.659 360.809 112.51 360.809 117.369C360.809 121.635 359.802 125.427 357.789 128.745C355.778 132.063 353.173 134.907 349.976 137.276C346.779 139.528 343.05 141.246 338.788 142.431C334.644 143.616 330.382 144.209 326.001 144.209C321.621 144.209 317.418 143.557 313.392 142.253C309.368 140.95 305.756 139.113 302.559 136.743C299.482 134.255 296.995 131.233 295.101 127.678C293.207 124.123 292.259 120.035 292.259 115.414Z" fill="white"/>
<path d="M263.668 142.252L262.601 128.565C259.404 133.305 255.084 137.097 249.638 139.941C244.31 142.666 237.975 144.029 230.635 144.029C224.597 144.029 218.974 142.963 213.764 140.83C208.674 138.578 204.235 135.497 200.445 131.587C196.774 127.676 193.874 123.055 191.744 117.722C189.612 112.39 188.547 106.584 188.547 100.303C188.547 93.9043 189.612 88.0978 191.744 82.8838C193.874 77.5515 196.774 72.9892 200.445 69.1972C204.235 65.4053 208.674 62.4429 213.764 60.3099C218.974 58.1769 224.597 57.1104 230.635 57.1104C237.975 57.1104 244.31 58.5323 249.638 61.3763C255.084 64.1018 259.404 67.7753 262.601 72.3968L263.313 58.8878H276.81V142.252H263.668ZM232.055 131.409C236.555 131.409 240.639 130.579 244.31 128.921C248.098 127.261 251.355 125.069 254.078 122.344C256.8 119.5 258.932 116.182 260.471 112.39C262.01 108.598 262.778 104.569 262.778 100.303C262.778 96.0372 262.01 92.0675 260.471 88.394C258.932 84.602 256.8 81.3433 254.078 78.6179C251.355 75.8924 248.098 73.7594 244.31 72.2189C240.639 70.56 236.555 69.7304 232.055 69.7304C227.794 69.7304 223.828 70.56 220.158 72.2189C216.606 73.7594 213.528 75.8924 210.923 78.6179C208.319 81.3433 206.306 84.602 204.884 88.394C203.464 92.0675 202.754 96.0372 202.754 100.303C202.754 104.569 203.464 108.598 204.884 112.39C206.306 116.182 208.319 119.5 210.923 122.344C213.528 125.069 216.606 127.261 220.158 128.921C223.828 130.579 227.794 131.409 232.055 131.409Z" fill="white"/>
</g>
<defs>
<linearGradient id="paint0_linear_69_120" x1="114.165" y1="17.1923" x2="25.7417" y2="158.946" gradientUnits="userSpaceOnUse">
<stop stop-color="white"/>
<stop offset="0.38" stop-color="#2C9E5B"/>
<stop offset="1" stop-color="#104124"/>
</linearGradient>
</defs>
</svg>
