<svg width="1687" height="443" viewBox="0 0 1687 443" fill="none" xmlns="http://www.w3.org/2000/svg">
<path d="M764.941 158.282C763.563 146.045 757.875 136.565 747.879 129.844C737.882 123.036 725.3 119.632 710.133 119.632C699.275 119.632 689.882 121.355 681.954 124.802C674.026 128.163 667.864 132.817 663.469 138.763C659.16 144.623 657.006 151.301 657.006 158.799C657.006 165.09 658.471 170.519 661.401 175.086C664.417 179.653 668.338 183.488 673.164 186.591C678.076 189.607 683.333 192.149 688.934 194.217C694.535 196.199 699.921 197.837 705.092 199.129L730.945 205.851C739.39 207.919 748.051 210.72 756.927 214.253C765.803 217.786 774.033 222.44 781.616 228.214C789.2 233.987 795.318 241.14 799.972 249.672C804.712 258.203 807.082 268.415 807.082 280.307C807.082 295.302 803.204 308.616 795.448 320.25C787.778 331.884 776.618 341.061 761.968 347.783C747.405 354.505 729.782 357.866 709.099 357.866C689.279 357.866 672.13 354.72 657.652 348.429C643.174 342.139 631.842 333.219 623.656 321.672C615.469 310.038 610.945 296.25 610.083 280.307H650.155C650.93 289.873 654.033 297.844 659.462 304.221C664.977 310.512 672 315.208 680.532 318.311C689.149 321.327 698.586 322.835 708.841 322.835C720.13 322.835 730.169 321.068 738.959 317.535C747.835 313.916 754.816 308.918 759.9 302.541C764.984 296.077 767.527 288.537 767.527 279.919C767.527 272.077 765.286 265.657 760.805 260.659C756.41 255.661 750.421 251.524 742.837 248.25C735.34 244.975 726.852 242.088 717.372 239.589L686.09 231.057C664.891 225.284 648.086 216.795 635.677 205.592C623.354 194.389 617.192 179.567 617.192 161.125C617.192 145.872 621.329 132.558 629.602 121.183C637.875 109.808 649.078 100.975 663.21 94.6837C677.343 88.3066 693.286 85.1181 711.038 85.1181C728.963 85.1181 744.776 88.2635 758.478 94.5544C772.266 100.845 783.125 109.506 791.053 120.536C798.981 131.481 803.117 144.063 803.462 158.282H764.941ZM909.491 357.866C896.909 357.866 885.534 355.539 875.365 350.885C865.197 346.146 857.139 339.295 851.193 330.332C845.333 321.37 842.403 310.383 842.403 297.37C842.403 286.167 844.557 276.946 848.866 269.707C853.175 262.469 858.992 256.738 866.317 252.515C873.642 248.293 881.829 245.104 890.877 242.95C899.926 240.795 909.146 239.158 918.54 238.038C930.432 236.659 940.084 235.539 947.495 234.677C954.906 233.729 960.292 232.221 963.653 230.153C967.014 228.084 968.694 224.723 968.694 220.07V219.165C968.694 207.876 965.506 199.129 959.129 192.924C952.838 186.72 943.445 183.617 930.949 183.617C917.936 183.617 907.681 186.504 900.184 192.278C892.773 197.966 887.645 204.3 884.802 211.28L848.478 203.007C852.787 190.942 859.078 181.205 867.351 173.793C875.71 166.296 885.319 160.867 896.177 157.506C907.035 154.059 918.453 152.336 930.432 152.336C938.36 152.336 946.762 153.283 955.638 155.179C964.601 156.989 972.96 160.35 980.716 165.262C988.558 170.174 994.978 177.197 999.976 186.332C1004.97 195.381 1007.47 207.144 1007.47 221.621V353.471H969.728V326.325H968.177C965.678 331.323 961.929 336.235 956.931 341.061C951.933 345.887 945.513 349.894 937.671 353.083C929.829 356.271 920.436 357.866 909.491 357.866ZM917.893 326.842C928.579 326.842 937.714 324.731 945.297 320.508C952.967 316.286 958.784 310.77 962.748 303.962C966.798 297.068 968.823 289.7 968.823 281.858V256.264C967.445 257.643 964.773 258.935 960.809 260.142C956.931 261.262 952.493 262.253 947.495 263.115C942.497 263.891 937.628 264.623 932.888 265.312C928.148 265.916 924.184 266.433 920.996 266.864C913.498 267.812 906.647 269.406 900.443 271.646C894.324 273.887 889.412 277.119 885.707 281.341C882.087 285.478 880.277 290.993 880.277 297.887C880.277 307.453 883.811 314.691 890.877 319.603C897.944 324.429 906.949 326.842 917.893 326.842ZM1076.27 427.927C1070.5 427.927 1065.24 427.453 1060.5 426.505C1055.76 425.643 1052.23 424.695 1049.9 423.661L1059.21 391.991C1066.28 393.887 1072.57 394.706 1078.08 394.447C1083.6 394.189 1088.47 392.121 1092.69 388.243C1097 384.365 1100.79 378.031 1104.07 369.241L1108.85 356.056L1036.2 154.921H1077.57L1127.85 309.004H1129.92L1180.2 154.921H1221.7L1139.87 379.97C1136.08 390.311 1131.25 399.058 1125.39 406.211C1119.53 413.449 1112.55 418.878 1104.45 422.498C1096.35 426.117 1086.96 427.927 1076.27 427.927ZM1405.51 158.282C1404.13 146.045 1398.44 136.565 1388.45 129.844C1378.45 123.036 1365.87 119.632 1350.7 119.632C1339.84 119.632 1330.45 121.355 1322.52 124.802C1314.59 128.163 1308.43 132.817 1304.04 138.763C1299.73 144.623 1297.57 151.301 1297.57 158.799C1297.57 165.09 1299.04 170.519 1301.97 175.086C1304.99 179.653 1308.91 183.488 1313.73 186.591C1318.64 189.607 1323.9 192.149 1329.5 194.217C1335.1 196.199 1340.49 197.837 1345.66 199.129L1371.51 205.851C1379.96 207.919 1388.62 210.72 1397.5 214.253C1406.37 217.786 1414.6 222.44 1422.19 228.214C1429.77 233.987 1435.89 241.14 1440.54 249.672C1445.28 258.203 1447.65 268.415 1447.65 280.307C1447.65 295.302 1443.77 308.616 1436.02 320.25C1428.35 331.884 1417.19 341.061 1402.54 347.783C1387.97 354.505 1370.35 357.866 1349.67 357.866C1329.85 357.866 1312.7 354.72 1298.22 348.429C1283.74 342.139 1272.41 333.219 1264.22 321.672C1256.04 310.038 1251.51 296.25 1250.65 280.307H1290.72C1291.5 289.873 1294.6 297.844 1300.03 304.221C1305.55 310.512 1312.57 315.208 1321.1 318.311C1329.72 321.327 1339.15 322.835 1349.41 322.835C1360.7 322.835 1370.74 321.068 1379.53 317.535C1388.4 313.916 1395.38 308.918 1400.47 302.541C1405.55 296.077 1408.1 288.537 1408.1 279.919C1408.1 272.077 1405.86 265.657 1401.37 260.659C1396.98 255.661 1390.99 251.524 1383.41 248.25C1375.91 244.975 1367.42 242.088 1357.94 239.589L1326.66 231.057C1305.46 225.284 1288.66 216.795 1276.25 205.592C1263.92 194.389 1257.76 179.567 1257.76 161.125C1257.76 145.872 1261.9 132.558 1270.17 121.183C1278.44 109.808 1289.65 100.975 1303.78 94.6837C1317.91 88.3066 1333.85 85.1181 1351.61 85.1181C1369.53 85.1181 1385.35 88.2635 1399.05 94.5544C1412.84 100.845 1423.69 109.506 1431.62 120.536C1439.55 131.481 1443.69 144.063 1444.03 158.282H1405.51ZM1575.91 357.478C1557.3 357.478 1541.05 353.212 1527.18 344.681C1513.31 336.149 1502.53 324.214 1494.86 308.875C1487.19 293.535 1483.36 275.611 1483.36 255.101C1483.36 234.504 1487.19 216.494 1494.86 201.068C1502.53 185.643 1513.31 173.664 1527.18 165.133C1541.05 156.601 1557.3 152.336 1575.91 152.336C1594.53 152.336 1610.77 156.601 1624.65 165.133C1638.52 173.664 1649.29 185.643 1656.96 201.068C1664.63 216.494 1668.47 234.504 1668.47 255.101C1668.47 275.611 1664.63 293.535 1656.96 308.875C1649.29 324.214 1638.52 336.149 1624.65 344.681C1610.77 353.212 1594.53 357.478 1575.91 357.478ZM1576.04 325.033C1588.11 325.033 1598.1 321.844 1606.03 315.467C1613.96 309.09 1619.82 300.602 1623.61 290.002C1627.49 279.402 1629.43 267.725 1629.43 254.971C1629.43 242.303 1627.49 230.67 1623.61 220.07C1619.82 209.384 1613.96 200.81 1606.03 194.346C1598.1 187.883 1588.11 184.652 1576.04 184.652C1563.89 184.652 1553.81 187.883 1545.79 194.346C1537.87 200.81 1531.96 209.384 1528.09 220.07C1524.29 230.67 1522.4 242.303 1522.4 254.971C1522.4 267.725 1524.29 279.402 1528.09 290.002C1531.96 300.602 1537.87 309.09 1545.79 315.467C1553.81 321.844 1563.89 325.033 1576.04 325.033Z" fill="white"/>
<path d="M349.396 35.4707C491.277 35.4707 491.277 221.008 240.257 221.008C-10.7642 221.008 -10.7642 406.545 131.117 406.545" stroke="#5046E5" stroke-width="70.9407" stroke-linecap="round"/>
</svg>
