<svg width="808" height="145" viewBox="0 0 808 145" fill="none" xmlns="http://www.w3.org/2000/svg">
<path d="M150.118 33.5566H162.473L181.944 89.3572C182.603 91.5051 183.064 93.23 183.328 94.5319C183.592 95.8338 183.723 97.0706 183.723 98.2421H185.354C185.354 97.038 185.486 95.8012 185.75 94.5319C186.046 93.23 186.524 91.5051 187.183 89.3572L206.703 33.5566H219.058L191.235 109.861H177.991L150.118 33.5566Z" fill="#F6F7FB"/>
<path d="M221.432 82.2789C221.432 77.2016 222.487 72.4335 224.595 67.9748C226.737 63.516 229.9 59.9196 234.084 57.1858C238.268 54.4519 243.292 53.085 249.157 53.085C254.164 53.085 258.777 54.159 262.994 56.307C267.211 58.4225 270.588 61.5958 273.125 65.8268C275.695 70.0578 276.98 75.2 276.98 81.2536V84.2805H238.927C235.632 84.2805 233.276 84.1827 231.86 83.9875L231.465 85.5498C232.058 85.6798 232.469 85.9402 232.7 86.331C232.964 86.6888 233.227 87.2258 233.491 87.9418C233.622 88.4626 233.919 89.2437 234.38 90.2853C235.731 93.6699 237.757 96.3712 240.459 98.389C243.16 100.374 246.225 101.367 249.651 101.367C253.242 101.367 256.323 100.456 258.892 98.6331C261.462 96.7782 263.307 94.4184 264.427 91.5546H276.09C274.212 97.2827 271.016 101.953 266.503 105.566C262.022 109.178 256.339 110.985 249.453 110.985C243.984 110.985 239.125 109.732 234.874 107.225C230.624 104.719 227.313 101.286 224.941 96.9245C222.602 92.5635 221.432 87.6814 221.432 82.2789ZM232.354 75.7859L233.293 77.0553C234.248 76.4693 235.121 76.0463 235.912 75.7859C236.736 75.493 237.642 75.3466 238.63 75.3466H259.979C261.132 75.3466 262.121 75.493 262.945 75.7859C263.801 76.0463 264.74 76.4693 265.762 77.0553L266.799 75.7859C266.206 75.3952 265.795 75.0537 265.564 74.7607C265.366 74.4351 265.202 74.0121 265.07 73.4914C264.938 72.5476 264.493 71.4083 263.736 70.0741C262.385 67.5354 260.441 65.5827 257.904 64.2157C255.4 62.8488 252.616 62.1653 249.552 62.1653C246.389 62.1653 243.589 62.8488 241.151 64.2157C238.746 65.5827 236.835 67.5354 235.418 70.0741C234.825 71.0831 234.347 72.222 233.985 73.4914C233.853 74.0121 233.705 74.4351 233.54 74.7607C233.375 75.0863 232.98 75.4278 232.354 75.7859Z" fill="#F6F7FB"/>
<path d="M284.988 96.7776V33.5566H296.107V94.0437C296.107 96.3868 296.469 98.0632 297.194 99.0722C297.952 100.081 299.484 100.586 301.79 100.586H304.953V109.861H298.232C293.85 109.861 290.539 108.868 288.299 106.883C286.091 104.865 284.988 101.497 284.988 96.7776Z" fill="#F6F7FB"/>
<path d="M309.304 94.7766C309.304 89.6341 311.33 85.5987 315.382 82.6693C318.413 80.4562 322.762 78.8291 328.429 77.7875L346.862 74.2725C346.862 70.5297 345.808 67.568 343.7 65.3874C341.459 63.1743 338.494 62.0677 334.804 62.0677C331.773 62.0677 329.121 62.9302 326.848 64.6551C324.607 66.3475 323.174 68.6258 322.548 71.4898H311.527C312.483 65.6315 315.152 61.1076 319.533 57.918C323.915 54.696 329.038 53.085 334.903 53.085C338.197 53.085 341.311 53.5731 344.243 54.5495C347.208 55.4934 349.696 56.8928 351.706 58.748C354.407 61.2215 356.104 64.1344 356.796 67.4866C357.52 70.8064 357.883 74.6307 357.883 78.9591V109.862H346.763V107.763C346.763 106.363 347.159 104.524 347.949 102.246L346.566 101.563C345.083 104.101 343.156 106.168 340.784 107.763C337.687 109.91 333.338 110.985 327.737 110.985C322.202 110.985 317.738 109.536 314.344 106.64C310.984 103.71 309.304 99.7562 309.304 94.7766ZM320.423 94.4836C320.423 96.8271 321.279 98.6494 322.993 99.9514C324.739 101.221 327.062 101.855 329.961 101.855C332.926 101.855 335.628 101.253 338.066 100.049C340.833 98.7146 342.893 96.8919 344.243 94.5814C345.001 93.3121 345.545 92.1239 345.874 91.0175C346.203 89.9108 346.566 88.43 346.961 86.5751C347.159 85.6961 347.422 85.0453 347.752 84.6224C348.114 84.199 348.592 83.9549 349.185 83.8897L348.889 82.2789L337.127 84.6709L331.048 85.745C327.128 86.5588 324.294 87.7629 322.548 89.3578C321.131 90.7571 320.423 92.4658 320.423 94.4836Z" fill="#F6F7FB"/>
<path d="M377.596 33.5566H389.95L409.422 89.3572C410.08 91.5051 410.542 93.23 410.805 94.5319C411.069 95.8338 411.201 97.0706 411.201 98.2421H412.832C412.832 97.038 412.964 95.8012 413.227 94.5319C413.524 93.23 414.001 91.5051 414.66 89.3572L434.181 33.5566H446.536L418.712 109.861H405.468L377.596 33.5566Z" fill="#F6F7FB"/>
<path d="M448.91 82.2789C448.91 77.2016 449.964 72.4335 452.073 67.9748C454.215 63.516 457.377 59.9196 461.562 57.1858C465.746 54.4519 470.77 53.085 476.634 53.085C481.642 53.085 486.255 54.159 490.472 56.307C494.689 58.4225 498.066 61.5958 500.603 65.8268C503.173 70.0578 504.458 75.2 504.458 81.2536V84.2805H466.404C463.11 84.2805 460.754 84.1827 459.338 83.9875L458.942 85.5498C459.535 85.6798 459.947 85.9402 460.178 86.331C460.441 86.6888 460.705 87.2258 460.969 87.9418C461.1 88.4626 461.397 89.2437 461.858 90.2853C463.209 93.6699 465.235 96.3712 467.937 98.389C470.638 100.374 473.702 101.367 477.129 101.367C480.72 101.367 483.8 100.456 486.37 98.6331C488.94 96.7782 490.785 94.4184 491.905 91.5546H503.568C501.69 97.2827 498.494 101.953 493.981 105.566C489.5 109.178 483.817 110.985 476.931 110.985C471.462 110.985 466.602 109.732 462.352 107.225C458.102 104.719 454.791 101.286 452.419 96.9245C450.08 92.5635 448.91 87.6814 448.91 82.2789ZM459.832 75.7859L460.771 77.0553C461.726 76.4693 462.599 76.0463 463.39 75.7859C464.214 75.493 465.12 75.3466 466.108 75.3466H487.457C488.611 75.3466 489.599 75.493 490.422 75.7859C491.279 76.0463 492.218 76.4693 493.239 77.0553L494.277 75.7859C493.684 75.3952 493.272 75.0537 493.042 74.7607C492.844 74.4351 492.679 74.0121 492.547 73.4914C492.416 72.5476 491.971 71.4083 491.213 70.0741C489.862 67.5354 487.919 65.5827 485.382 64.2157C482.878 62.8488 480.094 62.1653 477.03 62.1653C473.867 62.1653 471.067 62.8488 468.628 64.2157C466.223 65.5827 464.313 67.5354 462.896 70.0741C462.303 71.0831 461.825 72.222 461.463 73.4914C461.331 74.0121 461.183 74.4351 461.018 74.7607C460.853 75.0863 460.458 75.4278 459.832 75.7859Z" fill="#F6F7FB"/>
<path d="M512.663 109.862V54.159H523.781V56.8928C523.781 57.9018 523.684 58.7155 523.484 59.3338C523.288 59.9522 522.958 60.6031 522.499 61.2866L523.881 62.1653C526.188 58.9107 528.592 56.5837 531.096 55.1842C533.6 53.7847 536.5 53.085 539.793 53.085C548.23 53.085 553.927 56.0792 556.893 62.0677C558.045 64.2808 558.757 66.5428 559.02 68.8537C559.282 71.132 559.412 73.8658 559.412 77.0553V109.862H548.293V76.9575C548.293 71.2946 547.323 67.3727 545.378 65.1921C543.567 63.337 540.93 62.3931 537.47 62.3606C533.351 62.3606 530.173 63.6299 527.933 66.1685C526.451 67.7633 525.381 69.9275 524.721 72.6613C524.095 75.3952 523.781 79.0895 523.781 83.7434V109.862H512.663Z" fill="#F6F7FB"/>
<path d="M565.394 63.3852V54.1583H574.094V33.5566H585.262V54.1583H596.973V63.3852H585.262V93.8485C585.262 96.1916 585.591 97.9002 586.251 98.9744C586.943 100.049 588.491 100.586 590.895 100.586H596.877V109.861H587.388C583.006 109.861 579.695 108.868 577.454 106.883C575.213 104.865 574.094 101.497 574.094 96.7776V63.3852H565.394Z" fill="#F6F7FB"/>
<path d="M604.192 86.9656V54.1592H615.311V87.0634C615.311 92.7263 616.3 96.6643 618.274 98.8774C620.089 100.733 622.708 101.66 626.134 101.66C630.253 101.66 633.398 100.391 635.572 97.8525C637.12 96.2576 638.209 94.0934 638.835 91.3596C639.494 88.6254 639.824 84.9315 639.824 80.2775V54.1592H650.943V109.862H639.824V107.177C639.824 106.168 639.92 105.354 640.12 104.736C640.316 104.085 640.661 103.434 641.157 102.783L639.724 101.758C637.416 105.013 635.012 107.372 632.509 108.837C630.038 110.269 627.105 110.985 623.712 110.985C615.408 110.952 609.711 107.909 606.611 101.855C605.526 99.7075 604.851 97.4781 604.585 95.1672C604.322 92.8241 604.192 90.0903 604.192 86.9656Z" fill="#F6F7FB"/>
<path d="M661.469 109.862V54.159H672.589V56.8928C672.589 57.9018 672.492 58.7155 672.292 59.3338C672.096 59.9522 671.766 60.6031 671.303 61.2866L672.689 62.1653C674.863 58.9107 677.285 56.5837 679.952 55.1842C682.623 53.7847 685.915 53.085 689.838 53.085H690.923V63.874H687.908C683.397 63.874 679.885 65.1107 677.382 67.5843C674.222 70.5786 672.622 75.5093 672.589 82.3763V109.862H661.469Z" fill="#F6F7FB"/>
<path d="M694.483 82.2789C694.483 77.2016 695.538 72.4335 697.646 67.9748C699.79 63.516 702.95 59.9196 707.135 57.1858C711.321 54.4519 716.343 53.085 722.21 53.085C727.218 53.085 731.829 54.159 736.044 56.307C740.263 58.4225 743.641 61.5958 746.178 65.8268C748.745 70.0578 750.03 75.2 750.03 81.2536V84.2805H711.98C708.683 84.2805 706.328 84.1827 704.913 83.9875L704.517 85.5498C705.109 85.6798 705.52 85.9402 705.754 86.331C706.017 86.6888 706.28 87.2258 706.543 87.9418C706.676 88.4626 706.972 89.2437 707.432 90.2853C708.783 93.6699 710.809 96.3712 713.51 98.389C716.213 100.374 719.277 101.367 722.703 101.367C726.296 101.367 729.373 100.456 731.944 98.6331C734.515 96.7782 736.359 94.4184 737.478 91.5546H749.141C747.263 97.2827 744.067 101.953 739.556 105.566C735.074 109.178 729.392 110.985 722.506 110.985C717.036 110.985 712.176 109.732 707.928 107.225C703.676 104.719 700.364 101.286 697.994 96.9245C695.653 92.5635 694.483 87.6814 694.483 82.2789ZM705.405 75.7859L706.346 77.0553C707.302 76.4693 708.172 76.0463 708.965 75.7859C709.787 75.493 710.695 75.3466 711.684 75.3466H733.033C734.185 75.3466 735.174 75.493 735.996 75.7859C736.852 76.0463 737.792 76.4693 738.815 77.0553L739.852 75.7859C739.259 75.3952 738.848 75.0537 738.615 74.7607C738.418 74.4351 738.252 74.0121 738.122 73.4914C737.989 72.5476 737.544 71.4083 736.789 70.0741C735.437 67.5354 733.492 65.5827 730.955 64.2157C728.451 62.8488 725.67 62.1653 722.603 62.1653C719.44 62.1653 716.639 62.8488 714.202 64.2157C711.798 65.5827 709.887 67.5354 708.469 70.0741C707.876 71.0831 707.398 72.222 707.035 73.4914C706.906 74.0121 706.757 74.4351 706.591 74.7607C706.428 75.0863 706.031 75.4278 705.405 75.7859Z" fill="#F6F7FB"/>
<path d="M755.52 91.5546H766.739C767.561 94.8092 769.224 97.3479 771.728 99.1702C774.265 100.96 777.624 101.855 781.81 101.855C785.236 101.855 788.003 101.204 790.114 99.9025C792.222 98.6009 793.277 96.7619 793.277 94.3859C793.277 92.5309 792.633 91.0501 791.347 89.9434C790.062 88.837 788.432 87.9907 786.455 87.4047C784.514 86.7865 781.925 86.1354 778.699 85.452C774.25 84.5735 770.643 83.6782 767.876 82.7671C765.105 81.8233 762.735 80.2936 760.757 78.1779C758.812 76.03 757.842 73.101 757.842 69.3908C757.842 64.1181 759.835 60.0824 763.82 57.2834C767.809 54.4844 772.865 53.085 778.995 53.085C785.351 53.085 790.655 54.696 794.907 57.918C799.155 61.1401 801.778 65.6315 802.763 71.392H792.336C791.514 68.2677 789.914 65.9407 787.544 64.411C785.203 62.8488 782.354 62.0677 778.995 62.0677C775.765 62.0677 773.228 62.6698 771.383 63.874C769.572 65.0782 768.665 66.7055 768.665 68.7559C768.665 70.4156 769.276 71.7339 770.494 72.7102C771.713 73.6866 773.213 74.4514 774.991 75.0048C776.769 75.5255 779.291 76.0789 782.551 76.6645C787.132 77.5434 790.87 78.4709 793.77 79.4472C796.67 80.391 799.14 81.9859 801.181 84.2316C803.259 86.4447 804.296 89.5204 804.296 93.4584C804.296 98.7961 802.304 103.06 798.318 106.249C794.329 109.406 788.829 110.985 781.81 110.985C774.728 110.985 768.813 109.309 764.068 105.956C759.323 102.572 756.475 97.7709 755.52 91.5546Z" fill="#F6F7FB"/>
<g clip-path="url(#clip0_55_94)">
<path d="M37.1797 20.1237C43.4059 32.8777 47.3893 46.1781 48.9379 60.2053C50.3817 73.2809 49.5847 86.2154 46.7348 99.0383C45.5806 104.231 41.7652 107.859 36.3321 108.61C34.4073 108.876 32.4445 108.88 30.484 108.884C29.7668 108.886 29.0499 108.887 28.3355 108.901C26.9301 108.929 25.5241 108.922 24.1181 108.915C23.5829 108.912 23.0478 108.909 22.5128 108.908C18.3189 108.902 15.4264 105.341 16.4211 101.254C18.4106 93.0803 19.5709 84.792 19.8264 76.3946C20.0596 68.7281 19.5065 61.0996 18.2232 53.5282C15.5318 37.6493 9.76681 22.9417 1.34556 9.23717C-0.319001 6.52828 0.268525 3.32915 2.76374 1.88705C3.54081 1.43793 4.54823 1.20112 5.45424 1.18978L6.67051 1.17414C10.7937 1.12039 14.9211 1.06658 19.0377 1.23384C23.6484 1.42117 27.5077 3.34253 29.951 7.36464C31.7281 10.2904 33.3865 13.2881 35.0613 16.3153C35.7612 17.5805 36.4641 18.8512 37.1797 20.1237ZM35.8798 128.708C37.8006 124.875 39.7071 121.07 41.4216 117.181C43.7326 111.939 47.7083 109.337 53.2034 108.938C55.2541 108.789 57.3166 108.815 59.3801 108.841C60.6852 108.857 61.9909 108.874 63.2939 108.846C67.4328 108.758 71.0406 107.386 73.8859 104.261C75.7196 102.247 76.2425 99.7278 76.7665 97.2046L76.8217 96.9386C78.8761 87.0758 79.6532 77.1059 79.1368 67.0519C78.3037 50.8317 74.2676 35.4137 67.111 20.836C65.5069 17.5685 63.6963 14.4 61.8871 11.2342C61.4985 10.554 61.11 9.87393 60.7233 9.19299C59.6554 7.31144 59.451 5.46373 60.5268 3.56972C61.5419 1.78277 63.158 1.10924 65.1838 1.13325C66.8278 1.15272 68.4727 1.14272 70.1175 1.13273C72.9178 1.11572 75.7174 1.09871 78.5109 1.22709C83.0532 1.43585 86.8276 3.33074 89.3538 7.26914C98.6204 21.7163 104.809 37.3591 107.595 54.3055C108.699 61.0243 109.187 67.8019 109.082 74.6076C108.953 83.0148 107.95 91.3271 106.048 99.5248C104.954 104.243 101.041 107.888 95.7659 108.591C93.1561 108.938 90.4886 108.913 87.8352 108.888H87.8323L87.8295 108.888C87.3776 108.884 86.9261 108.879 86.4754 108.877C83.1652 108.859 79.9295 109.03 76.9458 110.685C74.4055 112.094 72.5071 114.058 71.4381 116.782C68.4912 124.29 64.7642 131.4 60.4868 138.235C57.7295 142.64 53.6544 144.664 48.5854 144.782C45.4995 144.854 42.4113 144.835 39.3234 144.817C38.1398 144.81 36.9564 144.803 35.773 144.801C31.7504 144.794 29.3774 140.804 31.2967 137.246C31.7129 136.475 32.1705 135.726 32.6422 134.954C32.8875 134.552 33.1366 134.144 33.3858 133.724C34.2091 132.043 35.0444 130.376 35.8769 128.714L35.8798 128.708Z" fill="black"/>
<path d="M37.1797 20.1237C43.4059 32.8777 47.3893 46.1781 48.9379 60.2053C50.3817 73.2809 49.5847 86.2154 46.7348 99.0383C45.5806 104.231 41.7652 107.859 36.3321 108.61C34.4073 108.876 32.4445 108.88 30.484 108.884C29.7668 108.886 29.0499 108.887 28.3355 108.901C26.9301 108.929 25.5241 108.922 24.1181 108.915C23.5829 108.912 23.0478 108.909 22.5128 108.908C18.3189 108.902 15.4264 105.341 16.4211 101.254C18.4106 93.0803 19.5709 84.792 19.8264 76.3946C20.0596 68.7281 19.5065 61.0996 18.2232 53.5282C15.5318 37.6493 9.76681 22.9417 1.34556 9.23717C-0.319001 6.52828 0.268525 3.32915 2.76374 1.88705C3.54081 1.43793 4.54823 1.20112 5.45424 1.18978L6.67051 1.17414C10.7937 1.12039 14.9211 1.06658 19.0377 1.23384C23.6484 1.42117 27.5077 3.34253 29.951 7.36464C31.7281 10.2904 33.3865 13.2881 35.0613 16.3153C35.7612 17.5805 36.4641 18.8512 37.1797 20.1237ZM35.8798 128.708C37.8006 124.875 39.7071 121.07 41.4216 117.181C43.7326 111.939 47.7083 109.337 53.2034 108.938C55.2541 108.789 57.3166 108.815 59.3801 108.841C60.6852 108.857 61.9909 108.874 63.2939 108.846C67.4328 108.758 71.0406 107.386 73.8859 104.261C75.7196 102.247 76.2425 99.7278 76.7665 97.2046L76.8217 96.9386C78.8761 87.0758 79.6532 77.1059 79.1368 67.0519C78.3037 50.8317 74.2676 35.4137 67.111 20.836C65.5069 17.5685 63.6963 14.4 61.8871 11.2342C61.4985 10.554 61.11 9.87393 60.7233 9.19299C59.6554 7.31144 59.451 5.46373 60.5268 3.56972C61.5419 1.78277 63.158 1.10924 65.1838 1.13325C66.8278 1.15272 68.4727 1.14272 70.1175 1.13273C72.9178 1.11572 75.7174 1.09871 78.5109 1.22709C83.0532 1.43585 86.8276 3.33074 89.3538 7.26914C98.6204 21.7163 104.809 37.3591 107.595 54.3055C108.699 61.0243 109.187 67.8019 109.082 74.6076C108.953 83.0148 107.95 91.3271 106.048 99.5248C104.954 104.243 101.041 107.888 95.7659 108.591C93.1561 108.938 90.4886 108.913 87.8352 108.888H87.8323L87.8295 108.888C87.3776 108.884 86.9261 108.879 86.4754 108.877C83.1652 108.859 79.9295 109.03 76.9458 110.685C74.4055 112.094 72.5071 114.058 71.4381 116.782C68.4912 124.29 64.7642 131.4 60.4868 138.235C57.7295 142.64 53.6544 144.664 48.5854 144.782C45.4995 144.854 42.4113 144.835 39.3234 144.817C38.1398 144.81 36.9564 144.803 35.773 144.801C31.7504 144.794 29.3774 140.804 31.2967 137.246C31.7129 136.475 32.1705 135.726 32.6422 134.954C32.8875 134.552 33.1366 134.144 33.3858 133.724C34.2091 132.043 35.0444 130.376 35.8769 128.714L35.8798 128.708Z" stroke="black" stroke-width="1.83333"/>
</g>
<defs>
<clipPath id="clip0_55_94">
<rect width="110" height="144.833" fill="white"/>
</clipPath>
</defs>
</svg>
