<svg width="773" height="89" viewBox="0 0 773 89" fill="none" xmlns="http://www.w3.org/2000/svg">
<path d="M115.118 5.55664H127.473L146.944 61.3572C147.603 63.5051 148.064 65.23 148.328 66.5319C148.592 67.8338 148.723 69.0706 148.723 70.2421H150.354C150.354 69.038 150.486 67.8012 150.75 66.5319C151.046 65.23 151.524 63.5051 152.183 61.3572L171.703 5.55664H184.058L156.235 81.8609H142.991L115.118 5.55664Z" fill="#F6F7FB"/>
<path d="M186.432 54.2789C186.432 49.2016 187.487 44.4335 189.595 39.9748C191.737 35.516 194.9 31.9196 199.084 29.1858C203.268 26.4519 208.292 25.085 214.157 25.085C219.164 25.085 223.777 26.159 227.994 28.307C232.211 30.4225 235.588 33.5958 238.125 37.8268C240.695 42.0578 241.98 47.2 241.98 53.2536V56.2805H203.927C200.632 56.2805 198.276 56.1827 196.86 55.9875L196.465 57.5498C197.058 57.6798 197.469 57.9402 197.7 58.331C197.964 58.6888 198.227 59.2258 198.491 59.9418C198.622 60.4626 198.919 61.2437 199.38 62.2853C200.731 65.6699 202.757 68.3712 205.459 70.389C208.16 72.3743 211.225 73.367 214.651 73.367C218.242 73.367 221.323 72.4558 223.892 70.6331C226.462 68.7782 228.307 66.4185 229.427 63.5546H241.09C239.212 69.2827 236.016 73.9529 231.503 77.5657C227.022 81.1782 221.339 82.9846 214.453 82.9846C208.984 82.9846 204.125 81.7315 199.874 79.2255C195.624 76.7194 192.313 73.2859 189.941 68.9245C187.602 64.5635 186.432 59.6814 186.432 54.2789ZM197.354 47.7859L198.293 49.0553C199.248 48.4693 200.121 48.0463 200.912 47.7859C201.736 47.493 202.642 47.3466 203.63 47.3466H224.979C226.132 47.3466 227.121 47.493 227.945 47.7859C228.801 48.0463 229.74 48.4693 230.762 49.0553L231.799 47.7859C231.206 47.3952 230.795 47.0537 230.564 46.7607C230.366 46.4351 230.202 46.0121 230.07 45.4914C229.938 44.5476 229.493 43.4083 228.736 42.0741C227.385 39.5354 225.441 37.5827 222.904 36.2157C220.4 34.8488 217.616 34.1653 214.552 34.1653C211.389 34.1653 208.589 34.8488 206.151 36.2157C203.746 37.5827 201.835 39.5354 200.418 42.0741C199.825 43.0831 199.347 44.222 198.985 45.4914C198.853 46.0121 198.705 46.4351 198.54 46.7607C198.375 47.0863 197.98 47.4278 197.354 47.7859Z" fill="#F6F7FB"/>
<path d="M249.988 68.7776V5.55664H261.107V66.0437C261.107 68.3868 261.469 70.0632 262.194 71.0722C262.952 72.0811 264.484 72.5856 266.79 72.5856H269.953V81.8609H263.232C258.85 81.8609 255.539 80.8683 253.299 78.883C251.091 76.8651 249.988 73.4967 249.988 68.7776Z" fill="#F6F7FB"/>
<path d="M274.304 66.7766C274.304 61.6341 276.33 57.5987 280.382 54.6693C283.413 52.4562 287.762 50.8291 293.429 49.7875L311.862 46.2725C311.862 42.5297 310.808 39.568 308.7 37.3874C306.459 35.1743 303.494 34.0677 299.804 34.0677C296.773 34.0677 294.121 34.9302 291.848 36.6551C289.607 38.3475 288.174 40.6258 287.548 43.4898H276.527C277.483 37.6315 280.152 33.1076 284.533 29.918C288.915 26.696 294.038 25.085 299.903 25.085C303.197 25.085 306.311 25.5731 309.243 26.5495C312.208 27.4934 314.696 28.8928 316.706 30.748C319.407 33.2215 321.104 36.1344 321.796 39.4866C322.52 42.8064 322.883 46.6307 322.883 50.9591V81.8615H311.763V79.7625C311.763 78.3628 312.159 76.5242 312.949 74.2459L311.566 73.5626C310.083 76.1008 308.156 78.1676 305.784 79.7625C302.687 81.9104 298.338 82.9846 292.737 82.9846C287.202 82.9846 282.738 81.5363 279.344 78.6395C275.984 75.7105 274.304 71.7562 274.304 66.7766ZM285.423 66.4836C285.423 68.8271 286.279 70.6494 287.993 71.9514C289.739 73.2207 292.062 73.8552 294.961 73.8552C297.926 73.8552 300.628 73.2533 303.066 72.0491C305.833 70.7146 307.893 68.8919 309.243 66.5814C310.001 65.3121 310.545 64.1239 310.874 63.0175C311.203 61.9108 311.566 60.43 311.961 58.5751C312.159 57.6961 312.422 57.0453 312.752 56.6224C313.114 56.199 313.592 55.9549 314.185 55.8897L313.889 54.2789L302.127 56.6709L296.048 57.745C292.128 58.5588 289.294 59.7629 287.548 61.3578C286.131 62.7571 285.423 64.4657 285.423 66.4836Z" fill="#F6F7FB"/>
<path d="M342.596 5.55664H354.95L374.422 61.3572C375.08 63.5051 375.542 65.23 375.805 66.5319C376.069 67.8338 376.201 69.0706 376.201 70.2421H377.832C377.832 69.038 377.964 67.8012 378.227 66.5319C378.524 65.23 379.001 63.5051 379.66 61.3572L399.181 5.55664H411.536L383.712 81.8609H370.468L342.596 5.55664Z" fill="#F6F7FB"/>
<path d="M413.91 54.2789C413.91 49.2016 414.964 44.4335 417.073 39.9748C419.215 35.516 422.377 31.9196 426.562 29.1858C430.746 26.4519 435.77 25.085 441.634 25.085C446.642 25.085 451.255 26.159 455.472 28.307C459.689 30.4225 463.066 33.5958 465.603 37.8268C468.173 42.0578 469.458 47.2 469.458 53.2536V56.2805H431.404C428.11 56.2805 425.754 56.1827 424.338 55.9875L423.942 57.5498C424.535 57.6798 424.947 57.9402 425.178 58.331C425.441 58.6888 425.705 59.2258 425.969 59.9418C426.1 60.4626 426.397 61.2437 426.858 62.2853C428.209 65.6699 430.235 68.3712 432.937 70.389C435.638 72.3743 438.702 73.367 442.129 73.367C445.72 73.367 448.8 72.4558 451.37 70.6331C453.94 68.7782 455.785 66.4185 456.905 63.5546H468.568C466.69 69.2827 463.494 73.9529 458.981 77.5657C454.5 81.1782 448.817 82.9846 441.931 82.9846C436.462 82.9846 431.602 81.7315 427.352 79.2255C423.102 76.7194 419.791 73.2859 417.419 68.9245C415.08 64.5635 413.91 59.6814 413.91 54.2789ZM424.832 47.7859L425.771 49.0553C426.726 48.4693 427.599 48.0463 428.39 47.7859C429.214 47.493 430.12 47.3466 431.108 47.3466H452.457C453.611 47.3466 454.599 47.493 455.422 47.7859C456.279 48.0463 457.218 48.4693 458.239 49.0553L459.277 47.7859C458.684 47.3952 458.272 47.0537 458.042 46.7607C457.844 46.4351 457.679 46.0121 457.547 45.4914C457.416 44.5476 456.971 43.4083 456.213 42.0741C454.862 39.5354 452.919 37.5827 450.382 36.2157C447.878 34.8488 445.094 34.1653 442.03 34.1653C438.867 34.1653 436.067 34.8488 433.628 36.2157C431.223 37.5827 429.313 39.5354 427.896 42.0741C427.303 43.0831 426.825 44.222 426.463 45.4914C426.331 46.0121 426.183 46.4351 426.018 46.7607C425.853 47.0863 425.458 47.4278 424.832 47.7859Z" fill="#F6F7FB"/>
<path d="M477.663 81.8615V26.159H488.781V28.8928C488.781 29.9018 488.684 30.7155 488.484 31.3338C488.288 31.9522 487.958 32.6031 487.499 33.2866L488.881 34.1653C491.188 30.9107 493.592 28.5837 496.096 27.1842C498.6 25.7847 501.5 25.085 504.793 25.085C513.23 25.085 518.927 28.0792 521.893 34.0677C523.045 36.2808 523.757 38.5428 524.02 40.8537C524.282 43.132 524.412 45.8658 524.412 49.0553V81.8615H513.293V48.9575C513.293 43.2946 512.323 39.3727 510.378 37.1921C508.567 35.337 505.93 34.3931 502.47 34.3606C498.351 34.3606 495.173 35.6299 492.933 38.1685C491.451 39.7633 490.381 41.9275 489.721 44.6613C489.095 47.3952 488.781 51.0895 488.781 55.7434V81.8615H477.663Z" fill="#F6F7FB"/>
<path d="M530.394 35.3852V26.1583H539.094V5.55664H550.262V26.1583H561.973V35.3852H550.262V65.8485C550.262 68.1916 550.591 69.9002 551.251 70.9744C551.943 72.0485 553.491 72.5856 555.895 72.5856H561.877V81.8609H552.388C548.006 81.8609 544.695 80.8683 542.454 78.883C540.213 76.8651 539.094 73.4967 539.094 68.7776V35.3852H530.394Z" fill="#F6F7FB"/>
<path d="M569.192 58.9656V26.1592H580.311V59.0634C580.311 64.7263 581.3 68.6643 583.274 70.8774C585.089 72.7327 587.708 73.6602 591.134 73.6602C595.253 73.6602 598.398 72.3908 600.572 69.8525C602.12 68.2576 603.209 66.0934 603.835 63.3596C604.494 60.6254 604.824 56.9315 604.824 52.2775V26.1592H615.943V81.8617H604.824V79.1768C604.824 78.1678 604.92 77.3541 605.12 76.7359C605.316 76.0851 605.661 75.434 606.157 74.7832L604.724 73.7579C602.416 77.0126 600.012 79.372 597.509 80.8369C595.038 82.2688 592.105 82.9848 588.712 82.9848C580.408 82.9522 574.711 79.909 571.611 73.8554C570.526 71.7075 569.851 69.4781 569.585 67.1672C569.322 64.8241 569.192 62.0903 569.192 58.9656Z" fill="#F6F7FB"/>
<path d="M626.469 81.8615V26.159H637.589V28.8928C637.589 29.9018 637.492 30.7155 637.292 31.3338C637.096 31.9522 636.766 32.6031 636.303 33.2866L637.689 34.1653C639.863 30.9107 642.285 28.5837 644.952 27.1842C647.623 25.7847 650.915 25.085 654.838 25.085H655.923V35.874H652.908C648.397 35.874 644.885 37.1107 642.382 39.5843C639.222 42.5786 637.622 47.5092 637.589 54.3763V81.8615H626.469Z" fill="#F6F7FB"/>
<path d="M659.483 54.2789C659.483 49.2016 660.538 44.4335 662.646 39.9748C664.79 35.516 667.95 31.9196 672.135 29.1858C676.321 26.4519 681.343 25.085 687.21 25.085C692.218 25.085 696.829 26.159 701.044 28.307C705.263 30.4225 708.641 33.5958 711.178 37.8268C713.745 42.0578 715.03 47.2 715.03 53.2536V56.2805H676.98C673.683 56.2805 671.328 56.1827 669.913 55.9875L669.517 57.5498C670.109 57.6798 670.52 57.9402 670.754 58.331C671.017 58.6888 671.28 59.2258 671.543 59.9418C671.676 60.4626 671.972 61.2437 672.432 62.2853C673.783 65.6699 675.809 68.3712 678.51 70.389C681.213 72.3743 684.277 73.367 687.703 73.367C691.296 73.367 694.373 72.4558 696.944 70.6331C699.515 68.7782 701.359 66.4185 702.478 63.5546H714.141C712.263 69.2827 709.067 73.9529 704.556 77.5657C700.074 81.1782 694.392 82.9846 687.506 82.9846C682.036 82.9846 677.176 81.7315 672.928 79.2255C668.676 76.7194 665.364 73.2859 662.994 68.9245C660.653 64.5635 659.483 59.6814 659.483 54.2789ZM670.405 47.7859L671.346 49.0553C672.302 48.4693 673.172 48.0463 673.965 47.7859C674.787 47.493 675.695 47.3466 676.684 47.3466H698.033C699.185 47.3466 700.174 47.493 700.996 47.7859C701.852 48.0463 702.792 48.4693 703.815 49.0553L704.852 47.7859C704.259 47.3952 703.848 47.0537 703.615 46.7607C703.418 46.4351 703.252 46.0121 703.122 45.4914C702.989 44.5476 702.544 43.4083 701.789 42.0741C700.437 39.5354 698.492 37.5827 695.955 36.2157C693.451 34.8488 690.67 34.1653 687.603 34.1653C684.44 34.1653 681.639 34.8488 679.202 36.2157C676.798 37.5827 674.887 39.5354 673.469 42.0741C672.876 43.0831 672.398 44.222 672.035 45.4914C671.906 46.0121 671.757 46.4351 671.591 46.7607C671.428 47.0863 671.031 47.4278 670.405 47.7859Z" fill="#F6F7FB"/>
<path d="M720.52 63.5546H731.739C732.561 66.8092 734.224 69.3479 736.728 71.1702C739.265 72.9603 742.624 73.8552 746.81 73.8552C750.236 73.8552 753.003 73.2044 755.114 71.9025C757.222 70.6009 758.277 68.7619 758.277 66.3859C758.277 64.5309 757.633 63.0501 756.347 61.9434C755.062 60.837 753.432 59.9907 751.455 59.4047C749.514 58.7865 746.925 58.1354 743.699 57.452C739.25 56.5735 735.643 55.6782 732.876 54.7671C730.105 53.8233 727.735 52.2936 725.757 50.1779C723.812 48.03 722.842 45.101 722.842 41.3908C722.842 36.1181 724.835 32.0824 728.82 29.2834C732.809 26.4844 737.865 25.085 743.995 25.085C750.351 25.085 755.655 26.696 759.907 29.918C764.155 33.1401 766.778 37.6315 767.763 43.392H757.336C756.514 40.2677 754.914 37.9407 752.544 36.411C750.203 34.8488 747.354 34.0677 743.995 34.0677C740.765 34.0677 738.228 34.6698 736.383 35.874C734.572 37.0782 733.665 38.7055 733.665 40.7559C733.665 42.4156 734.276 43.7339 735.494 44.7102C736.713 45.6866 738.213 46.4514 739.991 47.0048C741.769 47.5255 744.291 48.0789 747.551 48.6645C752.132 49.5434 755.87 50.4709 758.77 51.4472C761.67 52.391 764.14 53.9859 766.181 56.2316C768.259 58.4447 769.296 61.5204 769.296 65.4584C769.296 70.7961 767.304 75.0597 763.318 78.2491C759.329 81.406 753.829 82.9846 746.81 82.9846C739.728 82.9846 733.813 81.3085 729.068 77.9561C724.323 74.5715 721.475 69.7709 720.52 63.5546Z" fill="#F6F7FB"/>
<g clip-path="url(#clip0_55_94)">
<path d="M22.8469 12.3656C26.6729 20.2029 29.1207 28.376 30.0723 36.9957C30.9595 45.0306 30.4698 52.9789 28.7185 60.8585C28.0092 64.0496 25.6647 66.2787 22.3261 66.7405C21.1433 66.9041 19.9371 66.9065 18.7324 66.909C18.2917 66.9097 17.8512 66.9106 17.4121 66.9194C16.5485 66.9367 15.6845 66.9322 14.8205 66.9277C14.4917 66.926 14.1628 66.9243 13.8341 66.9237C11.2569 66.9198 9.47949 64.7316 10.0907 62.2202C11.3133 57.1974 12.0263 52.1042 12.1833 46.944C12.3266 42.233 11.9867 37.5453 11.1981 32.8926C9.5443 23.135 6.00169 14.0973 0.826836 5.6758C-0.196034 4.01119 0.165 2.04532 1.69831 1.15915C2.17582 0.883175 2.79488 0.737652 3.35162 0.730686L4.09902 0.721072C6.63273 0.688042 9.169 0.654978 11.6987 0.757759C14.5319 0.872872 16.9035 2.05355 18.4049 4.52513C19.4969 6.32303 20.516 8.16509 21.5451 10.0253C21.9752 10.8028 22.4072 11.5836 22.8469 12.3656ZM22.0481 79.0908C23.2285 76.7351 24.4 74.3971 25.4536 72.0073C26.8736 68.7862 29.3167 67.1872 32.6934 66.9418C33.9536 66.8501 35.221 66.8663 36.489 66.8822C37.291 66.8924 38.0934 66.9024 38.894 66.8854C41.4374 66.8311 43.6544 65.9884 45.4029 64.0679C46.5297 62.8303 46.851 61.2822 47.1729 59.7317L47.2069 59.5683C48.4693 53.5076 48.9469 47.3811 48.6295 41.2029C48.1176 31.2356 45.6374 21.7613 41.2397 12.8033C40.2539 10.7954 39.1413 8.84838 38.0296 6.90299C37.7908 6.48499 37.552 6.06709 37.3144 5.64865C36.6582 4.49244 36.5326 3.35703 37.1937 2.19315C37.8175 1.09507 38.8105 0.681193 40.0554 0.695944C41.0656 0.707908 42.0764 0.701768 43.0872 0.695627C44.8079 0.685175 46.5283 0.674722 48.2449 0.753611C51.0361 0.881895 53.3555 2.0463 54.9078 4.46645C60.6021 13.3442 64.4053 22.9567 66.117 33.3703C66.7956 37.499 67.0954 41.6638 67.0311 45.8459C66.9517 51.0121 66.335 56.12 65.1667 61.1575C64.4941 64.057 62.0893 66.2969 58.8481 66.7286C57.2444 66.9422 55.6052 66.9266 53.9747 66.9112H53.9729L53.9712 66.9111C53.6935 66.9085 53.416 66.9059 53.1391 66.9043C51.1049 66.8935 49.1166 66.9987 47.2831 68.0157C45.7221 68.8815 44.5556 70.0883 43.8986 71.7619C42.0878 76.3758 39.7976 80.7448 37.1691 84.9446C35.4747 87.652 32.9706 88.8957 29.8557 88.9681C27.9594 89.0122 26.0617 89.0009 24.1642 88.9895C23.4369 88.9852 22.7097 88.9808 21.9825 88.9796C19.5106 88.9755 18.0524 86.5234 19.2318 84.3373C19.4875 83.8633 19.7687 83.403 20.0586 82.9286C20.2093 82.6819 20.3624 82.4312 20.5155 82.173C21.0215 81.1397 21.5348 80.1154 22.0463 79.0944L22.0481 79.0908Z" fill="black"/>
<path d="M22.8469 12.3656C26.6729 20.2029 29.1207 28.376 30.0723 36.9957C30.9595 45.0306 30.4698 52.9789 28.7185 60.8585C28.0092 64.0496 25.6647 66.2787 22.3261 66.7405C21.1433 66.9041 19.9371 66.9065 18.7324 66.909C18.2917 66.9097 17.8512 66.9106 17.4121 66.9194C16.5485 66.9367 15.6845 66.9322 14.8205 66.9277C14.4917 66.926 14.1628 66.9243 13.8341 66.9237C11.2569 66.9198 9.47949 64.7316 10.0907 62.2202C11.3133 57.1974 12.0263 52.1042 12.1833 46.944C12.3266 42.233 11.9867 37.5453 11.1981 32.8926C9.5443 23.135 6.00169 14.0973 0.826836 5.6758C-0.196034 4.01119 0.165 2.04532 1.69831 1.15915C2.17582 0.883175 2.79488 0.737652 3.35162 0.730686L4.09902 0.721072C6.63273 0.688042 9.169 0.654978 11.6987 0.757759C14.5319 0.872872 16.9035 2.05355 18.4049 4.52513C19.4969 6.32303 20.516 8.16509 21.5451 10.0253C21.9752 10.8028 22.4072 11.5836 22.8469 12.3656ZM22.0481 79.0908C23.2285 76.7351 24.4 74.3971 25.4536 72.0073C26.8736 68.7862 29.3167 67.1872 32.6934 66.9418C33.9536 66.8501 35.221 66.8663 36.489 66.8822C37.291 66.8924 38.0934 66.9024 38.894 66.8854C41.4374 66.8311 43.6544 65.9884 45.4029 64.0679C46.5297 62.8303 46.851 61.2822 47.1729 59.7317L47.2069 59.5683C48.4693 53.5076 48.9469 47.3811 48.6295 41.2029C48.1176 31.2356 45.6374 21.7613 41.2397 12.8033C40.2539 10.7954 39.1413 8.84838 38.0296 6.90299C37.7908 6.48499 37.552 6.06709 37.3144 5.64865C36.6582 4.49244 36.5326 3.35703 37.1937 2.19315C37.8175 1.09507 38.8105 0.681193 40.0554 0.695944C41.0656 0.707908 42.0764 0.701768 43.0872 0.695627C44.8079 0.685175 46.5283 0.674722 48.2449 0.753611C51.0361 0.881895 53.3555 2.0463 54.9078 4.46645C60.6021 13.3442 64.4053 22.9567 66.117 33.3703C66.7956 37.499 67.0954 41.6638 67.0311 45.8459C66.9517 51.0121 66.335 56.12 65.1667 61.1575C64.4941 64.057 62.0893 66.2969 58.8481 66.7286C57.2444 66.9422 55.6052 66.9266 53.9747 66.9112H53.9729L53.9712 66.9111C53.6935 66.9085 53.416 66.9059 53.1391 66.9043C51.1049 66.8935 49.1166 66.9987 47.2831 68.0157C45.7221 68.8815 44.5556 70.0883 43.8986 71.7619C42.0878 76.3758 39.7976 80.7448 37.1691 84.9446C35.4747 87.652 32.9706 88.8957 29.8557 88.9681C27.9594 89.0122 26.0617 89.0009 24.1642 88.9895C23.4369 88.9852 22.7097 88.9808 21.9825 88.9796C19.5106 88.9755 18.0524 86.5234 19.2318 84.3373C19.4875 83.8633 19.7687 83.403 20.0586 82.9286C20.2093 82.6819 20.3624 82.4312 20.5155 82.173C21.0215 81.1397 21.5348 80.1154 22.0463 79.0944L22.0481 79.0908Z" stroke="black" stroke-width="1.12658"/>
</g>
<defs>
<clipPath id="clip0_55_94">
<rect width="67.5949" height="89" fill="white"/>
</clipPath>
</defs>
</svg>
