<svg xmlns:xlink="http://www.w3.org/1999/xlink" xmlns="http://www.w3.org/2000/svg" width="171" height="28" viewBox="0 0 171 28" fill="none" preserveAspectRatio="xMidYMid meet" aria-hidden="true" role="img">
<path d="M8.9783 4.23452L0 19.8102H4.36782L12.2553 6.12964C12.9209 4.97696 14.1097 4.29026 15.4365 4.29026C16.7656 4.29026 17.9544 4.97696 18.6178 6.12964L26.5052 19.8102L28.6891 16.02L21.8947 4.23452C20.5479 1.89571 18.1325 0.5 15.4365 0.5C12.7406 0.5 10.3274 1.89571 8.9783 4.23452Z" fill="#FF4B14"></path>
<path d="M32.9638 23.7655L41.9421 8.18976H37.5742L29.6868 21.8704C29.0212 23.023 27.8324 23.7097 26.5055 23.7097C25.1765 23.7097 23.9877 23.023 23.3243 21.8704L15.4368 8.18976L13.2529 11.98L20.0473 23.7655C21.3942 26.1043 23.8096 27.5 26.5055 27.5C29.2015 27.5 31.6147 26.1043 32.9638 23.7655Z" fill="#FF4B14"></path>
<path d="M60.8731 22.9484C60.4945 23.1721 59.9696 23.284 59.2984 23.284C58.7304 23.284 58.2743 23.1291 57.9301 22.8193C57.6031 22.4923 57.4397 21.9674 57.4397 21.2446C56.8373 21.9674 56.1317 22.4923 55.3228 22.8193C54.5311 23.1291 53.6706 23.284 52.7412 23.284C52.1389 23.284 51.5623 23.2151 51.0116 23.0774C50.4781 22.9398 50.0134 22.7246 49.6176 22.4321C49.2217 22.1395 48.9034 21.7609 48.6624 21.2962C48.4387 20.8143 48.3268 20.2378 48.3268 19.5666C48.3268 18.8093 48.4559 18.1897 48.714 17.7078C48.9722 17.226 49.3078 16.8387 49.7208 16.5462C50.1511 16.2364 50.633 16.004 51.1665 15.8491C51.7172 15.6942 52.2766 15.5652 52.8445 15.4619C53.4469 15.3414 54.0148 15.2554 54.5483 15.2037C55.0991 15.1349 55.5809 15.0489 55.994 14.9456C56.407 14.8251 56.734 14.6616 56.975 14.4551C57.2159 14.2314 57.3364 13.913 57.3364 13.4999C57.3364 13.018 57.2417 12.6308 57.0524 12.3382C56.8803 12.0457 56.648 11.8219 56.3554 11.667C56.08 11.5121 55.7617 11.4089 55.4002 11.3573C55.056 11.3056 54.7118 11.2798 54.3676 11.2798C53.4383 11.2798 52.6638 11.4605 52.0442 11.8219C51.4247 12.1661 51.0891 12.8287 51.0374 13.8097H48.8431C48.8775 12.9836 49.0496 12.2866 49.3594 11.7187C49.6692 11.1507 50.0823 10.6947 50.5986 10.3505C51.1149 9.98904 51.7 9.73088 52.354 9.57599C53.0252 9.4211 53.7394 9.34365 54.4967 9.34365C55.0991 9.34365 55.6928 9.38668 56.278 9.47273C56.8803 9.55878 57.4224 9.73949 57.9043 10.0149C58.3862 10.273 58.7734 10.643 59.066 11.1249C59.3586 11.6068 59.5049 12.235 59.5049 13.0094V19.8763C59.5049 20.3926 59.5307 20.7713 59.5823 21.0122C59.6512 21.2532 59.8577 21.3736 60.2019 21.3736C60.3912 21.3736 60.6149 21.3306 60.8731 21.2446V22.9484ZM57.3106 16.1073C57.0352 16.3138 56.6738 16.4687 56.2263 16.572C55.7789 16.658 55.3056 16.7355 54.8065 16.8043C54.3246 16.8559 53.8341 16.9248 53.335 17.0108C52.8359 17.0797 52.3884 17.2001 51.9926 17.3722C51.5968 17.5443 51.2698 17.7939 51.0116 18.1209C50.7707 18.4307 50.6502 18.8609 50.6502 19.4117C50.6502 19.7731 50.719 20.0829 50.8567 20.341C51.0116 20.582 51.2009 20.7799 51.4247 20.9348C51.6656 21.0897 51.941 21.2015 52.2508 21.2704C52.5605 21.3392 52.8875 21.3736 53.2317 21.3736C53.9546 21.3736 54.5741 21.279 55.0904 21.0897C55.6068 20.8831 56.0284 20.6336 56.3554 20.341C56.6824 20.0312 56.9233 19.7042 57.0782 19.36C57.2331 18.9986 57.3106 18.663 57.3106 18.3532V16.1073ZM63.2251 16.3396C63.2251 17.1485 63.3284 17.8713 63.5349 18.5081C63.7586 19.1277 64.0598 19.6526 64.4384 20.0829C64.8171 20.4959 65.2559 20.8143 65.755 21.038C66.2713 21.2618 66.8135 21.3736 67.3814 21.3736C67.9493 21.3736 68.4829 21.2618 68.982 21.038C69.4983 20.8143 69.9457 20.4959 70.3244 20.0829C70.703 19.6526 70.9956 19.1277 71.2021 18.5081C71.4258 17.8713 71.5377 17.1485 71.5377 16.3396C71.5377 15.5307 71.4258 14.8165 71.2021 14.1969C70.9956 13.5602 70.703 13.0267 70.3244 12.5964C69.9457 12.1661 69.4983 11.8391 68.982 11.6154C68.4829 11.3917 67.9493 11.2798 67.3814 11.2798C66.8135 11.2798 66.2713 11.3917 65.755 11.6154C65.2559 11.8391 64.8171 12.1661 64.4384 12.5964C64.0598 13.0267 63.7586 13.5602 63.5349 14.1969C63.3284 14.8165 63.2251 15.5307 63.2251 16.3396ZM60.9017 16.3396C60.9017 15.3586 61.0394 14.4465 61.3148 13.6032C61.5901 12.7427 62.0032 12.0026 62.5539 11.3831C63.1047 10.7463 63.7845 10.2472 64.5933 9.88578C65.4022 9.52436 66.3316 9.34365 67.3814 9.34365C68.4484 9.34365 69.3778 9.52436 70.1695 9.88578C70.9783 10.2472 71.6582 10.7463 72.2089 11.3831C72.7596 12.0026 73.1727 12.7427 73.448 13.6032C73.7234 14.4465 73.8611 15.3586 73.8611 16.3396C73.8611 17.3206 73.7234 18.2328 73.448 19.0761C73.1727 19.9194 72.7596 20.6594 72.2089 21.2962C71.6582 21.9158 70.9783 22.4062 70.1695 22.7677C69.3778 23.1119 68.4484 23.284 67.3814 23.284C66.3316 23.284 65.4022 23.1119 64.5933 22.7677C63.7845 22.4062 63.1047 21.9158 62.5539 21.2962C62.0032 20.6594 61.5901 19.9194 61.3148 19.0761C61.0394 18.2328 60.9017 17.3206 60.9017 16.3396ZM88.6672 23H85.8791L79.3995 4.56781H82.0326L87.299 20.5475H87.3506L92.6686 4.56781H95.2243L88.6672 23ZM103.399 15.0489C103.364 14.5325 103.244 14.0421 103.037 13.5774C102.848 13.1127 102.581 12.7169 102.237 12.3899C101.91 12.0457 101.514 11.7789 101.049 11.5896C100.602 11.3831 100.103 11.2798 99.552 11.2798C98.9841 11.2798 98.4678 11.3831 98.0031 11.5896C97.5556 11.7789 97.1684 12.0457 96.8414 12.3899C96.5144 12.7341 96.2563 13.1385 96.0669 13.6032C95.8776 14.0507 95.7658 14.5325 95.7313 15.0489H103.399ZM105.515 18.7663C105.223 20.2636 104.577 21.3908 103.579 22.1481C102.581 22.9053 101.325 23.284 99.8102 23.284C98.7431 23.284 97.8138 23.1119 97.0221 22.7677C96.2477 22.4235 95.5937 21.9416 95.0601 21.322C94.5266 20.7024 94.1222 19.9624 93.8468 19.1019C93.5887 18.2414 93.4424 17.3034 93.408 16.288C93.408 15.2726 93.5629 14.3432 93.8726 13.4999C94.1824 12.6566 94.6127 11.9252 95.1634 11.3056C95.7313 10.6861 96.3939 10.2042 97.1512 9.85996C97.9257 9.51576 98.769 9.34365 99.6811 9.34365C100.869 9.34365 101.85 9.5932 102.624 10.0923C103.416 10.5742 104.044 11.1938 104.509 11.951C104.99 12.7083 105.317 13.5344 105.49 14.4293C105.679 15.3242 105.756 16.1761 105.722 16.985H95.7313C95.7141 17.5702 95.783 18.1295 95.9379 18.663C96.0928 19.1793 96.3423 19.644 96.6865 20.057C97.0307 20.4529 97.4696 20.7713 98.0031 21.0122C98.5366 21.2532 99.1648 21.3736 99.8876 21.3736C100.817 21.3736 101.574 21.1585 102.159 20.7282C102.762 20.298 103.158 19.644 103.347 18.7663H105.515ZM106.706 9.65344H108.771V11.7703H108.823C109.735 10.1525 111.18 9.34365 113.16 9.34365C114.037 9.34365 114.769 9.46413 115.354 9.70507C115.939 9.94601 116.412 10.2816 116.774 10.7119C117.135 11.1421 117.385 11.6584 117.522 12.2608C117.677 12.8459 117.755 13.4999 117.755 14.2228V23H115.56V13.9646C115.56 13.1385 115.319 12.4845 114.838 12.0026C114.356 11.5208 113.693 11.2798 112.85 11.2798C112.179 11.2798 111.593 11.3831 111.094 11.5896C110.612 11.7961 110.208 12.0887 109.881 12.4673C109.554 12.8459 109.304 13.2934 109.132 13.8097C108.977 14.3088 108.9 14.8595 108.9 15.4619V23H106.706V9.65344ZM122.806 9.65344H125.465V11.5896H122.806V19.8763C122.806 20.1345 122.823 20.341 122.857 20.4959C122.909 20.6508 122.995 20.7713 123.116 20.8573C123.236 20.9434 123.4 21.0036 123.606 21.038C123.83 21.0552 124.114 21.0638 124.458 21.0638H125.465V23H123.787C123.219 23 122.728 22.9656 122.315 22.8967C121.92 22.8107 121.593 22.6644 121.334 22.4579C121.093 22.2514 120.913 21.9588 120.792 21.5802C120.672 21.2015 120.612 20.7024 120.612 20.0829V11.5896H118.34V9.65344H120.612V5.65205H122.806V9.65344ZM137.661 23H135.596V20.8831H135.544C135.079 21.7092 134.485 22.3202 133.763 22.716C133.04 23.0947 132.188 23.284 131.207 23.284C130.329 23.284 129.598 23.1721 129.013 22.9484C128.427 22.7074 127.954 22.3718 127.593 21.9416C127.231 21.5113 126.973 21.0036 126.818 20.4185C126.681 19.8161 126.612 19.1535 126.612 18.4307V9.65344H128.806V18.6888C128.806 19.5149 129.047 20.1689 129.529 20.6508C130.011 21.1327 130.673 21.3736 131.517 21.3736C132.188 21.3736 132.764 21.2704 133.246 21.0638C133.745 20.8573 134.159 20.5647 134.485 20.1861C134.812 19.8075 135.053 19.3686 135.208 18.8695C135.38 18.3532 135.466 17.7939 135.466 17.1915V9.65344H137.661V23ZM139.588 9.65344H141.654V12.4673H141.705C142.239 11.3831 142.893 10.5828 143.667 10.0665C144.442 9.55018 145.423 9.30923 146.61 9.34365V11.667C145.732 11.667 144.984 11.7875 144.364 12.0285C143.745 12.2694 143.245 12.6222 142.867 13.0869C142.488 13.5516 142.213 14.1195 142.041 14.7907C141.869 15.4447 141.783 16.2019 141.783 17.0625V23H139.588V9.65344ZM155.786 15.0489C155.751 14.5325 155.631 14.0421 155.424 13.5774C155.235 13.1127 154.968 12.7169 154.624 12.3899C154.297 12.0457 153.901 11.7789 153.436 11.5896C152.989 11.3831 152.49 11.2798 151.939 11.2798C151.371 11.2798 150.855 11.3831 150.39 11.5896C149.943 11.7789 149.556 12.0457 149.229 12.3899C148.902 12.7341 148.643 13.1385 148.454 13.6032C148.265 14.0507 148.153 14.5325 148.118 15.0489H155.786ZM157.902 18.7663C157.61 20.2636 156.965 21.3908 155.966 22.1481C154.968 22.9053 153.712 23.284 152.197 23.284C151.13 23.284 150.201 23.1119 149.409 22.7677C148.635 22.4235 147.981 21.9416 147.447 21.322C146.914 20.7024 146.509 19.9624 146.234 19.1019C145.976 18.2414 145.829 17.3034 145.795 16.288C145.795 15.2726 145.95 14.3432 146.26 13.4999C146.57 12.6566 147 11.9252 147.551 11.3056C148.118 10.6861 148.781 10.2042 149.538 9.85996C150.313 9.51576 151.156 9.34365 152.068 9.34365C153.256 9.34365 154.237 9.5932 155.011 10.0923C155.803 10.5742 156.431 11.1938 156.896 11.951C157.378 12.7083 157.705 13.5344 157.877 14.4293C158.066 15.3242 158.143 16.1761 158.109 16.985H148.118C148.101 17.5702 148.17 18.1295 148.325 18.663C148.48 19.1793 148.729 19.644 149.074 20.057C149.418 20.4529 149.857 20.7713 150.39 21.0122C150.924 21.2532 151.552 21.3736 152.275 21.3736C153.204 21.3736 153.961 21.1585 154.546 20.7282C155.149 20.298 155.545 19.644 155.734 18.7663H157.902ZM160.435 18.7921C160.452 19.274 160.564 19.687 160.771 20.0312C160.977 20.3582 161.244 20.625 161.571 20.8315C161.915 21.0208 162.294 21.1585 162.707 21.2446C163.137 21.3306 163.576 21.3736 164.024 21.3736C164.368 21.3736 164.729 21.3478 165.108 21.2962C165.486 21.2446 165.831 21.1499 166.14 21.0122C166.467 20.8745 166.734 20.6766 166.941 20.4185C167.147 20.1431 167.25 19.7989 167.25 19.3858C167.25 18.8179 167.035 18.3876 166.605 18.0951C166.175 17.8025 165.633 17.5702 164.979 17.3981C164.342 17.2087 163.645 17.0452 162.888 16.9076C162.13 16.7527 161.425 16.5462 160.771 16.288C160.134 16.0126 159.601 15.634 159.17 15.1521C158.74 14.6702 158.525 13.999 158.525 13.1385C158.525 12.4673 158.671 11.8908 158.964 11.4089C159.274 10.927 159.661 10.5398 160.125 10.2472C160.607 9.93741 161.141 9.71367 161.726 9.57599C162.328 9.4211 162.922 9.34365 163.507 9.34365C164.265 9.34365 164.962 9.41249 165.598 9.55018C166.235 9.67065 166.794 9.89438 167.276 10.2214C167.775 10.5312 168.171 10.9614 168.464 11.5121C168.756 12.0457 168.928 12.7169 168.98 13.5257H166.786C166.751 13.0955 166.64 12.7427 166.45 12.4673C166.261 12.1747 166.02 11.9424 165.727 11.7703C165.435 11.5982 165.108 11.4777 164.746 11.4089C164.402 11.3228 164.049 11.2798 163.688 11.2798C163.361 11.2798 163.025 11.3056 162.681 11.3573C162.354 11.4089 162.053 11.5035 161.778 11.6412C161.502 11.7617 161.279 11.9338 161.106 12.1575C160.934 12.3641 160.848 12.6394 160.848 12.9836C160.848 13.3623 160.977 13.6806 161.235 13.9388C161.511 14.1797 161.855 14.3863 162.268 14.5584C162.681 14.7133 163.146 14.8509 163.662 14.9714C164.178 15.0747 164.695 15.1865 165.211 15.307C165.762 15.4275 166.295 15.5738 166.812 15.7459C167.345 15.918 167.81 16.1503 168.206 16.4429C168.619 16.7183 168.946 17.0711 169.187 17.5013C169.445 17.9316 169.574 18.4651 169.574 19.1019C169.574 19.9108 169.402 20.582 169.058 21.1155C168.731 21.649 168.292 22.0793 167.741 22.4062C167.207 22.7332 166.596 22.957 165.908 23.0774C165.237 23.2151 164.566 23.284 163.894 23.284C163.154 23.284 162.449 23.2065 161.778 23.0516C161.106 22.8967 160.513 22.6472 159.996 22.303C159.48 21.9416 159.067 21.4769 158.757 20.909C158.447 20.3238 158.275 19.6182 158.241 18.7921H160.435Z" fill="#FFFFFF"></path>
</svg>