<svg width="1628" height="408" viewBox="0 0 1628 408" fill="none" xmlns="http://www.w3.org/2000/svg">
<path d="M580.503 187.197C589.997 190.988 600.18 192.883 611.052 192.883C622.268 192.883 633.037 190.41 643.359 185.464C653.683 180.518 662.076 173.979 668.542 165.844L653.584 152.533C648.698 158.36 642.66 163.255 635.469 167.217C628.278 171.18 620.142 173.163 611.059 173.164C600.597 173.164 591.153 170.877 582.727 166.303C574.301 161.728 567.644 155.225 562.755 146.791C557.87 138.359 555.426 128.756 555.426 117.983C555.426 102.331 560.604 89.2209 570.96 78.6518C581.315 68.0825 594.066 62.7988 609.211 62.8004C616.921 62.8011 624.546 64.3752 631.608 67.4235C638.834 70.5088 644.683 74.452 649.154 79.2529L663.295 65.5332C656.825 58.5595 648.826 53.0721 639.296 49.0711C629.786 45.0793 619.549 43.0396 609.211 43.0767C595.174 43.0767 582.423 46.376 570.96 52.9747C559.66 59.4226 550.364 68.787 544.074 80.0568C537.602 91.5064 534.368 104.14 534.371 117.959C534.371 128.595 536.315 138.554 540.202 147.835C544.089 157.115 549.401 165.041 556.14 171.613C562.886 178.208 571.007 183.402 580.503 187.197Z" fill="white"/>
<path d="M765.076 105.558C755.34 95.8387 743.109 90.9781 728.382 90.9766C713.655 90.975 701.408 95.8354 691.639 105.558C681.874 115.283 676.99 127.428 676.99 141.992C676.99 156.558 681.876 168.685 691.649 178.374C701.411 188.058 713.655 192.9 728.382 192.9C743.109 192.9 755.34 188.056 765.076 178.369C774.811 168.68 779.679 156.553 779.683 141.988C779.686 127.422 774.817 115.279 765.076 105.558ZM750.833 164.908C744.947 171.105 737.464 174.205 728.382 174.205C719.3 174.205 711.814 171.105 705.924 164.908C700.039 158.708 697.097 151.07 697.097 141.992C697.097 132.915 700.039 125.26 705.924 119.026C711.809 112.795 719.292 109.678 728.372 109.677C737.452 109.675 744.939 112.792 750.833 119.026C756.717 125.26 759.659 132.916 759.659 141.994C759.659 151.073 756.717 158.711 750.833 164.908Z" fill="white"/>
<path d="M952.373 107.42C948.191 102.283 942.88 98.1476 936.838 95.3255C930.671 92.411 923.912 90.9167 917.072 90.9558C908.815 90.9558 901.745 92.3786 895.862 95.2241C889.979 98.0696 884.421 102.067 879.188 107.218C874.953 102.228 869.696 98.1752 863.758 95.3255C857.737 92.414 851.181 90.9575 844.096 90.9558C838.11 90.9274 832.19 92.1933 826.755 94.664C821.318 97.141 817.362 99.7329 814.885 102.44V92.991H795.48V190.854H815.608V123.578C818.909 119.716 822.968 116.43 827.787 113.724C832.56 111.023 837.976 109.619 843.481 109.656C847.185 109.639 850.85 110.42 854.216 111.945C857.472 113.384 860.363 115.518 862.679 118.193C866.533 122.664 868.459 129.202 868.459 137.807V190.854H888.484V140.857C888.484 134.419 887.933 128.659 886.832 123.578C895.845 114.299 905.925 109.658 917.072 109.656C924.574 109.656 930.766 112.501 935.651 118.193C939.436 122.538 941.329 129.076 941.329 137.807V190.854H961.458V140.857C961.458 132.793 960.717 126.17 959.237 120.987C957.756 115.806 955.467 111.283 952.373 107.42Z" fill="white"/>
<path d="M1139.67 107.376C1135.49 102.24 1130.18 98.1057 1124.14 95.283C1117.97 92.3669 1111.21 90.8718 1104.37 90.9109C1096.11 90.9109 1089.04 92.3337 1083.16 95.1792C1077.28 98.0246 1071.72 102.023 1066.49 107.175C1062.25 102.185 1056.99 98.1327 1051.06 95.283C1045.03 92.3699 1038.48 90.9125 1031.39 90.9109C1025.41 90.8873 1019.5 92.1572 1014.07 94.6312C1008.63 97.1081 1004.67 99.6993 1002.2 102.405V92.9413H982.791V190.809H1002.92V123.533C1006.36 119.564 1010.49 116.228 1015.11 113.679C1019.88 110.978 1025.3 109.574 1030.8 109.611C1034.51 109.595 1038.17 110.375 1041.53 111.897C1044.79 113.337 1047.68 115.472 1050 118.148C1053.85 122.619 1055.78 129.157 1055.78 137.762V190.809H1075.8V140.812C1075.8 134.374 1075.25 128.614 1074.15 123.533C1083.16 114.254 1093.24 109.613 1104.39 109.611C1111.89 109.611 1118.09 112.456 1122.97 118.148C1126.76 122.493 1128.65 129.031 1128.65 137.762V190.809H1148.77V140.812C1148.77 132.748 1148.03 126.125 1146.55 120.944C1145.08 115.761 1142.78 111.238 1139.67 107.376Z" fill="white"/>
<path d="M1242.03 160.225C1238.6 164.197 1234.47 167.535 1229.85 170.085C1225.08 172.782 1219.66 174.185 1214.16 174.148C1210.43 174.163 1206.75 173.383 1203.37 171.862C1200.1 170.432 1197.19 168.296 1194.86 165.614C1191.09 161.279 1189.2 154.775 1189.2 146.1V92.9473H1169.17V142.945C1169.17 151.007 1169.92 157.648 1171.39 162.864C1172.88 168.08 1175.17 172.619 1178.26 176.482C1182.43 181.612 1187.75 185.732 1193.8 188.524C1199.96 191.406 1206.73 192.883 1213.56 192.843C1219.68 192.843 1225.34 191.691 1230.54 189.385C1235.73 187.081 1239.77 184.576 1242.66 181.87V190.803H1262.16V92.9473H1242.03V160.225Z" fill="white"/>
<path d="M1357.22 95.5363C1350.95 92.4611 1344.04 90.8767 1337.05 90.9107C1330.58 90.9107 1324.81 92.0462 1319.75 94.3172C1314.7 96.588 1310.52 99.2806 1307.22 102.395V92.9411H1287.82V190.808H1307.93V123.533C1315.64 114.254 1325.14 109.612 1336.43 109.611C1340.43 109.598 1344.38 110.485 1347.99 112.204C1351.49 113.814 1354.56 116.196 1356.96 119.165C1360.88 123.907 1362.85 131.495 1362.85 141.93V190.808H1382.97V142.943C1382.97 127.975 1379.71 116.388 1373.17 108.179C1368.86 102.858 1363.42 98.5405 1357.22 95.5363Z" fill="white"/>
<path d="M1422.92 92.9473H1402.79V190.81H1422.92V92.9473Z" fill="white"/>
<path d="M1412.68 45.0898C1408.97 45.0898 1405.86 46.3596 1403.34 48.8993C1400.82 51.439 1399.58 54.5388 1399.58 58.1987C1399.58 61.8554 1400.84 64.9206 1403.34 67.3942C1405.86 69.8679 1408.96 71.1048 1412.68 71.1048C1416.4 71.1048 1419.55 69.8679 1422.13 67.3942C1424.72 64.9206 1426 61.8554 1426 58.1987C1426 54.5405 1424.7 51.4407 1422.13 48.8993C1419.55 46.358 1416.4 45.0883 1412.68 45.0898Z" fill="white"/>
<path d="M1483.06 65.9199H1462.93V92.9464H1437.54V110.729H1462.93V155.448C1462.93 166.968 1465.61 175.639 1470.99 181.464C1477.73 189.053 1487.09 192.846 1499.06 192.846C1505.25 192.846 1510.48 192.17 1514.76 190.814L1510.72 172.93C1507.76 173.735 1504.12 174.137 1499.78 174.137C1497.07 174.145 1494.38 173.68 1491.84 172.766C1489.29 171.851 1487.33 170.581 1485.96 168.953C1484.03 166.787 1483.07 162.621 1483.07 156.456V110.734H1514.76V92.9464H1483.06V65.9199Z" fill="white"/>
<path d="M1606.47 92.9473L1577.88 157.478L1546.82 92.9473H1525.24L1567.76 180.649L1540.93 240.807H1562.29L1627.63 92.9473H1606.47Z" fill="white"/>
<path d="M567.062 218.564H545.904V364.29H632.604V344.474H567.062V218.564Z" fill="white"/>
<path d="M721.16 275.488C712.497 268.103 702.107 264.41 689.99 264.408C680.905 264.408 672.819 266.475 665.733 270.608C658.027 275.08 651.834 281.276 647.155 289.198C642.474 297.118 640.135 305.858 640.135 315.415C640.135 324.969 642.44 333.659 647.052 341.487C651.663 349.316 657.822 355.465 665.527 359.932C672.884 364.2 681.209 366.336 690.506 366.337C702.686 366.337 712.902 362.677 721.156 355.359V364.292H740.558V266.441H721.156L721.16 275.488ZM720.425 333.717C717.179 338.015 712.978 341.526 708.143 343.982C703.325 346.42 698.339 347.639 693.186 347.639C683.757 347.639 675.911 344.488 669.647 338.188C663.383 331.887 660.251 324.299 660.253 315.424C660.253 306.618 663.229 299.03 669.181 292.661C675.132 286.293 682.788 283.108 692.146 283.108C697.733 283.063 703.246 284.372 708.197 286.921C712.987 289.353 717.165 292.807 720.427 297.031L720.425 333.717Z" fill="white"/>
<path d="M841.025 270.604C833.939 266.472 825.854 264.406 816.77 264.405C805.001 264.405 794.851 267.927 786.321 274.973V216.551H766.195V364.298H785.61V355.365C793.868 362.682 804.085 366.34 816.26 366.342C825.548 366.342 833.875 364.207 841.238 359.938C848.942 355.467 855.101 349.319 859.711 341.493C864.323 333.668 866.629 324.977 866.629 315.42C866.629 305.866 864.289 297.127 859.609 289.202C854.929 281.278 848.734 275.078 841.025 270.604ZM837.102 338.184C830.84 344.485 822.993 347.634 813.563 347.634C808.351 347.621 803.219 346.366 798.605 343.977C793.769 341.523 789.567 338.012 786.321 333.713V297.017C789.584 292.792 793.764 289.339 798.554 286.907C803.505 284.357 809.016 283.048 814.602 283.094C823.959 283.094 831.615 286.279 837.568 292.647C843.522 299.016 846.498 306.604 846.498 315.41C846.501 324.294 843.37 331.886 837.102 338.184Z" fill="white"/>
<path d="M946.281 317.899C944.044 315.833 941.172 313.919 937.662 312.158C934.591 310.579 931.4 309.237 928.116 308.144C925.26 307.231 921.975 306.3 918.26 305.348C915.78 304.74 913.869 304.233 912.529 303.825C911.189 303.418 909.624 302.876 907.834 302.201C906.035 301.523 904.695 300.827 903.81 300.114C902.885 299.374 902.098 298.481 901.485 297.476C900.83 296.421 900.49 295.204 900.505 293.968C900.505 290.242 902.242 287.264 905.717 285.035C909.193 282.807 913.443 281.689 918.468 281.685C925.824 281.685 932.945 284.26 939.833 289.41L950.155 275.183C941.071 268.002 930.095 264.411 917.227 264.408C912.72 264.395 908.234 265.028 903.913 266.29C899.739 267.501 895.784 269.354 892.197 271.78C888.655 274.183 885.817 277.384 883.684 281.38C881.551 285.376 880.483 289.912 880.482 294.985C880.482 306.77 888.082 315.17 903.285 320.185C905.49 320.935 908.38 321.747 911.955 322.627C915.531 323.505 918.422 324.268 920.628 324.913C922.956 325.603 925.232 326.452 927.44 327.452C929.775 328.505 931.513 329.793 932.651 331.315C933.787 332.838 934.356 334.684 934.354 336.856C934.354 340.514 932.617 343.461 929.142 345.696C925.666 347.932 921.625 349.048 917.016 349.047C906.762 349.047 896.954 345.457 887.593 338.275L877.271 352.808C888.552 361.821 901.935 366.328 917.423 366.328C927.538 366.328 936.226 363.583 943.485 358.095C950.745 352.607 954.374 345.391 954.372 336.448C954.415 332.774 953.604 329.142 952.001 325.825C950.419 322.607 948.512 319.966 946.281 317.899Z" fill="white"/>
<path d="M17.7843 203.997C17.7843 115.53 90.8855 43.561 180.734 43.561H335.092C299.864 16.3053 255.478 0 207.194 0H207.12C92.7514 0.0410407 0.0416839 91.3204 0 203.929C0 203.952 0 203.977 0 204.001C0 312.822 86.5553 401.72 195.568 407.665C199.42 407.872 203.292 408 207.198 408C255.478 408 299.864 391.697 335.089 364.439H180.734C90.8855 364.439 17.7843 292.466 17.7843 203.997Z" fill="#6F3EFC"/>
<path d="M88.2628 203.99C88.2628 153.753 129.77 112.887 180.788 112.887H392.641C384.646 97.1647 374.626 82.5242 362.824 69.3281H207.25C131.837 69.3281 70.4785 129.738 70.4785 203.99C70.4785 278.242 131.837 338.661 207.25 338.661H362.82C374.619 325.464 384.639 310.821 392.631 295.097H180.779C129.768 295.097 88.2628 254.231 88.2628 203.99Z" fill="#6F3EFC"/>
<path d="M158.67 204.005C158.676 198.233 161.007 192.7 165.153 188.619C169.298 184.538 174.918 182.242 180.781 182.236H413.228C411.624 167.409 408.362 152.801 403.502 138.678H207.22C170.636 138.678 140.869 167.986 140.869 204.005C140.869 240.025 170.636 269.34 207.22 269.34H403.502C408.365 255.215 411.629 240.605 413.234 225.776H180.785C174.921 225.772 169.3 223.476 165.153 219.395C161.007 215.313 158.676 209.779 158.67 204.005Z" fill="#6F3EFC"/>
</svg>
