<svg width="620" height="28" viewBox="0 0 620 28" fill="none" xmlns="http://www.w3.org/2000/svg">
<path fill-rule="evenodd" clip-rule="evenodd" d="M561.689 14.8185C561.828 14.5776 561.95 14.3519 562.086 14.1344C564.403 10.4171 566.724 6.70164 569.04 2.98362C569.53 2.19647 570.05 1.42172 570.238 0.473214H575.758C575.661 0.922954 575.517 1.35772 575.48 1.8012C575.38 3.02924 575.265 4.26081 575.262 5.4913C575.245 11.5408 575.257 17.5906 575.271 23.6403C575.274 24.8311 575.389 26.0137 575.736 27.1626C575.755 27.224 575.754 27.2916 575.763 27.3667H570.446C570.558 26.8233 570.723 26.2994 570.765 25.7657C570.863 24.5365 570.948 23.3027 570.955 22.0703C570.983 17.4822 570.975 12.8939 570.986 8.30576C570.987 7.92219 571.027 7.53862 571.044 7.2407C567.881 12.2888 564.68 17.3973 561.436 22.5749C558.206 17.4641 555.019 12.4211 551.862 7.42439C551.882 7.8217 551.927 8.30113 551.928 8.78082C551.937 13.233 551.918 17.6855 551.953 22.1376C551.963 23.4812 552.1 24.825 552.21 26.166C552.243 26.5653 552.382 26.9558 552.476 27.3673H547.148C547.249 26.8857 547.384 26.4118 547.443 25.9287C547.537 25.1546 547.636 24.3746 547.638 23.5968C547.654 17.1392 547.652 10.6818 547.643 4.22419C547.641 2.99996 547.526 1.78336 547.159 0.604065C547.147 0.564033 547.142 0.521415 547.129 0.453743H547.587C549.208 0.453743 550.83 0.457555 552.451 0.449234C552.667 0.44816 552.796 0.505348 552.916 0.696654C555.46 4.75304 558.015 8.80261 560.559 12.8593C560.954 13.4883 561.303 14.146 561.689 14.8185Z" fill="white"/>
<path fill-rule="evenodd" clip-rule="evenodd" d="M598.927 22.516C598.681 24.1716 598.446 25.7572 598.207 27.3605H581.297C581.428 26.4513 581.592 25.5411 581.681 24.6235C581.752 23.8927 581.752 23.1531 581.752 22.4174C581.753 16.4587 581.748 10.5 581.74 4.54133C581.739 3.16924 581.639 1.80722 581.208 0.46875H597.751V5.0518C597.211 4.88242 596.692 4.69697 596.16 4.55672C594.805 4.19943 593.421 4.05878 592.021 4.05578C590.343 4.05211 588.665 4.04966 586.987 4.04802C586.91 4.04802 586.832 4.06082 586.732 4.06967V11.1305H595.517V15.353C592.626 14.5284 589.687 14.6982 586.734 14.6781V23.709C586.832 23.7184 586.919 23.7342 587.007 23.734C589.025 23.7282 591.043 23.7414 593.061 23.7078C594.978 23.676 596.839 23.3178 598.63 22.6199C598.702 22.5918 598.776 22.5688 598.927 22.516Z" fill="white"/>
<path fill-rule="evenodd" clip-rule="evenodd" d="M618.614 6.13299C617.655 5.61626 616.718 5.04451 615.727 4.593C614.096 3.85011 612.382 3.44299 610.575 3.73954C609.393 3.9333 608.388 4.43179 607.874 5.59964C607.305 6.89345 607.689 8.36549 608.834 9.37866C609.678 10.125 610.688 10.5878 611.693 11.0597C613.106 11.7227 614.546 12.3354 615.92 13.0708C617.424 13.8758 618.655 14.9962 619.377 16.5985C619.962 17.8988 620.101 19.2653 619.935 20.6523C619.496 24.3227 617.237 26.389 613.816 27.3035C610.892 28.0852 607.971 27.8461 605.108 26.9423C604.261 26.6751 603.463 26.2545 602.65 25.8876C602.55 25.8423 602.432 25.6949 602.431 25.5939C602.417 23.9872 602.421 22.3803 602.421 20.7024C602.674 20.8987 602.878 21.0651 603.09 21.2209C605.184 22.7594 607.496 23.7641 610.095 24.0339C611.024 24.1304 611.953 24.0752 612.843 23.7347C614.405 23.1371 615.021 21.7764 614.902 20.3132C614.769 18.6822 613.778 17.6147 612.441 16.8714C611.128 16.1417 609.751 15.5264 608.394 14.8765C607.249 14.3277 606.118 13.7594 605.121 12.9589C603.248 11.4556 602.459 9.49345 602.66 7.12179C602.908 4.1837 604.537 2.25307 607.152 1.07255C609.058 0.211876 611.077 -0.0614004 613.151 0.0193432C614.918 0.0881046 616.635 0.40114 618.269 1.10605C618.535 1.2207 618.638 1.35849 618.634 1.65696C618.617 3.0616 618.627 4.46637 618.626 5.87115C618.626 5.9794 618.616 6.08765 618.614 6.13299Z" fill="white"/>
<path fill-rule="evenodd" clip-rule="evenodd" d="M535.68 0.466797H541.72C541.122 2.45543 541.183 4.4856 541.182 6.50936C541.179 11.4695 541.18 16.4294 541.182 21.3893C541.183 23.3905 541.13 25.3974 541.725 27.3649H535.723C535.844 26.6882 536.012 26.0168 536.073 25.336C536.162 24.3338 536.21 23.3249 536.212 22.3188C536.224 16.702 536.219 11.0852 536.217 5.46841C536.216 4.02973 536.187 2.59214 535.869 1.17879C535.817 0.948671 535.748 0.722507 535.68 0.466797Z" fill="white"/>
<path fill-rule="evenodd" clip-rule="evenodd" d="M456.043 22.5152C455.803 24.1519 455.569 25.7477 455.333 27.3593H438.336C438.953 25.3184 438.875 23.2301 438.876 21.15C438.879 15.6784 438.88 10.2068 438.867 4.73532C438.864 3.30781 438.781 1.88383 438.336 0.478516H454.867V5.04999C454.329 4.88047 453.819 4.69761 453.297 4.55981C451.942 4.20184 450.558 4.05846 449.158 4.05533C447.468 4.05166 445.779 4.04921 444.089 4.04716C444.022 4.04716 443.955 4.05697 443.865 4.06391V11.1218H452.614V15.344C449.746 14.5288 446.817 14.6962 443.871 14.6759V23.6997C443.933 23.7094 444.007 23.7309 444.082 23.7306C446.157 23.7241 448.232 23.7401 450.307 23.6997C452.177 23.6632 453.994 23.3029 455.741 22.6198C455.823 22.5877 455.908 22.5618 456.043 22.5152Z" fill="white"/>
<path fill-rule="evenodd" clip-rule="evenodd" d="M480.191 20.8106C481.118 21.3879 482.006 22.0181 482.962 22.5218C484.838 23.5106 486.828 24.1374 488.982 24.0511C490.099 24.0063 491.141 23.7224 491.914 22.8427C493.002 21.6047 492.931 19.5021 491.774 18.1533C490.926 17.1646 489.8 16.581 488.657 16.0211C487.072 15.2456 485.459 14.5216 483.918 13.6677C482.514 12.8896 481.393 11.7747 480.829 10.2227C479.75 7.25602 480.549 3.44309 484.097 1.47897C486.137 0.350187 488.348 -0.0359671 490.647 0.0116893C492.518 0.0503591 494.339 0.363258 496.068 1.12372C496.312 1.23102 496.402 1.35669 496.399 1.62738C496.386 3.14422 496.393 4.66133 496.393 6.24066C496.273 6.16264 496.194 6.11444 496.119 6.06161C494.37 4.83357 492.472 3.96595 490.332 3.70316C489.402 3.58892 488.48 3.63345 487.576 3.92551C485.016 4.75269 484.858 7.61834 486.31 9.10005C486.939 9.74178 487.683 10.2125 488.485 10.5906C489.723 11.1748 490.997 11.686 492.216 12.305C493.181 12.7948 494.144 13.325 495.009 13.9693C496.934 15.4035 497.793 17.3873 497.751 19.7773C497.687 23.4905 495.568 26.1982 491.838 27.2387C488.824 28.0793 485.821 27.8669 482.866 26.9387C482.019 26.6729 481.22 26.2528 480.41 25.8802C480.302 25.8305 480.194 25.6438 480.193 25.5195C480.178 23.9791 480.183 22.4384 480.184 20.8979C480.184 20.8547 480.191 20.8106 480.191 20.8106Z" fill="white"/>
<path fill-rule="evenodd" clip-rule="evenodd" d="M459.567 20.7482C460.096 21.123 460.585 21.5033 461.106 21.8339C462.966 23.0146 464.973 23.8252 467.182 24.0178C467.916 24.0818 468.687 24.0415 469.408 23.8875C471.331 23.4761 472.332 21.8826 471.979 19.9405C471.796 18.934 471.255 18.1494 470.481 17.5076C469.44 16.6439 468.204 16.1263 467.002 15.5445C465.74 14.9336 464.466 14.3384 463.245 13.6519C462.075 12.9938 461.105 12.084 460.476 10.8711C459.096 8.21142 459.557 4.18513 462.65 1.99212C463.988 1.04335 465.485 0.50088 467.091 0.229647C469.782 -0.225132 472.416 -0.0128565 474.98 0.941634C475.762 1.23288 475.757 1.24759 475.757 2.08798V5.86005V6.24784C475.614 6.15239 475.515 6.08812 475.418 6.02045C473.684 4.81175 471.802 3.9606 469.686 3.70149C468.756 3.58766 467.834 3.63191 466.93 3.92547C464.373 4.75606 464.227 7.60223 465.646 9.07945C466.261 9.71873 466.995 10.187 467.786 10.5614C469.043 11.1574 470.32 11.7127 471.584 12.2948C472.73 12.8224 473.82 13.4434 474.773 14.2816C476.165 15.5075 476.936 17.057 477.083 18.8968C477.255 21.0411 476.798 23.0175 475.365 24.691C474.187 26.0656 472.659 26.8722 470.932 27.3106C468.162 28.014 465.399 27.8633 462.677 27.0714C461.717 26.792 460.809 26.3352 459.877 25.9585C459.628 25.8581 459.541 25.6879 459.544 25.4064C459.561 23.968 459.551 22.5293 459.552 21.0906C459.552 20.9824 459.561 20.8741 459.567 20.7482Z" fill="white"/>
<path fill-rule="evenodd" clip-rule="evenodd" d="M523.672 27.368H517.591C517.687 26.9252 517.829 26.5022 517.864 26.0705C517.968 24.7859 518.092 23.4982 518.098 22.2112C518.122 16.2874 518.108 10.3634 518.108 4.43941V4.06183C515.22 4.02153 512.356 3.94051 509.6 5.08821V0.482422H531.608V5.07773C528.878 3.94514 526.016 4.02098 523.14 4.06006C523.13 4.15646 523.114 4.23244 523.114 4.30828C523.117 10.6401 523.113 16.9717 523.13 23.3033C523.133 24.6614 523.224 26.0172 523.672 27.368Z" fill="white"/>
<path fill-rule="evenodd" clip-rule="evenodd" d="M427.618 0.483665H432.915C432.268 2.58749 432.372 4.73271 432.371 6.86745C432.366 13.5591 432.369 20.2506 432.369 26.9423V27.3614C432.241 27.369 432.142 27.3797 432.043 27.38C431.261 27.3814 430.475 27.336 429.697 27.395C429.078 27.4418 428.705 27.221 428.324 26.7373C423.954 21.1848 419.555 15.6548 415.176 10.11C414.742 9.5614 414.382 8.95507 413.988 8.37571C413.939 8.30422 413.889 8.23396 413.903 8.17678C413.91 11.5479 413.911 14.9189 413.927 18.2899C413.937 20.4291 413.937 22.5694 414.011 24.7068C414.042 25.5906 414.255 26.468 414.387 27.3605H409.167C409.281 26.7911 409.447 26.2333 409.494 25.6655C409.59 24.5164 409.669 23.362 409.672 22.2096C409.689 16.2427 409.682 10.2757 409.671 4.30884C409.671 4.1027 409.586 3.86387 409.464 3.69598C408.691 2.63556 407.897 1.59079 407.076 0.49483C407.213 0.482304 407.305 0.466509 407.397 0.466373C409.336 0.465011 411.274 0.470321 413.213 0.459002C413.46 0.457522 413.6 0.549567 413.745 0.732568C417.402 5.37553 421.076 10.0062 424.721 14.6591C425.865 16.1188 426.934 17.6369 428.037 19.1274C428.055 19.1507 428.084 19.1651 428.144 19.2117C428.144 19.057 428.144 18.9386 428.143 18.8201C428.124 14.8464 428.108 10.8726 428.082 6.89904C428.073 5.59761 428.076 4.29387 427.995 2.99611C427.943 2.15654 427.749 1.32582 427.618 0.483665Z" fill="white"/>
<path fill-rule="evenodd" clip-rule="evenodd" d="M365.949 0.476562H371.148C371.028 1.14811 370.859 1.80645 370.802 2.47445C370.714 3.52208 370.667 4.57597 370.662 5.62754C370.645 9.4323 370.669 13.2374 370.646 17.0422C370.635 18.7486 370.365 20.422 369.731 22.0186C368.66 24.7153 366.72 26.4857 363.922 27.2352C360.999 28.018 358.063 27.9853 355.191 26.9806C352.414 26.0094 350.779 23.9615 349.982 21.1925C349.547 19.6821 349.375 18.1314 349.37 16.5655C349.356 12.6586 349.367 8.75176 349.355 4.84489C349.35 3.38374 349.273 1.92654 348.823 0.48909H354.811C354.693 1.17126 354.533 1.85342 354.467 2.54458C354.381 3.44474 354.337 4.35185 354.333 5.25609C354.32 8.90236 354.32 12.5489 354.335 16.1951C354.34 17.4421 354.46 18.6805 354.804 19.8888C355.483 22.2786 357.207 23.6745 359.688 23.8674C360.646 23.9419 361.594 23.9268 362.525 23.6926C364.325 23.2399 365.418 22.0558 365.964 20.318C366.389 18.9617 366.479 17.5596 366.487 16.1566C366.508 12.3858 366.502 8.61478 366.486 4.8438C366.48 3.38401 366.406 1.92586 365.949 0.476562Z" fill="white"/>
<path fill-rule="evenodd" clip-rule="evenodd" d="M375.54 20.6931C376.731 21.7029 377.98 22.4485 379.333 23.0182C380.934 23.6926 382.589 24.1395 384.345 24.0535C385.473 23.9983 386.527 23.7136 387.291 22.8062C388.329 21.5756 388.266 19.5675 387.171 18.2194C386.445 17.326 385.478 16.7554 384.47 16.2592C383.272 15.67 382.049 15.132 380.843 14.5589C379.807 14.0664 378.822 13.4887 377.953 12.7296C376.413 11.3841 375.697 9.67876 375.745 7.64928C375.819 4.4887 377.436 2.36717 380.25 1.08903C382.153 0.224536 384.173 -0.0494213 386.248 0.0309139C388.038 0.10022 389.776 0.414752 391.428 1.14104C391.673 1.24834 391.756 1.37605 391.754 1.64525C391.739 3.16167 391.747 4.67824 391.747 6.26656C391.617 6.17683 391.53 6.11801 391.444 6.05782C389.705 4.83768 387.816 3.97755 385.688 3.71408C384.759 3.59902 383.837 3.64232 382.932 3.93262C380.351 4.76007 380.214 7.63117 381.649 9.10321C382.267 9.73772 383.002 10.2052 383.792 10.5789C385.05 11.174 386.327 11.7271 387.59 12.3102C388.735 12.8389 389.825 13.4617 390.776 14.3016C392.186 15.5479 392.949 17.1254 393.08 18.9889C393.237 21.225 392.708 23.2566 391.135 24.935C389.865 26.2903 388.261 27.0652 386.474 27.4209C382.922 28.1282 379.494 27.6898 376.204 26.1561C375.697 25.9201 375.499 25.6305 375.523 25.0504C375.577 23.7505 375.54 22.4468 375.54 21.1446V20.6931Z" fill="white"/>
<path fill-rule="evenodd" clip-rule="evenodd" d="M397.242 0.482422H403.267C403.168 0.9131 403.022 1.33193 402.985 1.76002C402.88 2.96423 402.758 4.17225 402.755 5.37905C402.737 11.4129 402.753 17.447 402.764 23.481C402.767 24.7845 402.883 26.0765 403.298 27.3556H397.253C397.347 26.9481 397.488 26.5491 397.523 26.141C397.634 24.8466 397.773 23.5491 397.78 22.2521C397.808 16.6823 397.799 11.1122 397.787 5.54245C397.784 4.05012 397.768 2.55411 397.401 1.09106C397.353 0.895535 397.3 0.700961 397.242 0.482422Z" fill="white"/>
<path fill-rule="evenodd" clip-rule="evenodd" d="M330.608 11.4386C331.103 11.4386 331.555 11.4389 332.007 11.4386C333.162 11.4379 334.319 11.433 335.449 11.1517C336.541 10.8802 337.456 10.3636 337.866 9.2389C338.188 8.35576 338.227 7.44388 337.985 6.53732C337.65 5.27906 336.715 4.66388 335.524 4.37018C333.925 3.97572 332.293 4.00418 330.663 4.03713C330.646 4.0374 330.629 4.06259 330.608 4.07988V11.4386ZM330.609 23.7586C331.944 23.7586 333.236 23.7911 334.525 23.7454C335.198 23.7214 335.878 23.6109 336.533 23.4501C337.897 23.1151 338.971 22.3779 339.369 20.9601C339.54 20.3499 339.61 19.6891 339.596 19.0542C339.552 17.0141 338.505 15.7676 336.527 15.3015C334.596 14.8464 332.632 14.9724 330.675 14.9732C330.656 14.9732 330.638 14.9939 330.609 15.0112V23.7586ZM325.168 27.3899C325.301 26.5017 325.468 25.648 325.547 24.7862C325.625 23.9195 325.639 23.045 325.641 22.1738C325.648 16.6695 325.651 11.1652 325.64 5.66085C325.637 4.14592 325.644 2.62568 325.269 1.13934C325.217 0.932242 325.16 0.726502 325.093 0.476101C325.228 0.476101 325.337 0.476101 325.446 0.476101C328.019 0.476918 330.593 0.469566 333.167 0.481548C334.937 0.489854 336.711 0.542684 338.421 1.0439C339.173 1.2642 339.911 1.58609 340.594 1.96993C341.639 2.55692 342.327 3.48922 342.715 4.61704C343.203 6.03584 343.326 7.49699 343 8.96508C342.589 10.8172 341.386 12.0015 339.673 12.7204C339.573 12.7625 339.475 12.8076 339.376 12.8506C340.015 13.0706 340.657 13.241 341.256 13.5081C343.228 14.3876 344.346 15.9163 344.6 18.0635C344.794 19.7089 344.665 21.3224 344.014 22.8595C343.185 24.8156 341.641 25.9805 339.677 26.6458C338.027 27.2046 336.312 27.3706 334.587 27.3862C331.492 27.4144 328.396 27.3957 325.301 27.3963C325.245 27.3963 325.19 27.391 325.168 27.3899Z" fill="white"/>
<path fill-rule="evenodd" clip-rule="evenodd" d="M276.732 5.84343C275.388 9.56607 274.053 13.2669 272.709 16.9923H280.849C279.475 13.2718 278.111 9.57724 276.732 5.84343ZM269.545 27.3825H263.714C263.722 27.3372 263.717 27.2993 263.733 27.2768C265.058 25.4587 265.956 23.421 266.772 21.3447C268.985 15.7178 271.197 10.0907 273.379 4.45213C273.732 3.54067 273.958 2.57651 274.189 1.62379C274.274 1.27426 274.203 0.886886 274.203 0.474862C274.302 0.474862 274.423 0.474862 274.545 0.474862C275.985 0.474862 277.425 0.481534 278.865 0.468809C279.129 0.46642 279.255 0.536407 279.36 0.794704C282.157 7.68528 284.96 14.5741 287.778 21.4566C288.609 23.4854 289.525 25.4761 290.718 27.37H284.046C284.01 26.9786 283.985 26.5766 283.934 26.178C283.729 24.6044 283.13 23.1465 282.592 21.6713C282.538 21.5228 282.475 21.3774 282.42 21.2291C282.181 20.587 282.182 20.5867 281.484 20.5867C278.252 20.5867 275.021 20.59 271.79 20.581C271.514 20.5801 271.381 20.651 271.282 20.9261C270.686 22.5848 270.027 24.2238 269.723 25.9713C269.643 26.4261 269.606 26.8881 269.545 27.3825Z" fill="white"/>
<path fill-rule="evenodd" clip-rule="evenodd" d="M294.128 0.492188H300.158C300.066 0.906934 299.93 1.30425 299.895 1.71042C299.785 2.97155 299.644 4.23553 299.638 5.49911C299.611 11.4567 299.626 17.4145 299.626 23.3721C299.626 23.4829 299.636 23.5936 299.641 23.7208C299.734 23.7325 299.809 23.7504 299.885 23.7502C301.767 23.7435 303.65 23.7583 305.531 23.7199C307.436 23.6809 309.286 23.3217 311.063 22.618C311.136 22.5891 311.212 22.5671 311.319 22.5306C311.093 24.1615 310.871 25.7694 310.647 27.3845H294.161C294.28 26.7913 294.448 26.2127 294.501 25.6235C294.594 24.565 294.662 23.5003 294.664 22.438C294.674 16.4124 294.663 10.3869 294.654 4.36121C294.652 3.05706 294.531 1.7653 294.128 0.492188Z" fill="white"/>
<path fill-rule="evenodd" clip-rule="evenodd" d="M241.727 27.4034H236.437C236.555 26.7546 236.709 26.1171 236.779 25.4707C236.863 24.6843 236.913 23.8904 236.915 23.0996C236.927 16.8262 236.925 10.5529 236.917 4.27955C236.917 4.10444 236.846 3.90102 236.742 3.759C235.96 2.69068 235.162 1.63434 234.335 0.528578C234.469 0.516459 234.561 0.500801 234.652 0.500664C236.603 0.499303 238.553 0.505566 240.503 0.492205C240.749 0.490588 240.871 0.603466 241.001 0.768494C244.037 4.61927 247.076 8.46746 250.112 12.3184C251.486 14.0614 252.862 15.8029 254.22 17.5588C254.63 18.0902 254.981 18.6678 255.397 19.2795C255.404 19.1779 255.41 19.1391 255.41 19.1003C255.387 14.4467 255.368 9.79312 255.338 5.13968C255.332 4.35934 255.313 3.57546 255.233 2.80015C255.154 2.04037 254.991 1.28931 254.863 0.519999H260.134C260.034 1.01059 259.896 1.49668 259.843 1.99176C259.747 2.89029 259.647 3.79413 259.645 4.69593C259.628 12.1017 259.633 19.5074 259.632 26.9132C259.632 27.06 259.632 27.2069 259.632 27.3896C259.525 27.3985 259.429 27.4133 259.333 27.4136C258.346 27.4152 257.36 27.4227 256.374 27.4056C256.231 27.4031 256.044 27.3169 255.956 27.2068C251.412 21.488 246.873 15.7649 242.344 10.0336C241.891 9.46021 241.507 8.83291 241.072 8.20358C241.092 8.44921 241.126 8.67647 241.128 8.90413C241.151 11.1343 241.176 13.3646 241.186 15.5949C241.195 17.6557 241.186 19.7168 241.189 21.7778C241.191 23.6553 241.144 25.538 241.727 27.4034Z" fill="white"/>
<path fill-rule="evenodd" clip-rule="evenodd" d="M208.057 13.3497C208.058 14.4639 208.185 15.5614 208.474 16.6387C209.569 20.7212 212.62 23.4122 216.54 23.8575C220.352 24.2907 223.798 22.382 225.301 18.8711C226.507 16.0531 226.458 13.1771 225.472 10.3238C224.099 6.34628 220.801 3.94766 216.72 3.89973C213.842 3.86597 211.489 4.95403 209.808 7.32501C208.534 9.12288 208.063 11.174 208.057 13.3497ZM231.383 13.5854C231.286 16.556 230.607 19.3351 228.938 21.8172C227.041 24.6397 224.388 26.4242 221.108 27.2395C217.384 28.165 213.706 28.0099 210.176 26.4059C206.635 24.7971 204.377 22.0533 203.402 18.3068C202.488 14.79 202.711 11.3161 204.22 7.99369C205.951 4.18295 208.939 1.77739 212.945 0.662777C216.244 -0.255495 219.564 -0.225948 222.808 0.921075C227.306 2.51116 229.994 5.72647 230.976 10.3606C231.2 11.4169 231.252 12.5095 231.383 13.5854Z" fill="white"/>
<path fill-rule="evenodd" clip-rule="evenodd" d="M174.664 4.05446C173.179 4.09627 171.751 4.11152 170.327 4.18341C168.906 4.25503 167.532 4.58563 166.174 5.1153V0.527344H188.174V5.11271C186.816 4.59666 185.427 4.25054 183.988 4.1815C182.565 4.11342 181.14 4.09667 179.696 4.05692C179.683 4.22303 179.668 4.32107 179.669 4.4191C179.677 10.952 179.682 17.4851 179.703 24.018C179.706 25.1507 179.869 26.2697 180.217 27.3883H174.154C174.259 26.8698 174.396 26.3496 174.465 25.8207C174.556 25.1265 174.644 24.4257 174.646 23.7275C174.663 17.2963 174.661 10.8651 174.664 4.43395C174.664 4.33482 174.664 4.23583 174.664 4.05446Z" fill="white"/>
<path fill-rule="evenodd" clip-rule="evenodd" d="M192.221 0.513672H198.212C198.091 1.24377 197.929 1.9612 197.863 2.68735C197.777 3.62114 197.734 4.56175 197.732 5.49949C197.721 11.125 197.725 16.7505 197.728 22.376C197.729 23.8026 197.762 25.2279 198.072 26.6298C198.127 26.8814 198.2 27.1293 198.271 27.399H192.225C192.894 25.1967 192.757 22.9373 192.761 20.6918C192.771 15.4625 192.766 10.2333 192.758 5.00386C192.756 3.49805 192.693 1.99606 192.221 0.513672Z" fill="white"/>
<path fill-rule="evenodd" clip-rule="evenodd" d="M130.948 0.534279H136.23C136.117 1.11732 135.95 1.68634 135.907 2.26475C135.816 3.47114 135.747 4.68257 135.745 5.89195C135.731 12.9131 135.738 19.9341 135.738 26.9553V27.4096C135.62 27.4197 135.533 27.4335 135.447 27.4336C134.46 27.4351 133.474 27.4438 132.488 27.4248C132.336 27.4218 132.138 27.3269 132.044 27.2089C128.822 23.1592 125.609 19.1016 122.395 15.045C121.073 13.3762 119.743 11.7139 118.434 10.0344C117.999 9.47517 117.62 8.87143 117.199 8.26483C117.194 8.30745 117.185 8.34367 117.186 8.37962C117.214 9.8394 117.261 11.299 117.27 12.7588C117.296 16.5975 117.28 20.4366 117.339 24.2747C117.355 25.3149 117.58 26.3521 117.712 27.4076H112.548C112.667 26.7042 112.831 25.9979 112.897 25.2827C112.984 24.3374 113.031 23.3851 113.032 22.4358C113.044 16.3999 113.04 10.3642 113.03 4.32827C113.03 4.1435 112.953 3.92959 112.843 3.77914C112.109 2.77304 111.357 1.78056 110.611 0.783046C110.559 0.714148 110.514 0.640757 110.44 0.532917C110.584 0.525837 110.681 0.517123 110.778 0.516987C112.717 0.51617 114.656 0.511676 116.595 0.525292C116.747 0.526382 116.951 0.612436 117.043 0.728581C121.386 6.2167 125.724 11.7093 130.049 17.2113C130.564 17.8651 131.007 18.5747 131.479 19.2522C131.479 19.0325 131.479 18.8036 131.479 18.5747C131.468 14.3395 131.469 10.1044 131.439 5.86935C131.431 4.65969 131.359 3.44881 131.266 2.24242C131.222 1.67381 131.06 1.11432 130.948 0.534279Z" fill="white"/>
<path fill-rule="evenodd" clip-rule="evenodd" d="M93.0368 4.09303V13.4959C93.9724 13.4959 94.8909 13.5462 95.8013 13.4812C96.6426 13.4212 97.4943 13.3098 98.3073 13.0933C99.8266 12.6888 100.84 11.7117 101.166 10.1412C101.287 9.56004 101.337 8.95086 101.32 8.35733C101.258 6.20571 100.157 4.87174 98.0543 4.40362C97.3402 4.24472 96.6046 4.14464 95.8741 4.10529C94.939 4.05491 93.9992 4.09303 93.0368 4.09303ZM93.5588 27.4244H87.4911C87.597 26.9025 87.736 26.3922 87.7976 25.8727C87.8907 25.0869 87.982 24.2949 87.9837 23.5053C87.9983 17.1295 88.0003 10.7539 87.9845 4.37829C87.9813 3.08871 87.8696 1.80144 87.458 0.534866C87.5792 0.527922 87.6768 0.517574 87.7746 0.517574C90.5976 0.518255 93.4209 0.503413 96.2438 0.527514C98.0177 0.542628 99.7659 0.769064 101.457 1.34516C104.74 2.46386 106.52 5.04439 106.417 8.5097C106.365 10.2515 105.991 11.8907 105.021 13.3655C104.17 14.6604 103.032 15.6112 101.608 16.2227C101.527 16.2573 101.448 16.2958 101.317 16.3565C103.963 20.0278 106.217 23.9403 109.192 27.435H108.792C106.955 27.435 105.118 27.4283 103.281 27.4421C102.998 27.4441 102.839 27.361 102.688 27.1174C100.654 23.8383 98.6048 20.5683 96.5694 17.2899C96.4174 17.0451 96.2597 16.9736 95.9707 16.9891C95.1338 17.0341 94.2945 17.0322 93.456 17.0477C93.3233 17.0503 93.1903 17.0481 93.016 17.0481C93.016 17.207 93.0157 17.3279 93.016 17.449C93.0207 19.5439 93.0138 21.639 93.0349 23.7339C93.0473 24.9689 93.1672 26.1949 93.5588 27.4244Z" fill="white"/>
<path fill-rule="evenodd" clip-rule="evenodd" d="M156.872 17.0342C155.496 13.3079 154.13 9.60774 152.754 5.88386C151.41 9.60923 150.075 13.3091 148.731 17.0342H156.872ZM166.745 27.415H160.142C159.967 26.4664 159.872 25.5258 159.61 24.6342C159.232 23.3461 158.727 22.0956 158.29 20.8241C158.21 20.5912 158.05 20.6267 157.885 20.6267C155.221 20.6259 152.556 20.626 149.892 20.626C149.155 20.6262 148.417 20.6192 147.681 20.6343C147.577 20.6365 147.415 20.7231 147.382 20.8094C146.723 22.5417 146.045 24.2698 145.723 26.1065C145.649 26.5274 145.625 26.9568 145.575 27.4084H139.741C139.745 27.3817 139.74 27.3437 139.756 27.3215C141.076 25.501 141.977 23.4647 142.795 21.3893C144.912 16.0163 147.03 10.6434 149.113 5.25684C149.555 4.11295 149.876 2.91895 150.197 1.73312C150.296 1.36712 150.212 0.951696 150.212 0.516116H150.526C151.989 0.516116 153.451 0.522652 154.914 0.509808C155.169 0.507674 155.281 0.586103 155.378 0.825474C158.22 7.81994 161.064 14.8137 163.928 21.7992C164.717 23.7234 165.601 25.6063 166.745 27.415Z" fill="white"/>
<path fill-rule="evenodd" clip-rule="evenodd" d="M16.6785 8.38699C16.6785 8.98624 16.6783 9.6729 16.6785 10.3596C16.6794 14.4941 16.6741 18.6285 16.6849 22.7629C16.689 24.3026 16.7343 25.8418 17.2054 27.3306C17.2148 27.3604 17.2026 27.397 17.1996 27.4433H11.9297C12.0382 26.8955 12.1819 26.3606 12.2433 25.8163C12.3385 24.9739 12.4294 24.1255 12.4319 23.2794C12.4494 16.9475 12.446 10.6157 12.4405 4.28377C12.4403 4.12991 12.3716 3.95209 12.2791 3.82641C11.5346 2.81364 10.7764 1.81095 10.0232 0.80458C9.97077 0.734593 9.92447 0.659841 9.84863 0.547916C9.98643 0.540563 10.0821 0.531168 10.178 0.531032C12.1168 0.530215 14.0556 0.532394 15.9944 0.52735C16.1871 0.526811 16.3258 0.562077 16.4568 0.728466C20.7869 6.22843 25.127 11.7205 29.453 17.2236C29.9677 17.8784 30.4108 18.5892 30.8896 19.2779C30.8896 19.065 30.8903 18.848 30.8895 18.631C30.8762 14.8253 30.8695 11.0195 30.8457 7.21383C30.8368 5.79898 30.8243 4.38222 30.7437 2.97023C30.6976 2.16361 30.5112 1.36502 30.3861 0.549822H35.6573C35.5638 0.960485 35.4213 1.35794 35.3902 1.76397C35.2855 3.12817 35.1556 4.49523 35.1511 5.86161C35.1275 12.9072 35.14 19.9527 35.14 26.9982V27.4557C33.9759 27.4557 32.8548 27.4631 31.7342 27.4441C31.6245 27.4424 31.497 27.2954 31.4122 27.1887C29.256 24.4753 27.1038 21.7586 24.9519 19.0415C22.5751 16.0404 20.194 13.0424 17.8275 10.0329C17.3956 9.48364 17.0249 8.8863 16.6785 8.38699Z" fill="white"/>
<path fill-rule="evenodd" clip-rule="evenodd" d="M82.35 5.13523C81.8707 4.97933 81.4267 4.8177 80.9729 4.69039C79.5564 4.29307 78.1067 4.13594 76.6386 4.13158C74.9606 4.12655 73.2825 4.12491 71.6045 4.12342C71.517 4.12328 71.4295 4.13798 71.3257 4.14724V11.191H80.1066V15.4248C77.2304 14.6043 74.2912 14.7723 71.3355 14.7523V23.7791C71.4074 23.7888 71.4823 23.8077 71.5571 23.8075C73.6206 23.801 75.6845 23.8161 77.7475 23.7777C79.6295 23.7426 81.4574 23.3834 83.2153 22.6966C83.2782 22.672 83.3417 22.6485 83.4064 22.6293C83.4243 22.6239 83.4475 22.6359 83.513 22.6483C83.2772 24.2415 83.0413 25.8359 82.8039 27.4405H65.826C65.9275 26.991 66.0709 26.5513 66.1192 26.1013C66.2193 25.1685 66.3264 24.2303 66.3297 23.2941C66.3507 17.2906 66.3467 11.287 66.3451 5.28351C66.3447 3.68906 66.3071 2.09638 65.8037 0.541016H82.35V5.13523Z" fill="white"/>
<path fill-rule="evenodd" clip-rule="evenodd" d="M53.2703 4.13364C53.2629 4.25646 53.253 4.34469 53.253 4.43292C53.2603 10.9695 53.262 17.506 53.2828 24.0426C53.2862 25.1181 53.4213 26.1862 53.7429 27.2217C53.7625 27.2849 53.7731 27.3509 53.7929 27.4374H47.7308C47.8372 26.916 47.9718 26.4035 48.0403 25.8824C48.1317 25.1881 48.2232 24.4872 48.2251 23.7888C48.2421 17.3429 48.2398 10.8969 48.2431 4.4509C48.2431 4.36157 48.2431 4.27225 48.2431 4.13745C45.359 4.09633 42.4965 4.01613 39.7451 5.15907V0.552734H61.7587V5.16138C59.0243 4.01886 56.1649 4.10014 53.2703 4.13364Z" fill="white"/>
<path fill-rule="evenodd" clip-rule="evenodd" d="M6.05618 27.4427H0C0.636145 25.3314 0.537292 23.1748 0.540424 21.0285C0.547641 16.0463 0.546007 11.0638 0.539743 6.08156C0.538518 5.15362 0.540288 4.22228 0.464718 3.29883C0.389285 2.37947 0.218266 1.46787 0.0883687 0.546875H6.04447C5.50391 2.33617 5.50691 4.15937 5.5065 5.98175C5.50527 10.9301 5.50364 15.8785 5.50786 20.8267C5.50881 21.9362 5.52079 23.0458 5.55034 24.1547C5.58002 25.264 5.71033 26.362 6.05618 27.4427Z" fill="white"/>
</svg>
