<svg width="984" height="208" viewBox="0 0 984 208" fill="none" xmlns="http://www.w3.org/2000/svg">
<path d="M248.187 158V46.209H269.746V141.231H318.775V158H248.187ZM330.106 158V78.7881H351.666V158H330.106ZM340.966 68.7269C337.026 68.7269 333.779 67.609 331.224 65.3732C328.775 63.0309 327.551 60.103 327.551 56.5896C327.551 53.0762 328.775 50.1483 331.224 47.806C333.779 45.4637 337.026 44.2926 340.966 44.2926C344.905 44.2926 348.099 45.4637 350.548 47.806C352.996 50.1483 354.221 53.0762 354.221 56.5896C354.221 59.9966 352.996 62.8712 350.548 65.2135C348.099 67.5558 344.905 68.7269 340.966 68.7269ZM429.292 189.94V147.779C426.63 151.08 423.01 153.954 418.432 156.403C413.96 158.745 408.637 159.916 402.462 159.916C394.69 159.916 387.982 158.16 382.339 154.646C376.697 151.026 372.332 146.076 369.244 139.794C366.156 133.512 364.613 126.379 364.613 118.394C364.613 110.409 366.156 103.276 369.244 96.9941C372.332 90.7125 376.643 85.815 382.18 82.3015C387.716 78.6816 394.211 76.8717 401.663 76.8717C406.135 76.8717 410.181 77.5105 413.801 78.7881C417.421 80.0657 420.668 81.8757 423.542 84.2179C426.417 86.5602 428.866 89.3816 430.889 92.6821H431.528L432.645 78.7881H450.851V189.94H429.292ZM408.051 142.349C412.417 142.349 416.196 141.338 419.39 139.315C422.691 137.292 425.193 134.524 426.896 131.01C428.706 127.391 429.611 123.185 429.611 118.394C429.611 113.709 428.706 109.61 426.896 106.097C425.193 102.477 422.691 99.6557 419.39 97.6329C416.09 95.61 412.257 94.5985 407.892 94.5985C403.633 94.5985 399.853 95.61 396.553 97.6329C393.359 99.6557 390.857 102.477 389.047 106.097C387.343 109.717 386.492 113.816 386.492 118.394C386.492 123.185 387.343 127.391 389.047 131.01C390.857 134.524 393.359 137.292 396.553 139.315C399.853 141.338 403.686 142.349 408.051 142.349ZM494.506 159.916C488.012 159.916 482.475 158.532 477.897 155.764C473.319 152.996 469.806 148.897 467.357 143.467C464.908 137.931 463.684 131.17 463.684 123.185V78.7881H485.084V121.269C485.084 127.87 486.415 132.927 489.076 136.44C491.844 139.954 496.103 141.71 501.852 141.71C505.579 141.71 508.826 140.859 511.594 139.155C514.469 137.345 516.705 134.79 518.302 131.49C519.899 128.189 520.697 124.25 520.697 119.672V78.7881H542.257V158H523.891L521.975 145.384H521.336C518.887 149.855 515.427 153.422 510.955 156.084C506.59 158.639 501.107 159.916 494.506 159.916ZM557.649 158V78.7881H579.209V158H557.649ZM568.509 68.7269C564.57 68.7269 561.322 67.609 558.767 65.3732C556.318 63.0309 555.094 60.103 555.094 56.5896C555.094 53.0762 556.318 50.1483 558.767 47.806C561.322 45.4637 564.57 44.2926 568.509 44.2926C572.448 44.2926 575.642 45.4637 578.091 47.806C580.54 50.1483 581.764 53.0762 581.764 56.5896C581.764 59.9966 580.54 62.8712 578.091 65.2135C575.642 67.5558 572.448 68.7269 568.509 68.7269ZM629.207 159.916C621.754 159.916 615.259 158.16 609.723 154.646C604.187 151.026 599.875 146.076 596.787 139.794C593.7 133.512 592.156 126.379 592.156 118.394C592.156 110.409 593.7 103.276 596.787 96.9941C599.875 90.7125 604.24 85.815 609.883 82.3015C615.526 78.6816 622.233 76.8717 630.005 76.8717C636.18 76.8717 641.504 78.0961 645.975 80.5448C650.553 82.8871 654.173 85.7085 656.835 89.009V46.209H678.395V158H660.189L659.071 144.106H658.432C656.409 147.406 653.96 150.228 651.086 152.57C648.211 154.912 644.964 156.722 641.344 158C637.724 159.278 633.678 159.916 629.207 159.916ZM635.595 142.19C639.96 142.19 643.74 141.178 646.934 139.155C650.234 137.132 652.736 134.364 654.44 130.851C656.249 127.231 657.154 123.025 657.154 118.234C657.154 113.55 656.249 109.451 654.44 105.937C652.736 102.317 650.234 99.496 646.934 97.4732C643.633 95.4503 639.8 94.4388 635.435 94.4388C631.176 94.4388 627.397 95.4503 624.096 97.4732C620.902 99.496 618.4 102.317 616.59 105.937C614.887 109.451 614.035 113.55 614.035 118.234C614.035 123.025 614.887 127.231 616.59 130.851C618.4 134.364 620.902 137.132 624.096 139.155C627.397 141.178 631.23 142.19 635.595 142.19ZM747.282 159.916C736.21 159.916 726.468 157.468 718.057 152.57C709.752 147.673 703.205 140.912 698.414 132.288C693.623 123.558 691.227 113.497 691.227 102.105C691.227 90.7125 693.623 80.7045 698.414 72.0806C703.205 63.3503 709.752 56.5364 718.057 51.6389C726.468 46.7413 736.21 44.2926 747.282 44.2926C758.461 44.2926 768.256 46.7413 776.667 51.6389C785.185 56.5364 791.786 63.3503 796.47 72.0806C801.155 80.7045 803.497 90.7125 803.497 102.105C803.497 113.497 801.155 123.558 796.47 132.288C791.786 140.912 785.185 147.673 776.667 152.57C768.256 157.468 758.461 159.916 747.282 159.916ZM747.282 140.593C754.309 140.593 760.378 139.049 765.488 135.961C770.599 132.767 774.538 128.296 777.306 122.546C780.074 116.797 781.458 109.983 781.458 102.105C781.458 94.1194 780.074 87.3055 777.306 81.6627C774.538 75.9135 770.599 71.4951 765.488 68.4075C760.378 65.3199 754.309 63.7762 747.282 63.7762C740.468 63.7762 734.506 65.3199 729.396 68.4075C724.285 71.4951 720.293 75.9135 717.418 81.6627C714.65 87.3055 713.266 94.1194 713.266 102.105C713.266 109.983 714.65 116.797 717.418 122.546C720.293 128.296 724.285 132.767 729.396 135.961C734.506 139.049 740.468 140.593 747.282 140.593ZM816.343 189.94V78.7881H834.389L835.667 92.6821H836.306C838.329 89.3816 840.724 86.5602 843.492 84.2179C846.367 81.8757 849.614 80.0657 853.234 78.7881C856.96 77.5105 861.006 76.8717 865.371 76.8717C872.931 76.8717 879.478 78.6816 885.015 82.3015C890.551 85.815 894.863 90.7125 897.95 96.9941C901.038 103.276 902.582 110.409 902.582 118.394C902.582 126.379 901.038 133.512 897.95 139.794C894.863 146.076 890.498 151.026 884.855 154.646C879.212 158.16 872.505 159.916 864.733 159.916C858.557 159.916 853.181 158.745 848.603 156.403C844.131 153.954 840.564 151.08 837.903 147.779V189.94H816.343ZM859.143 142.349C863.508 142.349 867.288 141.338 870.482 139.315C873.782 137.292 876.284 134.524 877.988 131.01C879.798 127.391 880.703 123.238 880.703 118.554C880.703 113.763 879.798 109.61 877.988 106.097C876.284 102.477 873.782 99.6557 870.482 97.6329C867.288 95.61 863.508 94.5985 859.143 94.5985C854.884 94.5985 851.105 95.61 847.804 97.6329C844.504 99.6557 841.949 102.477 840.139 106.097C838.329 109.61 837.424 113.763 837.424 118.554C837.424 123.238 838.329 127.391 840.139 131.01C841.949 134.524 844.504 137.292 847.804 139.315C851.105 141.338 854.884 142.349 859.143 142.349ZM946.236 159.916C939.21 159.916 932.981 158.745 927.551 156.403C922.228 154.061 917.916 150.867 914.616 146.821C911.422 142.669 909.558 137.984 909.026 132.767H930.586C931.012 134.684 931.863 136.494 933.141 138.197C934.419 139.901 936.122 141.285 938.251 142.349C940.487 143.307 943.042 143.787 945.917 143.787C948.898 143.787 951.294 143.414 953.104 142.669C954.914 141.817 956.244 140.752 957.096 139.475C958.054 138.197 958.533 136.813 958.533 135.322C958.533 133.3 957.841 131.756 956.457 130.691C955.18 129.52 953.263 128.508 950.708 127.657C948.259 126.805 945.331 125.9 941.925 124.942C938.411 123.984 934.844 122.972 931.225 121.907C927.711 120.843 924.464 119.512 921.483 117.915C918.502 116.211 916.106 114.082 914.296 111.527C912.593 108.865 911.741 105.565 911.741 101.625C911.741 97.0473 913.019 92.8951 915.574 89.1687C918.129 85.4423 921.802 82.4612 926.593 80.2254C931.491 77.9896 937.293 76.8717 944.001 76.8717C953.583 76.8717 961.195 79.0543 966.838 83.4194C972.587 87.7846 975.941 93.8 976.899 101.466H956.617C956.085 98.804 954.701 96.7279 952.465 95.2373C950.335 93.7468 947.514 93.0015 944.001 93.0015C940.274 93.0015 937.4 93.7468 935.377 95.2373C933.46 96.6214 932.502 98.3249 932.502 100.348C932.502 101.838 933.141 103.116 934.419 104.181C935.696 105.139 937.559 106.044 940.008 106.896C942.563 107.641 945.598 108.493 949.111 109.451C954.754 110.941 959.918 112.538 964.602 114.242C969.287 115.945 973.013 118.288 975.781 121.269C978.549 124.143 979.933 128.242 979.933 133.566C980.04 138.676 978.709 143.201 975.941 147.14C973.173 151.08 969.287 154.22 964.283 156.563C959.279 158.799 953.263 159.916 946.236 159.916Z" fill="white"/>
<path fill-rule="evenodd" clip-rule="evenodd" d="M96.1063 169.548C59.9636 169.548 30.6641 140.248 30.6641 104.105C30.6641 67.9627 59.9636 38.6632 96.1063 38.6632C132.249 38.6632 161.549 67.9627 161.549 104.105C161.549 140.248 132.249 169.548 96.1063 169.548Z" fill="white"/>
<path fill-rule="evenodd" clip-rule="evenodd" d="M37.933 104C37.933 136.07 63.9311 162.068 96.0014 162.068C128.072 162.068 154.07 136.07 154.07 104C154.07 71.9298 128.072 45.9317 96.0014 45.9317C63.9311 45.9317 37.933 71.9298 37.933 104ZM0.0251881 104C0.0251857 157.006 42.9952 199.976 96.0014 199.976C149.008 199.976 191.978 157.006 191.978 104C191.978 50.9939 149.008 8.02392 96.0014 8.02392C42.9952 8.02392 0.0251904 50.9939 0.0251881 104Z" fill="url(#paint0_radial_1172_215)"/>
<path fill-rule="evenodd" clip-rule="evenodd" d="M7.49084 141.145C23.9229 180.438 64.6026 204.219 106.819 199.377C93.6573 190.231 29.044 125.001 90.286 96.903C157.29 66.1617 153.101 30.8526 137.106 17.27C117.244 7.84467 94.0591 5.15821 71.1595 11.2941C52.6513 16.2534 36.8632 26.2969 24.8951 39.5194C13.467 52.4353 5.5034 68.1691 1.96586 84.686C-0.215092 95.2625 -0.629119 106.328 0.963755 117.468C1.51393 120.928 2.03846 124.394 3.03264 127.789C4.04352 132.507 5.7456 136.855 7.49084 141.145Z" fill="url(#paint1_linear_1172_215)"/>
<path fill-rule="evenodd" clip-rule="evenodd" d="M136.168 16.8319C150.325 26.4054 185.219 54.6951 125.699 88.8318C60.4901 126.231 115.082 184.191 151.67 182.213C183.378 159.637 199.372 118.967 188.705 79.16C181.026 50.5003 161.156 28.3628 136.168 16.8319Z" fill="url(#paint2_linear_1172_215)"/>
<defs>
<radialGradient id="paint0_radial_1172_215" cx="0" cy="0" r="1" gradientUnits="userSpaceOnUse" gradientTransform="translate(96.0013 104) rotate(-29.6192) scale(125.062 119.752)">
<stop offset="0.5" stop-color="#B6B5FF"/>
<stop offset="1" stop-color="#DCDCFF"/>
</radialGradient>
<linearGradient id="paint1_linear_1172_215" x1="73.5103" y1="8" x2="73.5103" y2="200" gradientUnits="userSpaceOnUse">
<stop stop-color="#6D6AFF"/>
<stop offset="0.5" stop-color="#4844EC"/>
<stop offset="1" stop-color="#191994"/>
</linearGradient>
<linearGradient id="paint2_linear_1172_215" x1="246.098" y1="119.272" x2="41.217" y2="119.272" gradientUnits="userSpaceOnUse">
<stop stop-color="#4844EC"/>
<stop offset="1" stop-color="#6D6AFF"/>
</linearGradient>
</defs>
</svg>
