<svg xmlns="http://www.w3.org/2000/svg" width="834" aria-label="The Village Voice" class="c-fpHeader__svg" viewBox="0 0 834 278"><g fill="none"><path fill="#005EB7" d="M0 0h833.6v277.4H0z"></path><path fill="#FFF" d="M276.2 139c-.8 32.9 4.6 84.3 46.7 84.5 35.8.2 48.4-31.7 48.5-84.4 0-42.7-7.5-85.9-48-86-42.6 0-46.5 59.1-47.2 85.9m140.4 0c0 61-24.8 120.7-93.3 120.7-68.6 0-92.1-59.3-92.1-120.7 0-62.3 29.9-121.1 91.6-121.1 61.8 0 93.8 50.5 93.8 121.1m12.9-118.2h42.6v235.4h-42.6zm249.4 235h135.2v-35.7h-92.5v-67.9h82.2v-35.1h-82.2V55.7h92.2V20.8H678.9zm-55.6-80.9c-3.7 26.1-14.7 47.6-42.1 47.9-29.7.3-50.1-16.7-50.7-83.4-.6-70.5 25.8-86.2 49.4-86.2 23.6 0 41.6 18 43.4 46.3h42.8c-2.5-55.1-42.1-81.8-86.2-81.8s-95.1 32-95.1 121.2 42.4 120.7 96.4 120.7c54 0 83.4-43.2 85.2-84.8h-43.1v.1zM112.1 20.8H66.9l64.9 235h45.8l66.6-235H200l-44.9 167.6zM34.5 260.4h-6.4v-4.9l-8.8-.7-.5-7h9.4v-6h6.4v6h11.1c3.2 0 4.6 0 4.4-3.9l-.1-2.5h6.1l.1.6c.2 1.5.5 3 .5 4.5 0 2.3-.3 5.4-1.8 7.2-1.9 2.3-5.2 2.3-8 2.3H34.5v4.4zm21.6-46.7v8.1H41c-2.4 0-7-.3-7 3.2 0 1.5.7 3.2 2.1 3.9 1.5.7 3.2.7 4.9.7h15.1v8.1H17.7v-8.1H32v-.1c-2.8-1-4.4-4.2-4.4-7.3 0-2.6.9-5.3 3-7 2.2-1.7 5-1.5 7.7-1.5h17.8zm-17.4-22c-3 .2-5.8 1.2-5.8 4.7 0 3.6 2.6 5 5.8 5.2v-9.9zm4.8 9.9 1.4.1c3.3 0 6-1.9 6-5.4 0-2.5-1.8-5-4.4-5l.5-7.5c1.4 0 9.6 3.2 9.6 12.7 0 8.4-5.8 13.8-14.2 13.8-8.3 0-14.9-4.9-14.9-13.6 0-3.9 1.8-7.9 5-10.2 3.2-2.3 7.2-2.9 11-2.9v18zM56.1 155v6.5l-27.9 9.6v-8.6l17.7-5.4-17.7-5.5v-6.1zm-30.5-11.6h-7.8v-8.1h7.8v8.1zm30.5 0h-28v-8.1h28v8.1zM17.7 122h38.4v8.1H17.7zm0-13.3h38.4v8.1H17.7z"></path><g fill="#FFF"><path d="M42.8 87.9c.3 3.1 1 8.8 5.1 8.8 2.2 0 3.7-1.3 3.7-3.6 0-1.6-.9-3.1-2.3-4.1-1.8-1.2-3.4-1.1-5.4-1.1h-1.1zm13.3-.8c-1.4.3-2.9.4-4.4.4 3.3 2.3 4.9 4.7 4.9 8.9 0 5-2.6 8.8-7.9 8.8-4.1 0-6.9-2.6-8.3-6.3-1.2-3.2-1.4-7.7-1.8-11.1H38c-1.2 0-2.6-.1-3.7.7-.9.7-1.3 2.1-1.3 3.3 0 2.6 1.3 4.8 4.1 4.8l-.7 7.7c-6.8-.8-8.8-7.4-8.8-13.3 0-2.9.7-6.6 2.5-8.9 2.3-2.9 5.4-2.6 8.8-2.6H52c1.4 0 2.8-.1 4.2-.5v8.1h-.1zm0-23.3-.1 4.4c.4 1 1.2 1.8 2.3 1.8 1.3 0 1.9-.9 2.3-2 .5-1.8.6-4.3.6-6.1 0-2 .2-7.6-2.7-7.6-1.5 0-1.8 1.8-1.9 3l-.5 6.5zM36.3 67c2.8 0 4.2-1.8 4.2-4.5 0-2.6-1.4-4.8-4.3-4.8-2.8 0-4.1 2.3-4.1 4.8 0 2.6 1.5 4.5 4.2 4.5zm8.3-.3c.4.8 1.1 1.4 2 1.4 1.2 0 1.8-.5 2.1-1.6.4-1.4.5-4.4.6-6l.2-3.5c.3-4.9 1.3-10.4 7.4-10.4 3.7 0 6.3 2.7 7.6 5.9 1.3 3 1.5 7 1.5 10.3 0 4.5-.2 14.4-6.5 14.4-2.9 0-4.5-2.3-5.1-4.8-1 2.1-2.5 3.6-5 3.6-3.5 0-5.1-2.8-6.2-5.6-1.2 3-3.5 5-6.8 5-6.8 0-8.8-7.4-8.8-12.8 0-2.5.4-5 1.2-7.4-4.2-.6-5.5-2.2-5.5-6.3l.2-2.3h5.2c-.1.7-.3 1.4-.3 2.1 0 1.5.7 3 2.4 3.2 1.7-1.5 3.1-2.2 5.5-2.2 6.7-.1 8.7 7 8.7 12.3l-.4 4.7z"></path><path d="M38.7 28.6c-3 .2-5.8 1.2-5.8 4.7 0 3.6 2.6 5 5.8 5.2v-9.9zm4.8 9.9 1.4.1c3.3 0 6-1.9 6-5.4 0-2.5-1.8-5-4.4-5l.5-7.5c1.4 0 9.6 3.2 9.6 12.7 0 8.4-5.8 13.8-14.2 13.8-8.3 0-14.9-4.9-14.9-13.6 0-3.9 1.8-7.9 5-10.2 3.2-2.3 7.2-2.9 11-2.9v18z"></path></g></g></svg>