<svg width="198" height="174" viewBox="0 0 198 174" fill="none" xmlns="http://www.w3.org/2000/svg">
<path d="M42.746 11.6875C65.3546 28.6607 89.6728 63.0751 98.6012 81.5439C107.53 63.0765 131.847 28.6603 154.456 11.6875C170.77 -0.55961 197.201 -10.0357 197.201 20.1178C197.201 26.1399 193.748 70.7064 191.723 77.9416C184.684 103.096 159.034 109.512 136.218 105.629C176.1 112.417 186.246 134.9 164.335 157.384C122.723 200.084 104.526 146.67 99.8612 132.983C99.0064 130.474 98.6065 129.3 98.6006 130.298C98.5947 129.3 98.1947 130.474 97.34 132.983C92.6772 146.67 74.4807 200.086 32.8658 157.384C10.9548 134.9 21.1001 112.415 60.9827 105.629C38.166 109.512 12.5157 103.096 5.47774 77.9416C3.45263 70.7057 0 26.1392 0 20.1178C0 -10.0357 26.4323 -0.55961 42.7448 11.6875H42.746Z" fill="#A0A0A0"/>
</svg>
