<svg width="117" height="132" viewBox="0 0 117 132" fill="none" xmlns="http://www.w3.org/2000/svg">
<path d="M36.09 106.54L35.25 131.45H11.85C8.708 131.447 5.69544 130.198 3.47371 127.976C1.25198 125.755 0.00264813 122.742 0 119.6L0 114.3C12.4459 114.318 24.7515 111.672 36.09 106.54Z" fill="#A0A0A0"/>
<path d="M28.84 42.0001C28.961 42.3898 29.0013 42.8001 28.9583 43.2059C28.9153 43.6116 28.79 44.0044 28.59 44.3601C28.3812 44.71 28.1032 45.0138 27.7731 45.2528C27.443 45.4917 27.0677 45.661 26.67 45.7501C26.2697 45.8381 25.8553 45.8408 25.4539 45.7581C25.0525 45.6754 24.6729 45.5091 24.34 45.2701L16.93 39.9201C16.5296 39.6289 16.2514 39.1995 16.1493 38.715C16.0472 38.2305 16.1285 37.7254 16.3773 37.2974C16.6262 36.8693 17.025 36.5488 17.4965 36.3978C17.968 36.2469 18.4788 36.2762 18.93 36.4801L27.26 40.2201C27.6332 40.3897 27.9667 40.6358 28.2389 40.9424C28.511 41.249 28.7158 41.6094 28.84 42.0001ZM28.84 90.7601C28.7135 91.1499 28.5066 91.5089 28.2327 91.8138C27.9589 92.1186 27.6241 92.3627 27.25 92.5301L18.92 96.2801C18.4661 96.4978 17.9468 96.5363 17.4657 96.388C16.9847 96.2397 16.5773 95.9154 16.3248 95.4799C16.0723 95.0443 15.9934 94.5296 16.1037 94.0385C16.214 93.5473 16.5055 93.1158 16.92 92.8301L24.33 87.4901C24.9599 87.0354 25.7447 86.8495 26.5117 86.9732C27.2786 87.097 27.9651 87.5203 28.42 88.1501C28.48 88.2301 28.53 88.3201 28.58 88.4001C28.78 88.7558 28.9053 89.1485 28.9483 89.5543C28.9913 89.9601 28.951 90.3704 28.83 90.7601M13.83 69.2601L10.65 68.1701C10.17 68.0064 9.75315 67.6967 9.458 67.2842C9.16285 66.8717 9.00416 66.3773 9.00416 65.8701C9.00416 65.3629 9.16285 64.8684 9.458 64.456C9.75315 64.0435 10.17 63.7338 10.65 63.5701L13.83 62.4801C14.2768 62.3226 14.7503 62.2553 15.2233 62.2822C15.6962 62.3091 16.1591 62.4296 16.5852 62.6366C17.0112 62.8437 17.3919 63.1333 17.7052 63.4886C18.0185 63.8439 18.2582 64.2578 18.4104 64.7064C18.5626 65.155 18.6242 65.6293 18.5918 66.1019C18.5593 66.5745 18.4333 67.0359 18.2212 67.4595C18.0091 67.883 17.7151 68.2603 17.3561 68.5694C16.9971 68.8785 16.5804 69.1132 16.13 69.2601C15.3837 69.5101 14.5763 69.5101 13.83 69.2601ZM50.72 8.88898e-05H32.34C32.3374 8.5773 28.9296 16.8026 22.8655 22.8685C16.8014 28.9345 8.57721 32.3448 0 32.3501L0 114.3C12.4459 114.318 24.7515 111.672 36.09 106.54L37.52 64.1801C34.99 62.9301 33.18 59.6101 33.18 55.7301C33.18 51.3601 35.46 47.7301 38.47 46.9101C38.8803 44.279 39.8118 41.7564 41.21 39.4901C40.552 39.4102 39.921 39.1813 39.3647 38.8209C38.8085 38.4605 38.3418 37.978 38 37.4101C35.28 33.4101 31.61 29.3101 28.8 22.6801C28.541 22.1082 28.4397 21.4775 28.5065 20.8533C28.5733 20.2291 28.8059 19.6342 29.18 19.1301C29.4614 18.7619 29.8775 18.5203 30.3368 18.4585C30.7961 18.3966 31.2612 18.5195 31.63 18.8001C31.708 18.8614 31.7815 18.9283 31.85 19.0001C36.2 23.1201 41.43 24.3501 44.32 28.3001C44.5301 27.8093 44.8096 27.3513 45.15 26.9401C45.9679 25.8796 47.1142 25.1199 48.4096 24.7797C49.705 24.4396 51.0766 24.5382 52.31 25.0601C52.6892 23.7802 53.4719 22.6572 54.5415 21.8586C55.6111 21.06 56.9102 20.6285 58.245 20.6285C59.5798 20.6285 60.8789 21.06 61.9485 21.8586C63.0181 22.6572 63.8008 23.7802 64.18 25.0601C65.4918 24.4711 66.9777 24.3996 68.34 24.8601C71.6898 18.4819 75.8217 12.5461 80.64 7.19009C71.3805 2.44783 61.1232 -0.0170617 50.72 8.88898e-05Z" fill="#A0A0A0"/>
<path d="M105.83 68.1604L102.64 69.2504C101.744 69.5425 100.77 69.4697 99.9272 69.0478C99.0848 68.626 98.4427 67.8891 98.14 66.9969C97.8374 66.1047 97.8986 65.1292 98.3104 64.2818C98.7223 63.4345 99.4515 62.7836 100.34 62.4704C101.086 62.2204 101.894 62.2204 102.64 62.4704L105.83 63.5604C106.31 63.7241 106.727 64.0339 107.022 64.4463C107.317 64.8588 107.476 65.3533 107.476 65.8604C107.476 66.3676 107.317 66.8621 107.022 67.2745C106.727 67.687 106.31 67.9968 105.83 68.1604ZM99.1001 95.4404C98.8533 95.87 98.4559 96.1928 97.9848 96.3461C97.5137 96.4995 97.0025 96.4725 96.5501 96.2704L88.2201 92.5204C87.5146 92.2075 86.9624 91.6271 86.6848 90.9069C86.4073 90.1868 86.4271 89.3859 86.7401 88.6804L86.8901 88.3904C87.0808 88.0558 87.336 87.7623 87.6409 87.527C87.9459 87.2917 88.2945 87.1193 88.6666 87.0198C89.0386 86.9202 89.4268 86.8956 89.8085 86.9472C90.1902 86.9988 90.5578 87.1257 90.8901 87.3204L91.1401 87.4804L98.5501 92.8204C98.951 93.1105 99.2302 93.5389 99.3336 94.0228C99.4371 94.5067 99.3574 95.0118 99.1101 95.4404M86.6301 42.0004C86.7566 41.6106 86.9635 41.2517 87.2373 40.9468C87.5112 40.6419 87.846 40.3979 88.2201 40.2304L96.5501 36.4904C97.0013 36.2865 97.5121 36.2572 97.9836 36.4082C98.4551 36.5592 98.8539 36.8797 99.1028 37.3077C99.3516 37.7357 99.4329 38.2409 99.3308 38.7253C99.2287 39.2098 98.9505 39.6392 98.5501 39.9304L91.1401 45.2804C90.5049 45.7326 89.7161 45.9139 88.9472 45.7845C88.1783 45.6551 87.4923 45.2256 87.0401 44.5904L86.9001 44.3704C86.692 44.0162 86.5604 43.6223 86.5139 43.214C86.4674 42.8058 86.507 42.3924 86.6301 42.0004ZM86.3001 10.4604C84.4701 9.28043 82.5901 8.19043 80.6401 7.19043C75.8218 12.5465 71.6899 18.4822 68.3401 24.8604C69.5248 25.2398 70.5694 25.964 71.3401 26.9404C71.6713 27.3581 71.9501 27.8149 72.1701 28.3004C74.8801 24.5904 79.6501 23.7504 83.8301 19.7704C84.2348 19.3494 84.7766 19.0868 85.3578 19.03C85.9391 18.9732 86.5215 19.1258 87.0001 19.4604C87.2167 19.6031 87.4035 19.7865 87.5501 20.0004C87.8241 20.35 87.9962 20.7684 88.0474 21.2096C88.0985 21.6507 88.0268 22.0975 87.8401 22.5004L87.7201 22.7804C84.9201 29.2804 81.2701 33.4204 78.5701 37.4104C78.2216 37.983 77.7465 38.4682 77.1815 38.8287C76.6164 39.1893 75.9762 39.4156 75.3101 39.4904C76.6971 41.7575 77.6121 44.2812 78.0001 46.9104C80.7101 47.6504 82.8201 50.6504 83.2201 54.4304C83.2683 54.8621 83.2917 55.2961 83.2901 55.7304C83.2901 59.3804 81.6901 62.5404 79.3801 63.9304C79.2448 64.027 79.1009 64.1107 78.9501 64.1804V64.8104L80.9501 124.07C91.6356 118.526 100.593 110.152 106.844 99.8644C113.096 89.5763 116.401 77.7689 116.4 65.7304C116.41 54.7348 113.659 43.9127 108.4 34.2562C103.141 24.5997 95.5421 16.4177 86.3001 10.4604Z" fill="#A0A0A0"/>
<path d="M32.34 0C32.3374 8.57721 28.9296 16.8025 22.8655 22.8684C16.8014 28.9344 8.57721 32.3447 0 32.35L0 11.85C0.00264813 8.708 1.25198 5.69544 3.47371 3.47371C5.69544 1.25198 8.708 0.00264813 11.85 0L32.34 0Z" fill="#A0A0A0"/>
<path fill-rule="evenodd" clip-rule="evenodd" d="M64.18 57.2096L60.85 60.2696C60.5629 60.5405 60.3583 60.8872 60.26 61.2696C60.04 62.1496 59.61 63.8796 59.26 65.5196C59.2053 65.7415 59.0762 65.9379 58.8943 66.0762C58.7123 66.2144 58.4885 66.2862 58.26 66.2796C58.0316 66.2862 57.8078 66.2144 57.6258 66.0762C57.4439 65.9379 57.3148 65.7415 57.26 65.5196L56.2001 61.2696C56.1066 60.8852 55.9013 60.5372 55.6101 60.2696L52.28 57.2096C52.0938 57.0222 51.9893 56.7688 51.9893 56.5046C51.9893 56.2404 52.0938 55.9869 52.28 55.7996C52.3874 55.6847 52.5203 55.5968 52.668 55.543C52.8157 55.4891 52.974 55.4708 53.1301 55.4896L58.1301 56.1696H58.4001L58.7901 56.1196L63.4001 55.4896C63.604 55.4692 63.8094 55.5119 63.9882 55.6121C64.1671 55.7123 64.3109 55.865 64.4001 56.0496C64.49 56.2423 64.5163 56.4586 64.4749 56.6672C64.4335 56.8758 64.3267 57.0658 64.17 57.2096" fill="#A0A0A0"/>
</svg>
