<svg width="203" height="193" viewBox="0 0 203 193" fill="none" xmlns="http://www.w3.org/2000/svg">
<path fill-rule="evenodd" clip-rule="evenodd" d="M102.773 192.848C89.7104 192.848 84.0164 189.908 72.9124 181.959C62.864 174.77 56.4187 170.818 37.7631 174.505C30.4856 175.943 30.6278 175.284 29.0647 168.013C28.2324 164.182 27.6335 161.851 26.2125 161.625C11.0587 159.263 2.09626 155.77 0.309869 151.549C-0.542724 149.516 0.472404 147.916 2.03549 147.649C21.7974 144.362 37.7735 127.775 44.7059 111.435C44.7262 111.394 44.7364 111.352 44.7567 111.321C46.5126 107.727 46.8577 104.625 45.8021 102.098C43.4168 96.4082 35.7333 95.2171 30.2219 92.9987C26.4258 91.4787 20.1835 88.276 21.0158 83.8598C21.777 79.8134 28.2628 77.2457 31.7341 78.889C40.4529 83.0279 47.4359 81.7621 49.5268 79.8108C49.4253 77.8286 50.7451 75.6832 50.7451 73.6703C50.7451 59.6719 47.2129 42.2554 51.618 32.2727C70.6288 -10.8624 134.045 -10.646 152.955 32.2528C157.36 42.2458 156.274 59.6712 155.401 73.6901L155.36 74.3592C155.238 76.2591 155.127 78.055 155.035 79.8009C155.441 80.1809 157.076 81.4962 160.415 81.6296C163.247 81.5167 166.515 80.5938 170.108 78.889C174.34 76.8863 181.963 79.9576 182.044 84.5586C182.085 86.7051 180.512 89.9074 172.767 92.9987C167.276 95.1965 159.572 96.4082 157.197 102.098C156.131 104.625 156.477 107.727 158.233 111.311C158.253 111.352 158.263 111.394 158.284 111.435C158.821 112.719 171.864 142.801 200.954 147.649C202.182 147.854 203.065 148.963 202.994 150.216C202.963 150.668 202.862 151.117 202.669 151.559C200.893 155.76 191.941 159.243 176.777 161.605C175.356 161.831 174.757 164.163 173.935 167.973C172.686 173.766 172.879 175.758 165.226 174.238C146.773 170.602 139.78 174.997 130.087 181.93C122.941 187.044 114.862 192.848 102.773 192.848Z" fill="#A0A0A0"/>
</svg>
