<svg width="37" height="36" viewBox="0 0 37 36" fill="none" xmlns="http://www.w3.org/2000/svg">
<path d="M1.5692 17.9997C1.5692 10.1938 8.01931 3.84362 15.9471 3.84362H29.5669C26.4586 1.4387 22.5422 0 18.2818 0H18.2753C8.18395 0.00362124 0.00367799 8.05768 0 17.9937C0 17.9958 0 17.998 0 18.0001C0 27.6019 7.63723 35.4459 17.256 35.9704C17.5959 35.9887 17.9375 36 18.2822 36C22.5422 36 26.4586 34.5615 29.5667 32.1564H15.9471C8.01931 32.1564 1.5692 25.8058 1.5692 17.9997Z" fill="#6F3EFC"/>
<path d="M7.78746 18.0001C7.78746 13.5675 11.4499 9.96157 15.9515 9.96157H34.6444C33.939 8.57433 33.0548 7.28252 32.0135 6.11816H18.2864C11.6323 6.11816 6.21826 11.4485 6.21826 18.0001C6.21826 24.5518 11.6323 29.8829 18.2864 29.8829H32.0131C33.0542 28.7184 33.9383 27.4264 34.6435 26.039H15.9507C11.4497 26.039 7.78746 22.4332 7.78746 18.0001Z" fill="#6F3EFC"/>
<path d="M14.0001 17.9996C14.0006 17.4903 14.2063 17.0021 14.5721 16.642C14.9378 16.2819 15.4337 16.0793 15.951 16.0788H36.4611C36.3195 14.7705 36.0317 13.4816 35.6029 12.2354H18.2839C15.0559 12.2354 12.4294 14.8214 12.4294 17.9996C12.4294 21.1778 15.0559 23.7644 18.2839 23.7644H35.6029C36.032 22.5181 36.32 21.229 36.4616 19.9205H15.9514C15.434 19.9202 14.938 19.7176 14.5721 19.3575C14.2063 18.9973 14.0006 18.509 14.0001 17.9996Z" fill="#6F3EFC"/>
</svg>
